<svg width="99" height="132" viewBox="0 0 99 132" fill="none" xmlns="http://www.w3.org/2000/svg">
<path fill-rule="evenodd" clip-rule="evenodd" d="M87 24.3982V60.9823C87 60.9823 87 61.9027 86.3161 63.0531C85.6322 64.2035 84.4924 64.8938 84.4924 64.8938L49.614 81L14.7356 64.8938C14.7356 64.8938 13.5957 64.2035 12.9119 63.0531C12 62.1327 12 60.9823 12 60.9823V24.3982C12 24.3982 12 22.5575 12.9119 21.177C13.8237 19.7965 17.0152 18.1858 17.0152 18.1858L49.614 3L82.2128 18.1858C82.2128 18.1858 85.4043 19.7965 86.3161 21.177C87 22.5575 87 24.3982 87 24.3982Z" fill="#DE2A29"/>
<path fill-rule="evenodd" clip-rule="evenodd" d="M24.0824 62.1328L25.9061 57.531L33.6568 61.6726L35.2526 68.8053L43.2313 72.9469L33.2009 40.9646L27.0459 37.2832L16.5596 58.2213L24.0824 62.1328Z" fill="white"/>
<path fill-rule="evenodd" clip-rule="evenodd" d="M30.0087 46.0264L32.5163 54.9998L27.957 52.6989L30.0087 46.0264Z" fill="#DE2A29"/>
<path fill-rule="evenodd" clip-rule="evenodd" d="M63.7477 42.3452L68.7629 47.8673L73.3222 36.593L82.6687 31.9912L74.462 50.3983L81.7568 58.6815L74.0061 62.3629L69.2188 56.3806L64.4316 67.4248L55.541 72.0266L63.0638 55.0001L56.2249 46.4868L63.7477 42.3452Z" fill="white"/>
<path fill-rule="evenodd" clip-rule="evenodd" d="M81.9848 24.6285L81.5289 25.0887L51.2097 40.5046V40.2745L50.0699 75.7082L49.614 76.1683L48.9301 75.7082L47.5623 40.2745L17.4711 25.3188L17.2432 24.6285L17.9271 24.3984L49.614 37.2834L81.0729 24.3984L81.9848 24.6285Z" fill="white"/>
<path d="M3.976 92.976H5.768L9.534 103H7.798L6.902 100.438H2.856L1.946 103H0.21L3.976 92.976ZM6.37 98.982L5.306 96L4.914 94.838H4.83L4.438 96L3.374 98.982H6.37ZM14.452 103.224C13.948 103.224 13.4954 103.112 13.094 102.888C12.6927 102.664 12.3894 102.393 12.184 102.076H12.114V103H10.644V92.976H12.184V95.79L12.114 96.798H12.184C12.3894 96.4713 12.6927 96.196 13.094 95.972C13.4954 95.748 13.948 95.636 14.452 95.636C15.096 95.636 15.6794 95.7993 16.202 96.126C16.7247 96.4527 17.1354 96.9053 17.434 97.484C17.742 98.0533 17.896 98.702 17.896 99.43C17.896 100.158 17.742 100.811 17.434 101.39C17.1354 101.959 16.7247 102.407 16.202 102.734C15.6794 103.061 15.096 103.224 14.452 103.224ZM14.228 101.81C14.6014 101.81 14.9514 101.712 15.278 101.516C15.6047 101.32 15.866 101.04 16.062 100.676C16.258 100.312 16.356 99.8967 16.356 99.43C16.356 98.9633 16.258 98.5527 16.062 98.198C15.866 97.834 15.6047 97.554 15.278 97.358C14.9514 97.162 14.6014 97.064 14.228 97.064C13.8547 97.064 13.5047 97.162 13.178 97.358C12.8607 97.554 12.604 97.834 12.408 98.198C12.212 98.5527 12.114 98.9633 12.114 99.43C12.114 99.8967 12.212 100.312 12.408 100.676C12.604 101.04 12.8607 101.32 13.178 101.516C13.5047 101.712 13.8547 101.81 14.228 101.81ZM21.5383 103.224C21.025 103.224 20.5677 103.126 20.1663 102.93C19.765 102.725 19.4523 102.44 19.2283 102.076C19.0043 101.703 18.8923 101.283 18.8923 100.816C18.8923 100.079 19.1677 99.4953 19.7183 99.066C20.2783 98.6367 20.983 98.422 21.8323 98.422C22.2523 98.422 22.6303 98.464 22.9663 98.548C23.3023 98.6227 23.5683 98.7067 23.7643 98.8V98.436C23.7643 97.9973 23.601 97.6427 23.2743 97.372C22.9477 97.092 22.5277 96.952 22.0143 96.952C21.6503 96.952 21.305 97.0313 20.9783 97.19C20.661 97.3487 20.4043 97.568 20.2083 97.848L19.1303 97.022C19.4477 96.5833 19.8583 96.2427 20.3623 96C20.8663 95.7573 21.4263 95.636 22.0423 95.636C23.0783 95.636 23.8763 95.8927 24.4363 96.406C24.9963 96.91 25.2763 97.624 25.2763 98.548V103H23.7643V102.146H23.6943C23.489 102.454 23.1997 102.711 22.8263 102.916C22.453 103.121 22.0237 103.224 21.5383 103.224ZM21.8043 101.95C22.1777 101.95 22.5137 101.861 22.8123 101.684C23.111 101.507 23.3443 101.269 23.5123 100.97C23.6803 100.671 23.7643 100.349 23.7643 100.004C23.5497 99.8827 23.2977 99.7847 23.0083 99.71C22.7283 99.6353 22.4343 99.598 22.1263 99.598C21.5477 99.598 21.123 99.7147 20.8523 99.948C20.5817 100.172 20.4463 100.466 20.4463 100.83C20.4463 101.157 20.5723 101.427 20.8243 101.642C21.0763 101.847 21.403 101.95 21.8043 101.95ZM26.9546 95.86H28.4246V96.798H28.4946C28.6999 96.462 29.0033 96.1867 29.4046 95.972C29.8153 95.748 30.2493 95.636 30.7066 95.636C31.5746 95.636 32.2326 95.8927 32.6806 96.406C33.1379 96.91 33.3666 97.6007 33.3666 98.478V103H31.8266V98.688C31.8266 98.128 31.6866 97.7173 31.4066 97.456C31.1359 97.1947 30.7579 97.064 30.2726 97.064C29.9273 97.064 29.6193 97.162 29.3486 97.358C29.0779 97.5447 28.8679 97.7967 28.7186 98.114C28.5693 98.4313 28.4946 98.772 28.4946 99.136V103H26.9546V95.86ZM38.2547 106.248C37.3773 106.248 36.6493 106.047 36.0707 105.646C35.5013 105.245 35.1187 104.769 34.9227 104.218L36.3647 103.616C36.514 103.989 36.752 104.288 37.0787 104.512C37.4147 104.745 37.8067 104.862 38.2547 104.862C38.908 104.862 39.4167 104.666 39.7807 104.274C40.154 103.891 40.3407 103.35 40.3407 102.65V101.992H40.2567C40.0233 102.328 39.7107 102.594 39.3187 102.79C38.936 102.977 38.4927 103.07 37.9887 103.07C37.3913 103.07 36.836 102.916 36.3227 102.608C35.8093 102.3 35.3987 101.866 35.0907 101.306C34.792 100.737 34.6427 100.088 34.6427 99.36C34.6427 98.632 34.792 97.988 35.0907 97.428C35.3987 96.8587 35.8093 96.42 36.3227 96.112C36.836 95.7947 37.3913 95.636 37.9887 95.636C38.4833 95.636 38.9267 95.734 39.3187 95.93C39.7107 96.126 40.0233 96.392 40.2567 96.728H40.3407V95.86H41.8107V102.608C41.8107 103.383 41.6613 104.041 41.3627 104.582C41.064 105.133 40.644 105.548 40.1027 105.828C39.5707 106.108 38.9547 106.248 38.2547 106.248ZM38.2687 101.67C38.642 101.67 38.9873 101.581 39.3047 101.404C39.622 101.217 39.874 100.951 40.0607 100.606C40.2473 100.251 40.3407 99.836 40.3407 99.36C40.3407 98.632 40.14 98.0673 39.7387 97.666C39.3467 97.2553 38.8567 97.05 38.2687 97.05C37.886 97.05 37.536 97.1433 37.2187 97.33C36.9013 97.5073 36.6493 97.7687 36.4627 98.114C36.276 98.4593 36.1827 98.8747 36.1827 99.36C36.1827 99.8453 36.276 100.261 36.4627 100.606C36.6493 100.951 36.9013 101.217 37.2187 101.404C37.536 101.581 37.886 101.67 38.2687 101.67ZM47.1539 92.976H53.5099V94.768H49.0439V97.092H53.0619V98.884H49.0439V101.208H53.5099V103H47.1539V92.976ZM56.828 99.374L54.364 95.86H56.534L57.892 97.904H57.976L59.25 95.86H61.49L58.984 99.374L61.49 103H59.32L57.948 100.914H57.864L56.52 103H54.35L56.828 99.374ZM62.5138 95.86H64.2358V96.728H64.3478C64.5438 96.42 64.8285 96.1633 65.2018 95.958C65.5752 95.7433 66.0045 95.636 66.4898 95.636C67.1338 95.636 67.7172 95.7993 68.2398 96.126C68.7718 96.4433 69.1872 96.8913 69.4858 97.47C69.7845 98.0487 69.9338 98.702 69.9338 99.43C69.9338 100.167 69.7845 100.825 69.4858 101.404C69.1872 101.973 68.7718 102.421 68.2398 102.748C67.7172 103.065 67.1338 103.224 66.4898 103.224C66.0045 103.224 65.5705 103.121 65.1878 102.916C64.8145 102.711 64.5345 102.454 64.3478 102.146H64.2358L64.3478 103.154V106.024H62.5138V95.86ZM66.1678 101.53C66.5132 101.53 66.8352 101.441 67.1338 101.264C67.4325 101.087 67.6705 100.839 67.8478 100.522C68.0252 100.205 68.1138 99.8407 68.1138 99.43C68.1138 99.0193 68.0252 98.6553 67.8478 98.338C67.6705 98.0207 67.4325 97.778 67.1338 97.61C66.8352 97.4327 66.5132 97.344 66.1678 97.344C65.8318 97.344 65.5145 97.4327 65.2158 97.61C64.9172 97.778 64.6792 98.0207 64.5018 98.338C64.3245 98.6553 64.2358 99.0193 64.2358 99.43C64.2358 99.8407 64.3245 100.205 64.5018 100.522C64.6792 100.839 64.9172 101.087 65.2158 101.264C65.5145 101.441 65.8318 101.53 66.1678 101.53ZM71.2788 95.86H73.0008V96.812H73.1128C73.2901 96.476 73.5655 96.2007 73.9388 95.986C74.3121 95.762 74.7228 95.65 75.1708 95.65C75.4975 95.65 75.7961 95.7013 76.0668 95.804V97.638C75.8148 97.5447 75.6001 97.4793 75.4228 97.442C75.2548 97.3953 75.0728 97.372 74.8768 97.372C74.3355 97.372 73.9061 97.568 73.5888 97.96C73.2715 98.352 73.1128 98.8467 73.1128 99.444V103H71.2788V95.86ZM80.1756 103.224C79.4663 103.224 78.8269 103.061 78.2576 102.734C77.6883 102.407 77.2403 101.959 76.9136 101.39C76.5963 100.811 76.4376 100.163 76.4376 99.444C76.4376 98.7627 76.5963 98.1327 76.9136 97.554C77.2309 96.966 77.6696 96.4993 78.2296 96.154C78.7896 95.8087 79.4149 95.636 80.1056 95.636C80.8429 95.636 81.4776 95.7947 82.0096 96.112C82.5416 96.4293 82.9429 96.8633 83.2136 97.414C83.4936 97.9647 83.6336 98.576 83.6336 99.248C83.6336 99.4627 83.6196 99.668 83.5916 99.864H78.2296C78.3229 100.433 78.5469 100.867 78.9016 101.166C79.2656 101.455 79.6996 101.6 80.2036 101.6C80.6236 101.6 80.9829 101.511 81.2816 101.334C81.5896 101.147 81.8323 100.9 82.0096 100.592L83.4936 101.32C82.7656 102.589 81.6596 103.224 80.1756 103.224ZM81.8696 98.562C81.8509 98.338 81.7669 98.1187 81.6176 97.904C81.4776 97.68 81.2769 97.498 81.0156 97.358C80.7636 97.2087 80.4649 97.134 80.1196 97.134C79.6809 97.134 79.3029 97.2647 78.9856 97.526C78.6776 97.778 78.4536 98.1233 78.3136 98.562H81.8696ZM87.8308 103.224C86.9628 103.224 86.2581 103.047 85.7168 102.692C85.1848 102.337 84.8114 101.875 84.5968 101.306L86.2348 100.592C86.3841 100.928 86.5941 101.185 86.8648 101.362C87.1448 101.53 87.4668 101.614 87.8308 101.614C88.1668 101.614 88.4468 101.563 88.6708 101.46C88.8948 101.348 89.0068 101.171 89.0068 100.928C89.0068 100.695 88.9041 100.522 88.6988 100.41C88.4934 100.289 88.1854 100.181 87.7748 100.088L86.9348 99.906C86.3561 99.766 85.8754 99.514 85.4928 99.15C85.1101 98.7767 84.9188 98.3147 84.9188 97.764C84.9188 97.3533 85.0401 96.9847 85.2828 96.658C85.5348 96.3313 85.8708 96.0793 86.2908 95.902C86.7201 95.7247 87.1914 95.636 87.7048 95.636C89.1794 95.636 90.1641 96.154 90.6588 97.19L89.0908 97.876C88.8108 97.372 88.3628 97.12 87.7468 97.12C87.4294 97.12 87.1774 97.1807 86.9908 97.302C86.8041 97.414 86.7108 97.5587 86.7108 97.736C86.7108 98.072 87.0281 98.324 87.6628 98.492L88.7128 98.744C89.4221 98.9213 89.9541 99.192 90.3088 99.556C90.6728 99.92 90.8548 100.368 90.8548 100.9C90.8548 101.357 90.7194 101.763 90.4488 102.118C90.1874 102.463 89.8234 102.734 89.3568 102.93C88.8994 103.126 88.3908 103.224 87.8308 103.224ZM94.8991 103.224C94.0311 103.224 93.3264 103.047 92.7851 102.692C92.2531 102.337 91.8798 101.875 91.6651 101.306L93.3031 100.592C93.4524 100.928 93.6624 101.185 93.9331 101.362C94.2131 101.53 94.5351 101.614 94.8991 101.614C95.2351 101.614 95.5151 101.563 95.7391 101.46C95.9631 101.348 96.0751 101.171 96.0751 100.928C96.0751 100.695 95.9724 100.522 95.7671 100.41C95.5618 100.289 95.2538 100.181 94.8431 100.088L94.0031 99.906C93.4244 99.766 92.9438 99.514 92.5611 99.15C92.1784 98.7767 91.9871 98.3147 91.9871 97.764C91.9871 97.3533 92.1084 96.9847 92.3511 96.658C92.6031 96.3313 92.9391 96.0793 93.3591 95.902C93.7884 95.7247 94.2598 95.636 94.7731 95.636C96.2478 95.636 97.2324 96.154 97.7271 97.19L96.1591 97.876C95.8791 97.372 95.4311 97.12 94.8151 97.12C94.4978 97.12 94.2458 97.1807 94.0591 97.302C93.8724 97.414 93.7791 97.5587 93.7791 97.736C93.7791 98.072 94.0964 98.324 94.7311 98.492L95.7811 98.744C96.4904 98.9213 97.0224 99.192 97.3771 99.556C97.7411 99.92 97.9231 100.368 97.9231 100.9C97.9231 101.357 97.7878 101.763 97.5171 102.118C97.2558 102.463 96.8918 102.734 96.4251 102.93C95.9678 103.126 95.4591 103.224 94.8991 103.224Z" fill="black"/>
<path d="M28.36 111.68H31.04L29.98 117.74H30.14L36.36 111.68H39.72L39.68 111.84L33.44 117.8L37.68 125.84L37.66 126H34.5L31.28 119.86L29.26 121.8L28.5 126H25.82L28.36 111.68ZM45.8017 124.72C45.4551 125.24 45.0017 125.64 44.4417 125.92C43.8951 126.187 43.2617 126.32 42.5417 126.32C41.5017 126.32 40.7017 126.027 40.1417 125.44C39.5817 124.853 39.3017 124.107 39.3017 123.2C39.3017 122.773 39.3351 122.367 39.4017 121.98L40.5017 115.8H43.1217L42.0817 121.66C42.0284 121.873 42.0017 122.127 42.0017 122.42C42.0017 122.847 42.1484 123.2 42.4417 123.48C42.7351 123.76 43.1217 123.9 43.6017 123.9C44.3751 123.9 45.0017 123.647 45.4817 123.14C45.9617 122.62 46.2817 121.907 46.4417 121L47.3617 115.8H49.9817L48.1817 126H45.7417L45.9617 124.72H45.8017ZM52.5539 115.8H54.9939L54.7739 117.04H54.9339C55.2406 116.56 55.6806 116.187 56.2539 115.92C56.8272 115.64 57.4606 115.5 58.1539 115.5C58.6472 115.5 59.0539 115.573 59.3739 115.72L58.9139 118.4C58.7139 118.267 58.4672 118.16 58.1739 118.08C57.8939 118 57.6139 117.96 57.3339 117.96C56.5472 117.96 55.8739 118.24 55.3139 118.8C54.7672 119.36 54.4139 120.067 54.2539 120.92L53.3739 126H50.7539L52.5539 115.8ZM63.0091 114.68C62.5424 114.68 62.1424 114.52 61.8091 114.2C61.4757 113.867 61.3091 113.467 61.3091 113C61.3091 112.533 61.4757 112.14 61.8091 111.82C62.1424 111.487 62.5424 111.32 63.0091 111.32C63.4757 111.32 63.8691 111.487 64.1891 111.82C64.5224 112.14 64.6891 112.533 64.6891 113C64.6891 113.467 64.5224 113.867 64.1891 114.2C63.8691 114.52 63.4757 114.68 63.0091 114.68ZM61.1891 115.8H63.8091L62.0291 126H59.4091L61.1891 115.8ZM66.6164 115.8H69.0564L68.8364 117.04H68.9964C69.3031 116.56 69.7431 116.187 70.3164 115.92C70.8897 115.64 71.5231 115.5 72.2164 115.5C72.7097 115.5 73.1164 115.573 73.4364 115.72L72.9764 118.4C72.7764 118.267 72.5297 118.16 72.2364 118.08C71.9564 118 71.6764 117.96 71.3964 117.96C70.6097 117.96 69.9364 118.24 69.3764 118.8C68.8297 119.36 68.4764 120.067 68.3164 120.92L67.4364 126H64.8164L66.6164 115.8Z" fill="url(#paint0_linear_1_4185)"/>
<defs>
<linearGradient id="paint0_linear_1_4185" x1="69.5" y1="113" x2="37.0714" y2="109.386" gradientUnits="userSpaceOnUse">
<stop offset="0.0566047" stop-color="#AE0C1F"/>
<stop offset="0.967972" stop-color="#E52138"/>
</linearGradient>
</defs>
</svg>
