<svg width="40" height="40" viewBox="0 0 40 40" fill="none" xmlns="http://www.w3.org/2000/svg">
<rect width="40" height="40" rx="8" fill="#FDEFF0"/>
<path d="M30.3091 20.3121L30.2682 20.227C28.9182 18.6103 26.9136 17.6743 24.8682 17.6743C24.7046 17.6743 24.6227 17.802 24.6227 17.9296L24.5409 23.418H10.2227C10.1 23.4605 9.97729 23.5881 9.97729 23.7158V25.9281C9.97729 26.0983 10.1 26.1834 10.2227 26.1834H31.0045C31.1682 26.1834 31.25 26.0558 31.25 25.9281V22.8649C31.25 21.9289 30.9227 21.0354 30.3091 20.3121Z" fill="#FBB040"/>
<path d="M21.6773 11.25H10.8364C9.69091 11.25 8.75 12.2285 8.75 13.4198V20.61C8.75 21.7587 9.69091 22.7373 10.8364 22.7373H21.7182C22.8636 22.7373 23.8045 21.7587 23.8045 20.5675V13.4198C23.7636 12.2285 22.8227 11.25 21.6773 11.25Z" fill="url(#paint0_linear_535_4318)"/>
<g clip-path="url(#clip0_535_4318)">
<path d="M13.9805 18.5591C13.9609 18.5 13.9021 18.4606 13.8236 18.4606H12.8825V16.1772C12.8825 16.0787 12.804 16 12.706 16H11.2746C11.1962 16 11.1178 16.0787 11.1178 16.1772V18.4606H10.1766C10.1178 18.4606 10.0589 18.5 10.0197 18.5591C10.0001 18.6181 10.0001 18.6969 10.0393 18.7362L11.8236 20.9409C11.8629 20.9803 11.9021 21 11.9609 21C12.0197 21 12.0589 20.9803 12.0981 20.9409L13.9805 18.7362C14.0001 18.6969 14.0197 18.6181 13.9805 18.5591Z" fill="#FBB040"/>
</g>
<path d="M27.568 28.013C28.4717 28.013 29.2044 27.2511 29.2044 26.3112C29.2044 25.3713 28.4717 24.6094 27.568 24.6094C26.6643 24.6094 25.9316 25.3713 25.9316 26.3112C25.9316 27.2511 26.6643 28.013 27.568 28.013Z" fill="#013177"/>
<path d="M27.5681 28.3959C26.4636 28.3959 25.6045 27.4599 25.6045 26.3537C25.6045 25.205 26.5045 24.3115 27.5681 24.3115C28.6727 24.3115 29.5318 25.2475 29.5318 26.3537C29.5318 27.4599 28.6318 28.3959 27.5681 28.3959ZM27.5681 24.9923C26.8727 24.9923 26.2999 25.5879 26.2999 26.3112C26.2999 27.0344 26.8727 27.6301 27.5681 27.6301C28.2636 27.6301 28.8363 27.0344 28.8363 26.3112C28.7954 25.5879 28.2636 24.9923 27.5681 24.9923Z" fill="#013177"/>
<path d="M31.1274 21.8864C30.9638 21.2908 30.7183 20.7377 30.3092 20.3122L30.2683 20.2271C29.3274 19.1209 28.141 18.3551 26.791 17.9722C26.7092 17.9297 26.6274 17.9722 26.5456 18.0148C26.4638 18.0573 26.4229 18.1424 26.4229 18.2275V21.9715C26.4229 22.1417 26.5456 22.2268 26.6683 22.2268H30.841C30.9229 22.2268 31.0047 22.1842 31.0456 22.0991C31.1274 22.0566 31.1683 21.9715 31.1274 21.8864Z" fill="url(#paint1_linear_535_4318)"/>
<path d="M13.1682 28.3532C14.2527 28.3532 15.1319 27.4388 15.1319 26.311C15.1319 25.1831 14.2527 24.2688 13.1682 24.2688C12.0837 24.2688 11.2046 25.1831 11.2046 26.311C11.2046 27.4388 12.0837 28.3532 13.1682 28.3532Z" fill="#AD1426"/>
<path d="M27.5681 28.3532C28.6526 28.3532 29.5318 27.4388 29.5318 26.311C29.5318 25.1831 28.6526 24.2688 27.5681 24.2688C26.4836 24.2688 25.6045 25.1831 25.6045 26.311C25.6045 27.4388 26.4836 28.3532 27.5681 28.3532Z" fill="#AD1426"/>
<path d="M13.1683 27.7576C13.9364 27.7576 14.5592 27.11 14.5592 26.3111C14.5592 25.5121 13.9364 24.8645 13.1683 24.8645C12.4001 24.8645 11.7773 25.5121 11.7773 26.3111C11.7773 27.11 12.4001 27.7576 13.1683 27.7576Z" fill="#F7B8BF"/>
<path d="M27.5682 27.7576C28.3363 27.7576 28.9591 27.11 28.9591 26.3111C28.9591 25.5121 28.3363 24.8645 27.5682 24.8645C26.8 24.8645 26.1772 25.5121 26.1772 26.3111C26.1772 27.11 26.8 27.7576 27.5682 27.7576Z" fill="#F7B8BF"/>
<defs>
<linearGradient id="paint0_linear_535_4318" x1="16.3434" y1="17.0543" x2="16.4294" y2="11.1585" gradientUnits="userSpaceOnUse">
<stop stop-color="#F32940"/>
<stop offset="0.963542" stop-color="#FF7787"/>
</linearGradient>
<linearGradient id="paint1_linear_535_4318" x1="28.8039" y1="20.1132" x2="28.8418" y2="17.9208" gradientUnits="userSpaceOnUse">
<stop stop-color="#F32940"/>
<stop offset="0.963542" stop-color="#FF7787"/>
</linearGradient>
<clipPath id="clip0_535_4318">
<rect width="4" height="5" fill="white" transform="translate(10 16)"/>
</clipPath>
</defs>
</svg>
