<svg width="24" height="24" viewBox="0 0 24 24" fill="none" xmlns="http://www.w3.org/2000/svg">
<path fill-rule="evenodd" clip-rule="evenodd" d="M5.70704 4.2939C5.51844 4.11174 5.26584 4.01094 5.00364 4.01322C4.74144 4.0155 4.49063 4.12067 4.30522 4.30608C4.11981 4.49148 4.01465 4.7423 4.01237 5.00449C4.01009 5.26669 4.11088 5.51929 4.29304 5.7079L18.293 19.7079C18.4816 19.8901 18.7342 19.9908 18.9964 19.9886C19.2586 19.9863 19.5095 19.8811 19.6949 19.6957C19.8803 19.5103 19.9854 19.2595 19.9877 18.9973C19.99 18.7351 19.8892 18.4825 19.707 18.2939L18.234 16.8209C19.7916 15.579 20.9433 13.9008 21.542 12.0009C20.268 7.9439 16.478 5.0009 12 5.0009C10.4325 4.99877 8.88654 5.36675 7.48804 6.0749L5.70804 4.2939H5.70704ZM9.96804 8.5539L11.482 10.0689C11.8211 9.97885 12.1779 9.97944 12.5167 10.0706C12.8555 10.1618 13.1644 10.3404 13.4125 10.5885C13.6606 10.8365 13.8391 11.1454 13.9303 11.4842C14.0215 11.823 14.0221 12.1798 13.932 12.5189L15.446 14.0329C15.897 13.2689 16.0812 12.3767 15.9697 11.4966C15.8581 10.6165 15.4572 9.79839 14.8299 9.17107C14.2025 8.54376 13.3845 8.14279 12.5044 8.03124C11.6242 7.9197 10.732 8.10391 9.96804 8.5549V8.5539Z" fill="#667085"/>
<path d="M14.454 18.6979L11.75 15.9929C10.7777 15.9319 9.86103 15.5183 9.17206 14.8295C8.4831 14.1407 8.06918 13.2242 8.00801 12.2519L4.33501 8.57886C3.49022 9.58487 2.85236 10.7478 2.45801 12.0009C3.73201 16.0579 7.52301 19.0009 12 19.0009C12.847 19.0009 13.669 18.8959 14.454 18.6979Z" fill="#667085"/>
</svg>
