<svg width="16" height="17" viewBox="0 0 16 17" fill="none" xmlns="http://www.w3.org/2000/svg">
<path fill-rule="evenodd" clip-rule="evenodd" d="M3.9999 7.70001V6.10001C3.9999 5.03914 4.42133 4.02172 5.17148 3.27158C5.92162 2.52143 6.93904 2.10001 7.9999 2.10001C9.06077 2.10001 10.0782 2.52143 10.8283 3.27158C11.5785 4.02172 11.9999 5.03914 11.9999 6.10001V7.70001C12.4242 7.70001 12.8312 7.86858 13.1313 8.16864C13.4313 8.46869 13.5999 8.87566 13.5999 9.30001V13.3C13.5999 13.7244 13.4313 14.1313 13.1313 14.4314C12.8312 14.7314 12.4242 14.9 11.9999 14.9H3.9999C3.57556 14.9 3.16859 14.7314 2.86853 14.4314C2.56847 14.1313 2.3999 13.7244 2.3999 13.3V9.30001C2.3999 8.87566 2.56847 8.46869 2.86853 8.16864C3.16859 7.86858 3.57556 7.70001 3.9999 7.70001ZM10.3999 6.10001V7.70001H5.5999V6.10001C5.5999 5.46349 5.85276 4.85304 6.30285 4.40295C6.75293 3.95286 7.36338 3.70001 7.9999 3.70001C8.63642 3.70001 9.24687 3.95286 9.69696 4.40295C10.147 4.85304 10.3999 5.46349 10.3999 6.10001Z" fill="black"/>
</svg>
