<svg width="16" height="16" viewBox="0 0 16 16" fill="none" xmlns="http://www.w3.org/2000/svg">
<path fill-rule="evenodd" clip-rule="evenodd" d="M8 2.66683C7.07703 2.66683 6.17479 2.94052 5.40737 3.45329C4.63994 3.96606 4.0418 4.69488 3.68859 5.54758C3.33537 6.40029 3.24294 7.33859 3.42299 8.24383C3.60303 9.14904 4.04743 9.98053 4.70002 10.6332C4.7 10.6332 4.70004 10.6332 4.70002 10.6332L7.52935 13.4618C7.59114 13.5237 7.66481 13.5731 7.74557 13.6065C7.82633 13.64 7.9129 13.6572 8.00034 13.6572C8.08777 13.6572 8.17434 13.64 8.2551 13.6065C8.33586 13.5731 8.40924 13.524 8.47103 13.4621L11.2999 10.6332C11.2999 10.6332 11.2999 10.6332 11.2999 10.6332C11.9525 9.98059 12.397 9.14906 12.577 8.24383C12.7571 7.33859 12.6646 6.40029 12.3114 5.54758C11.9582 4.69488 11.3601 3.96606 10.5926 3.45329C9.82521 2.94052 8.92297 2.66683 8 2.66683ZM12.2428 11.576C13.0818 10.7369 13.6532 9.6678 13.8847 8.50392C14.1162 7.34005 13.9974 6.13366 13.5432 5.03732C13.0891 3.94099 12.3201 3.00393 11.3334 2.34466C10.3467 1.68538 9.18668 1.3335 8 1.3335C6.81333 1.3335 5.6533 1.68538 4.66661 2.34466C3.67993 3.00393 2.91089 3.94099 2.45676 5.03732C2.00262 6.13366 1.88378 7.34005 2.11527 8.50392C2.34675 9.6678 2.91817 10.7369 3.75725 11.576L6.58636 14.4045C6.77198 14.5903 6.9924 14.7377 7.23502 14.8382C7.47764 14.9388 7.7377 14.9906 8.00034 14.9906C8.26297 14.9906 8.52303 14.9388 8.76565 14.8382C9.00817 14.7377 9.2285 14.5904 9.41407 14.4047C9.41399 14.4048 9.41415 14.4046 9.41407 14.4047L12.2428 11.576Z" fill="black"/>
<path fill-rule="evenodd" clip-rule="evenodd" d="M7.99992 6.00008C7.6463 6.00008 7.30716 6.14056 7.05711 6.39061C6.80706 6.64065 6.66659 6.97979 6.66659 7.33341C6.66659 7.68704 6.80706 8.02618 7.05711 8.27622C7.30716 8.52627 7.6463 8.66675 7.99992 8.66675C8.35354 8.66675 8.69268 8.52627 8.94273 8.27622C9.19278 8.02618 9.33325 7.68704 9.33325 7.33341C9.33325 6.97979 9.19278 6.64065 8.94273 6.39061C8.69268 6.14056 8.35354 6.00008 7.99992 6.00008ZM6.1143 5.4478C6.6144 4.9477 7.29268 4.66675 7.99992 4.66675C8.70716 4.66675 9.38544 4.9477 9.88554 5.4478C10.3856 5.94789 10.6666 6.62617 10.6666 7.33341C10.6666 8.04066 10.3856 8.71894 9.88554 9.21903C9.38544 9.71913 8.70716 10.0001 7.99992 10.0001C7.29268 10.0001 6.6144 9.71913 6.1143 9.21903C5.6142 8.71894 5.33325 8.04066 5.33325 7.33341C5.33325 6.62617 5.6142 5.94789 6.1143 5.4478Z" fill="black"/>
</svg>
