<svg width="296" height="144" viewBox="0 0 296 144" fill="none" xmlns="http://www.w3.org/2000/svg">
<g clip-path="url(#clip0_535_1819)">
<path d="M284.483 143.714C284.483 143.714 283.475 143.714 281.585 143.714C279.695 143.714 276.924 143.714 273.397 143.714C269.871 143.714 265.59 143.714 260.68 143.714C255.77 143.714 250.227 143.714 244.183 143.714C238.138 143.714 231.592 143.714 224.666 143.714C217.74 143.714 210.438 143.714 202.879 143.714C195.32 143.714 187.517 143.714 179.583 143.714C171.648 143.714 163.592 143.714 155.531 143.714C147.47 143.714 139.414 143.714 131.479 143.714C123.545 143.714 115.737 143.714 108.183 143.714C100.628 143.714 93.3224 143.714 86.3962 143.714C79.4701 143.714 72.9238 143.714 66.8792 143.714C60.8347 143.714 55.2966 143.714 50.3822 143.714C45.4725 143.714 41.1911 143.714 37.6647 143.714C34.1383 143.714 31.3669 143.714 29.4818 143.714C27.592 143.714 26.5838 143.714 26.5838 143.714C26.0211 142.945 25.4678 142.177 24.9191 141.408C24.3705 140.639 23.8312 139.866 23.3013 139.092C22.7714 138.319 22.2509 137.546 21.7351 136.768C21.2239 135.989 20.7175 135.211 20.2251 134.429C19.7327 133.646 19.2497 132.858 18.7761 132.071C18.3025 131.284 17.8429 130.487 17.3927 129.69C16.9426 128.893 16.5065 128.092 16.0797 127.285C15.653 126.479 15.2403 125.668 14.8417 124.853C14.4432 124.037 14.0539 123.217 13.6788 122.387C13.3036 121.558 12.9473 120.728 12.6002 119.884C12.2532 119.045 11.925 118.197 11.6061 117.344C11.2919 116.491 10.9918 115.628 10.7058 114.761C10.4197 113.894 10.1524 113.018 9.89919 112.132C9.64596 111.246 9.4115 110.355 9.1911 109.451C8.9707 108.546 8.77375 107.637 8.58618 106.718C8.40329 105.799 8.23916 104.867 8.08911 103.924C7.79368 102.04 7.59204 100.175 7.4748 98.3326C7.35757 96.4905 7.32943 94.6719 7.38102 92.8767C7.4326 91.0815 7.56859 89.3144 7.78899 87.5708C8.0047 85.8318 8.30482 84.1163 8.67996 82.4383C9.05511 80.7556 9.50997 79.1057 10.0352 77.4886C10.5604 75.8715 11.1653 74.292 11.8359 72.7452C12.5065 71.1984 13.2521 69.6891 14.0633 68.222C14.8746 66.7503 15.7562 65.3207 16.6987 63.9333C17.6413 62.5458 18.6542 61.2006 19.728 59.8976C20.8019 58.5945 21.9367 57.3431 23.1278 56.1338C24.3189 54.9245 25.5709 53.7667 26.8793 52.6559C28.1876 51.545 29.5522 50.4857 30.9684 49.4826C32.3845 48.4749 33.8523 47.5234 35.3716 46.6281C36.891 45.7329 38.4572 44.8939 40.075 44.1111C41.6882 43.3284 43.3529 42.6065 45.0551 41.9456C46.762 41.2847 48.5065 40.6848 50.2978 40.1504C51.6061 39.7567 52.905 39.3489 54.1946 38.9271C55.4842 38.5052 56.7597 38.0646 58.0258 37.6147C59.2919 37.1647 60.5487 36.696 61.796 36.2132C63.0434 35.7304 64.2814 35.2383 65.51 34.7274C66.7386 34.2211 67.9578 33.6962 69.1723 33.1665C70.3869 32.6322 71.592 32.0885 72.7878 31.5307C73.9883 30.9729 75.1794 30.4058 76.3658 29.8292C77.5522 29.2527 78.7339 28.6621 79.9109 28.0622C81.0879 27.4622 82.2556 26.8529 83.4232 26.2342C84.5909 25.6154 85.7538 24.9874 86.9121 24.3546C88.0703 23.7218 89.2286 23.075 90.3822 22.4235C91.5358 21.7719 92.6893 21.1157 93.8429 20.4502C94.9965 19.7846 96.1454 19.1143 97.2943 18.4394C98.4431 17.7644 99.592 17.0801 100.746 16.391C101.894 15.702 103.048 15.0083 104.197 14.3146C105.351 13.6162 106.504 12.9178 107.658 12.2101C109.571 11.043 111.54 9.95553 113.557 8.9431C115.573 7.93066 117.641 6.99791 119.742 6.14953C121.843 5.30115 123.986 4.53245 126.152 3.8528C128.319 3.17316 130.513 2.57789 132.727 2.07167C134.94 1.56545 137.168 1.14829 139.409 0.824877C141.646 0.50146 143.892 0.271788 146.134 0.135859C148.375 -6.95051e-05 150.617 -0.0375671 152.844 0.0280537C155.072 0.0889872 157.29 0.253039 159.484 0.515522C161.679 0.778005 163.85 1.14829 165.993 1.62639C168.131 2.09979 170.241 2.68569 172.305 3.37471C174.373 4.06842 176.394 4.86993 178.368 5.78393C180.342 6.69793 182.26 7.72911 184.117 8.87748C185.974 10.0258 187.77 11.2867 189.496 12.6741C191.222 14.0568 192.872 15.5661 194.443 17.1926C196.014 18.8237 197.505 20.5767 198.903 22.4563C200.3 24.3358 201.604 26.3466 202.809 28.484C203.118 29.0371 203.433 29.5808 203.751 30.1198C204.07 30.6589 204.389 31.1885 204.717 31.7135C205.046 32.2384 205.374 32.754 205.712 33.2649C206.049 33.7759 206.392 34.2774 206.739 34.7695C207.086 35.2617 207.442 35.7492 207.803 36.2226C208.164 36.7007 208.535 37.1647 208.91 37.624C209.285 38.0834 209.674 38.5287 210.068 38.9646C210.462 39.4005 210.865 39.8317 211.278 40.2442C211.691 40.6613 212.113 41.0644 212.544 41.4628C212.975 41.8613 213.421 42.2409 213.876 42.6112C214.331 42.9815 214.795 43.3424 215.273 43.6893C215.751 44.0361 216.239 44.3689 216.741 44.6923C217.243 45.0157 217.758 45.3204 218.288 45.6157C218.818 45.911 219.358 46.1922 219.916 46.4594C220.474 46.7266 221.046 46.9797 221.632 47.214C222.218 47.4531 222.818 47.6734 223.437 47.8843C224.263 48.1608 225.093 48.414 225.932 48.6436C226.771 48.8733 227.615 49.0842 228.469 49.2764C229.322 49.4686 230.181 49.642 231.043 49.8014C231.906 49.9607 232.774 50.106 233.646 50.242C234.518 50.3779 235.395 50.4998 236.272 50.6169C237.149 50.7341 238.03 50.8419 238.917 50.945C239.798 51.0482 240.685 51.1513 241.571 51.2497C242.457 51.3481 243.344 51.4513 244.23 51.5544C245.116 51.6575 246.002 51.7653 246.884 51.8778C247.77 51.9903 248.652 52.1122 249.529 52.2387C250.41 52.3699 251.287 52.5059 252.159 52.6606C253.032 52.8152 253.904 52.9793 254.767 53.1621C255.63 53.3449 256.492 53.5464 257.346 53.7667C258.199 53.987 259.048 54.2261 259.892 54.4932C260.732 54.7557 261.566 55.0463 262.396 55.3604C263.222 55.6744 264.042 56.0213 264.853 56.3916C265.754 56.8087 266.635 57.2587 267.498 57.7415C268.361 58.2243 269.205 58.7398 270.026 59.2836C270.846 59.8273 271.653 60.4038 272.436 61.0084C273.219 61.6131 273.979 62.2412 274.72 62.8974C275.461 63.5536 276.183 64.2332 276.882 64.941C277.58 65.6441 278.26 66.3753 278.917 67.1252C279.573 67.8752 280.206 68.6439 280.821 69.436C281.435 70.2235 282.026 71.0344 282.593 71.8593C283.161 72.6842 283.709 73.5279 284.23 74.3857C284.755 75.2435 285.252 76.1153 285.73 76.9965C286.209 77.8777 286.664 78.7776 287.095 79.6822C287.526 80.5869 287.934 81.5055 288.314 82.4289C288.699 83.3523 289.055 84.285 289.393 85.2225C289.726 86.1599 290.04 87.1021 290.321 88.0489C290.603 88.9957 290.87 89.9425 291.104 90.894C291.339 91.8455 291.55 92.797 291.737 93.7485C291.841 94.2828 291.934 94.8172 292.019 95.3515C292.103 95.8859 292.178 96.4249 292.244 96.9592C292.309 97.4983 292.37 98.0326 292.417 98.5716C292.469 99.1107 292.506 99.6497 292.544 100.193C292.577 100.732 292.605 101.276 292.619 101.815C292.638 102.359 292.647 102.898 292.652 103.442C292.656 103.985 292.652 104.524 292.642 105.068C292.633 105.612 292.614 106.156 292.591 106.695C292.567 107.238 292.539 107.782 292.502 108.321C292.464 108.865 292.427 109.404 292.38 109.947C292.333 110.491 292.281 111.03 292.225 111.569C292.169 112.108 292.103 112.647 292.038 113.186C291.972 113.725 291.897 114.264 291.822 114.799C291.747 115.338 291.667 115.872 291.583 116.406C291.498 116.941 291.409 117.475 291.32 118.009C291.231 118.544 291.132 119.073 291.039 119.603C291.011 119.744 290.973 119.959 290.917 120.245C290.86 120.531 290.795 120.878 290.715 121.286C290.635 121.694 290.542 122.153 290.438 122.664C290.335 123.175 290.223 123.728 290.101 124.318C289.979 124.909 289.848 125.537 289.707 126.189C289.566 126.84 289.421 127.52 289.271 128.218C289.121 128.917 288.961 129.624 288.797 130.341C288.633 131.059 288.469 131.78 288.3 132.498C288.131 133.215 287.958 133.932 287.784 134.63C287.611 135.329 287.437 136.013 287.259 136.674C287.086 137.335 286.912 137.967 286.739 138.572C286.565 139.172 286.396 139.739 286.227 140.26C286.059 140.78 285.894 141.258 285.735 141.68C285.576 142.102 285.421 142.467 285.271 142.767C285.121 143.067 284.98 143.306 284.844 143.466C284.727 143.63 284.6 143.714 284.483 143.714Z" fill="#EEF2F8"/>
<path d="M279.001 93.0196H276.585H274.172H271.756H269.34H266.927H264.511H262.095H259.682H257.266H254.85H252.437H250.021H247.605H245.192H242.776H240.36V91.9687V90.9142V89.8634V88.8125V87.758V86.7071V85.6526V84.6017V83.5508V82.4963V81.4455V80.3946V79.3401V78.2892V77.2347V76.1838H235.716H231.073H226.429H221.785H217.142H212.498H207.854H203.21H198.567H193.923H189.279H184.636H179.992H175.348H170.705H166.061V74.0531V71.9223V69.788V67.6572V65.5265V63.3957V61.2614V59.1306V56.9999V54.8691V52.7384V50.604V48.4733V46.3425V44.2118V42.0774H160.724H155.388H150.047H144.711H139.374H134.034H128.697H123.36H118.024H112.684H107.347H102.01H96.6701H91.3334H85.9968H80.6565V45.3931V48.7052V52.0209V55.3366V58.6487V61.9644V65.2764V68.5921V71.9042V75.2199V78.532V81.8477V85.1598V88.4755V91.7876V95.1033H78.741H76.8255H74.9099H72.9944H71.0789H69.1597H67.2442H65.3287H63.4132H61.4976H59.5821H57.6666H55.7474H53.8319H51.9164H50.0008V98.1146V101.122V104.134V107.145V110.153V113.164V116.172V119.183V122.194V125.202V128.213V131.224V134.232V137.243V140.251V143.262H64.2947H78.5923H92.8862H107.18H121.474H135.772H150.065H164.359H178.653H192.951H207.245H221.539H235.836H250.13H264.424H278.718L278.736 140.121L278.754 136.983L278.772 133.841L278.79 130.703L278.809 127.561L278.823 124.423L278.841 121.281L278.859 118.143L278.877 115.001L278.896 111.859L278.914 108.721L278.932 105.579L278.946 102.441L278.965 99.2995L278.983 96.1614L279.001 93.0196Z" fill="#E1E5EF"/>
<path d="M292.666 144H275.583H258.504H241.426H224.342H207.264H190.185H173.102H156.023H138.945H121.862H104.783H87.7046H70.6213H53.5428H36.4642H19.381V143.967V143.93V143.892V143.859V143.822V143.784V143.752V143.714V143.677V143.644V143.606V143.569V143.536V143.499V143.461V143.428H36.4642H53.5428H70.6213H87.7046H104.783H121.862H138.945H156.023H173.102H190.185H207.264H224.342H241.426H258.504H275.583H292.666V143.461V143.499V143.536V143.569V143.606V143.644V143.677V143.714V143.752V143.784V143.822V143.859V143.892V143.93V143.967V144Z" fill="#1F1949"/>
<path d="M113.617 60.5002L104.617 50.0002L100.617 56.5002L111.617 67.5002L113.117 63.5002L113.617 60.5002Z" fill="url(#paint0_linear_535_1819)"/>
<path d="M85.0544 39.3281C85.0544 39.3281 85.0778 39.3187 85.1294 39.2953C85.181 39.2718 85.2513 39.2484 85.3451 39.2109C85.4389 39.1781 85.5561 39.1359 85.6921 39.089C85.8281 39.0421 85.9829 38.9953 86.1564 38.9437C86.3299 38.8922 86.5221 38.8406 86.7331 38.789C86.9395 38.7375 87.1646 38.6859 87.4084 38.6344C87.6476 38.5875 87.9008 38.5406 88.1681 38.4984C88.4354 38.4562 88.7167 38.4234 89.0075 38.3953C89.2982 38.3672 89.603 38.3484 89.9125 38.3391C90.222 38.3297 90.5456 38.3297 90.8738 38.3391C91.2021 38.3531 91.5397 38.3766 91.882 38.4141C92.2244 38.4516 92.5714 38.5078 92.9231 38.5781C93.2748 38.6484 93.6312 38.7375 93.9876 38.8453C94.3439 38.9531 94.705 39.0796 95.0661 39.2249C95.4272 39.3702 95.7883 39.5437 96.1493 39.7358C96.5104 39.928 96.8668 40.1483 97.2232 40.3921L97.7625 41.0483L98.3017 41.7045L98.841 42.3607L99.3803 43.0169L99.9196 43.6731L100.459 44.3293L100.998 44.9855L101.537 45.6417L102.077 46.2979L102.616 46.9541L103.155 47.6103L103.694 48.2665L104.234 48.9228L104.773 49.579L105.312 50.2352L105.852 50.8914L105.626 51.3273L105.401 51.7632L105.176 52.1991L104.951 52.635L104.726 53.0709L104.501 53.5068L104.276 53.9427L104.051 54.3786L103.826 54.8146L103.601 55.2505L103.376 55.6864L103.151 56.1223L102.925 56.5582L102.7 56.9941L102.475 57.43L102.25 57.8659L102.114 58.5221L101.978 59.1783L101.842 59.8345L101.706 60.4907L101.57 61.147L101.434 61.8032L101.298 62.4594L101.162 63.1156L101.026 63.7718L100.89 64.428L100.754 65.0842L100.618 65.7404L100.482 66.3966L100.346 67.0528L100.21 67.709L100.074 68.3652H98.8363H97.5983H96.3604H95.1224H93.8844H92.6464H91.4084H90.1704H88.9325H87.6945H86.4565H85.2185H83.9805H82.7425H81.5045H80.2666L80.2244 67.5543L80.1822 66.7435L80.14 65.9326L80.0977 65.1217L80.0555 64.3108L80.0133 63.4999L79.9711 62.689L79.9289 61.8782L79.8867 61.0673L79.8445 60.2564L79.8023 59.4455L79.7601 58.6346L79.7179 57.8237L79.6757 57.0128L79.6335 56.202L79.5913 55.3911C79.5913 55.3911 79.5632 55.3489 79.5163 55.2739C79.4694 55.1989 79.399 55.0864 79.3193 54.9364C79.2349 54.7911 79.1411 54.613 79.0333 54.4021C78.9301 54.1958 78.8176 53.9568 78.7003 53.6943C78.5831 53.4318 78.4705 53.1412 78.3627 52.8319C78.2501 52.5225 78.147 52.1897 78.0532 51.8382C77.9594 51.4866 77.875 51.1164 77.8141 50.732C77.7484 50.3477 77.7015 49.9492 77.6781 49.5368C77.6546 49.1243 77.6546 48.7024 77.6874 48.2759C77.7203 47.8447 77.7812 47.4088 77.8844 46.9682C77.9829 46.5276 78.1189 46.0823 78.3017 45.637C78.4799 45.1917 78.705 44.7465 78.977 44.3012C79.249 43.8559 79.5726 43.4153 79.9524 42.9841C80.3322 42.5482 80.7683 42.1216 81.2654 41.7045C81.7625 41.2873 82.3252 40.8795 82.9536 40.4905C83.5819 40.064 84.2806 39.689 85.0544 39.3281Z" fill="url(#paint1_linear_535_1819)"/>
<path d="M97.5562 40.842C97.5562 40.842 97.5749 40.8702 97.6124 40.9217C97.6499 40.9733 97.7062 41.053 97.7765 41.1561C97.8469 41.2592 97.9313 41.3858 98.0345 41.5311C98.1329 41.681 98.2455 41.8498 98.3721 42.042C98.4987 42.2341 98.63 42.4451 98.7707 42.6747C98.9114 42.9044 99.0661 43.1575 99.2256 43.4247C99.385 43.6919 99.5491 43.9778 99.7179 44.2824C99.8868 44.5824 100.06 44.9012 100.234 45.2339C100.407 45.5667 100.585 45.9136 100.759 46.2745C100.937 46.6354 101.111 47.0104 101.284 47.3947C101.458 47.7791 101.626 48.1775 101.791 48.5806C101.955 48.9884 102.114 49.4009 102.269 49.8274C102.424 50.2539 102.569 50.6852 102.705 51.1257C102.841 51.5663 102.968 52.0116 103.085 52.4616C103.202 52.9116 103.305 53.3709 103.394 53.8303C103.483 54.2896 103.558 54.7536 103.619 55.2224C103.68 55.6864 103.732 56.0942 103.779 56.4504C103.826 56.8066 103.863 57.1066 103.896 57.3644C103.929 57.6175 103.957 57.8284 103.976 57.9925C103.995 58.1565 104.013 58.2831 104.023 58.3675C104.032 58.4518 104.041 58.5081 104.041 58.5268C104.046 58.5456 104.041 58.5362 104.037 58.4987C104.032 58.4612 104.023 58.4003 104.013 58.3206C104.004 58.2409 103.99 58.1378 103.976 58.0206C103.962 57.9034 103.943 57.7722 103.924 57.6316C103.905 57.491 103.887 57.341 103.868 57.191C103.849 57.0363 103.83 56.8816 103.807 56.7269C103.788 56.5723 103.77 56.4176 103.751 56.2723C103.732 56.127 103.713 55.9864 103.699 55.8645C103.685 55.7379 103.666 55.6255 103.657 55.5317C103.643 55.438 103.634 55.3583 103.629 55.3067C103.624 55.2552 103.619 55.227 103.619 55.227L103.512 55.4989L103.404 55.7708L103.296 56.0426L103.188 56.3145L103.08 56.5863L102.972 56.8582L102.864 57.13L102.757 57.4019L102.649 57.6738L102.541 57.9456L102.433 58.2175L102.325 58.4893L102.217 58.7612L102.109 59.033L102.002 59.3049L101.894 59.5768L101.758 58.8643L101.622 58.1519L101.486 57.4394L101.35 56.7269L101.214 56.0145L101.078 55.302L100.942 54.5896L100.806 53.8771L100.67 53.1647L100.534 52.4522L100.398 51.7398L100.262 51.0273L100.126 50.3149L99.9899 49.6024L99.8539 48.89L99.7179 48.1775L99.5819 47.7228L99.4459 47.2682L99.31 46.8135L99.174 46.3589L99.038 45.9042L98.902 45.4496L98.766 44.9949L98.63 44.5402L98.494 44.0856L98.358 43.6309L98.222 43.1763L98.086 42.7216L97.9501 42.2669L97.8141 41.8123L97.6781 41.3576L97.5562 40.842Z" fill="url(#paint2_linear_535_1819)"/>
<path d="M97.5551 40.8443C97.5316 40.8021 97.5035 40.7646 97.4753 40.7225C97.4472 40.6803 97.4191 40.6428 97.3909 40.6053C97.3628 40.5678 97.33 40.5303 97.3018 40.4928C97.269 40.4553 97.2409 40.4178 97.2081 40.385C97.1752 40.3475 97.1424 40.3147 97.1096 40.2772C97.0768 40.2444 97.0439 40.2069 97.0064 40.1741C96.9736 40.1412 96.9361 40.1084 96.8986 40.0756C96.861 40.0428 96.8235 40.0147 96.786 39.9819C96.7485 39.9538 96.711 39.921 96.6735 39.8928C96.6359 39.8647 96.5937 39.8366 96.5562 39.8085C96.5187 39.7803 96.4765 39.7569 96.4343 39.7288C96.3921 39.7053 96.3499 39.6772 96.3077 39.6538C96.2655 39.6303 96.2233 39.6069 96.1811 39.5835C96.1389 39.56 96.0967 39.5413 96.0498 39.5179C96.0076 39.4991 95.9607 39.4757 95.9185 39.4569C95.8716 39.4382 95.8294 39.4194 95.7825 39.4054L95.7544 39.396L95.7262 39.3866L95.6981 39.3772L95.6699 39.3679L95.6418 39.3585L95.6137 39.3491L95.5855 39.3397L95.5574 39.3304L95.5293 39.321L95.5011 39.3116L95.473 39.3022L95.4449 39.2929L95.4167 39.2835L95.3886 39.2741L95.3604 39.2647L95.3323 39.2554C95.3323 39.2554 95.3464 39.2882 95.3698 39.3585C95.3933 39.4241 95.4308 39.5225 95.473 39.6491C95.5199 39.7757 95.5715 39.9303 95.6371 40.1131C95.6981 40.2959 95.7731 40.5022 95.8482 40.7272C95.9232 40.9521 96.0123 41.2052 96.1014 41.4771C96.1905 41.749 96.2889 42.0396 96.3874 42.3442C96.4859 42.6489 96.5937 42.9723 96.6969 43.3098C96.8048 43.6473 96.9126 43.9941 97.0252 44.355C97.1377 44.716 97.2456 45.0816 97.3581 45.4612C97.4706 45.8362 97.5832 46.2205 97.6911 46.6096C97.7989 46.9986 97.9068 47.3877 98.0146 47.7814C98.1225 48.1751 98.2209 48.5688 98.3194 48.9579C98.4179 49.3516 98.5117 49.7406 98.5961 50.125C98.6852 50.5093 98.7649 50.889 98.8399 51.2593C98.915 51.6296 98.9806 51.9952 99.0369 52.342C99.0932 52.6889 99.1447 53.0357 99.1823 53.3591L98.9384 53.4013L98.6946 53.4435L98.4507 53.4857L98.2069 53.5279L97.963 53.5701L97.7192 53.6123L97.4753 53.6544L97.2315 53.6966L96.9877 53.7388L96.7438 53.781L96.5 53.8232L96.2561 53.8654L96.0123 53.9075L95.7684 53.9497L95.5246 53.9919L95.2807 54.0341C95.2807 54.0341 95.2526 53.9872 95.201 53.8982C95.1494 53.8091 95.0697 53.6826 94.9712 53.5138C94.8728 53.3498 94.7462 53.1482 94.6055 52.9139C94.4648 52.6795 94.3007 52.417 94.1178 52.1311C93.9349 51.8452 93.738 51.5264 93.5269 51.1937C93.3112 50.8609 93.0861 50.5046 92.8423 50.1343C92.5984 49.7641 92.3452 49.3797 92.0826 48.9813C91.82 48.5876 91.5433 48.1798 91.2573 47.772C90.9759 47.3642 90.6852 46.9471 90.3851 46.5346C90.0897 46.1221 89.7848 45.7096 89.48 45.3019C89.1752 44.8941 88.8657 44.4957 88.5609 44.1019C88.2514 43.7129 87.9419 43.3332 87.6371 42.9723C87.3323 42.6114 87.0275 42.2645 86.7274 41.9411C86.4273 41.6177 86.1318 41.313 85.8411 41.0365C85.5504 40.76 85.269 40.5115 84.997 40.2959C84.725 40.0803 84.4624 39.8928 84.2092 39.7475L84.0873 39.8225L83.9654 39.8975L83.8435 39.9725L83.7215 40.0475L83.5996 40.1225L83.4777 40.1975L83.3558 40.2725L83.2338 40.3475L83.1119 40.4225L82.99 40.4975L82.8681 40.5725L82.7461 40.6475L82.6242 40.7225L82.5023 40.7975L82.3804 40.8725L82.2585 40.9474C82.2585 40.9474 82.3007 40.9896 82.3851 41.0693C82.4695 41.149 82.5867 41.2709 82.7415 41.4255C82.8962 41.5802 83.0791 41.7724 83.2948 41.9974C83.5058 42.2224 83.7497 42.4802 84.0123 42.7661C84.2749 43.052 84.5562 43.3707 84.8563 43.7176C85.1565 44.0644 85.4706 44.4394 85.7989 44.8378C86.1272 45.2362 86.4648 45.6581 86.8071 46.1081C87.1494 46.5533 87.4964 47.0221 87.8435 47.5095C88.1905 47.997 88.5375 48.5032 88.8751 49.0282C89.2174 49.5531 89.5504 50.0922 89.8739 50.6453C90.1975 51.1983 90.507 51.7655 90.8024 52.3467C91.0979 52.9279 91.3745 53.5185 91.6278 54.1138C91.881 54.7091 92.1107 55.3184 92.3171 55.9324C92.5187 56.5464 92.6922 57.1651 92.8329 57.7839C92.9736 58.4073 93.0814 59.0306 93.1471 59.654C93.2127 60.2774 93.2409 60.9008 93.2268 61.5242C93.2127 62.1476 93.1424 62.6913 93.0346 63.1648C92.922 63.6382 92.7719 64.0413 92.5797 64.3834C92.3874 64.7256 92.1623 65.0021 91.8997 65.2271C91.6418 65.4521 91.3511 65.6162 91.0369 65.738C90.7227 65.8552 90.3851 65.9255 90.024 65.9583C89.6676 65.9864 89.2925 65.9771 88.9032 65.9302C88.514 65.8833 88.1154 65.8036 87.7075 65.7005C87.2995 65.5974 86.8915 65.4615 86.4789 65.3068C86.0662 65.1521 85.6582 64.9834 85.2549 64.8006C84.8517 64.6178 84.4531 64.4209 84.0685 64.2194C83.684 64.0178 83.3136 63.8116 82.9619 63.61C82.6102 63.4085 82.2772 63.2069 81.9724 63.0148C81.6676 62.8226 81.3862 62.6398 81.1377 62.4757C80.8892 62.3117 80.6735 62.1617 80.4953 62.0351C80.3171 61.9086 80.1764 61.8102 80.0826 61.7398C79.9888 61.6695 79.9372 61.632 79.9372 61.632L79.8247 63.1648L79.7122 64.6975L79.5996 66.2302L79.4871 67.7629L79.3745 69.2956L79.262 70.8283L79.1494 72.361L79.0369 73.8937L78.9243 75.4265L78.8118 76.9592L78.6993 78.4919L78.5867 80.0246L78.4742 81.5573L78.3616 83.09L78.2491 84.6227L78.1365 86.1554C78.0756 86.7882 78.024 87.4163 77.9771 88.0491C77.9302 88.6772 77.888 89.3052 77.8552 89.9333C77.8223 90.5567 77.7942 91.1754 77.7708 91.7895C77.7473 92.4035 77.7333 93.0081 77.7192 93.6034C77.7051 94.1987 77.7004 94.7846 77.6957 95.3611C77.6911 95.9376 77.6911 96.5001 77.6957 97.0485C77.7004 97.5969 77.7051 98.1312 77.7145 98.6468C77.7239 99.1624 77.7379 99.6639 77.752 100.142C77.7661 100.62 77.7801 101.079 77.7989 101.52C77.8177 101.961 77.8364 102.373 77.8552 102.762C77.8739 103.151 77.8927 103.517 77.9115 103.854C77.9302 104.192 77.949 104.501 77.9677 104.782C77.9865 105.064 78.0052 105.312 78.0193 105.532C78.0334 105.753 78.0474 105.935 78.0615 106.085C78.0756 106.235 78.085 106.353 78.0896 106.428C78.0943 106.507 78.099 106.545 78.099 106.545L77.888 108.532L77.677 110.519L77.466 112.507L77.2549 114.494L77.0439 116.482L76.8329 118.469L76.6219 120.456L76.4109 122.444L76.1999 124.431L75.9888 126.418L75.7778 128.406L75.5668 130.393L75.3558 132.381L75.1448 134.368L74.9337 136.355L74.7227 138.343L74.9384 138.39L75.1541 138.436L75.3698 138.483L75.5855 138.53L75.8013 138.577L76.0169 138.624L76.2327 138.671L76.4484 138.718L76.6641 138.765L76.8798 138.811L77.0955 138.858L77.3112 138.905L77.5269 138.952L77.7426 138.999L77.9583 139.046L78.174 139.093C78.174 139.093 78.2162 139.004 78.2913 138.83C78.3663 138.657 78.4835 138.408 78.6289 138.085C78.7743 137.761 78.9525 137.368 79.1588 136.908C79.3651 136.454 79.5996 135.933 79.8528 135.362C80.1061 134.79 80.3874 134.162 80.6828 133.496C80.9783 132.826 81.2924 132.113 81.6207 131.368C81.949 130.618 82.2866 129.84 82.6336 129.029C82.9806 128.223 83.337 127.389 83.6981 126.54C84.0592 125.692 84.4202 124.825 84.786 123.953C85.1471 123.081 85.5082 122.2 85.8645 121.323C86.2209 120.447 86.568 119.57 86.9103 118.708C87.2479 117.846 87.5762 116.993 87.8903 116.163C88.2045 115.333 88.5 114.522 88.7813 113.74C89.058 112.962 89.3159 112.207 89.5504 111.499C89.7848 110.787 89.9912 110.116 90.1694 109.493C90.3476 108.87 90.4976 108.293 90.6149 107.777C90.6195 107.754 90.6242 107.731 90.6289 107.707C90.6336 107.684 90.6383 107.66 90.643 107.632C90.6477 107.604 90.6524 107.585 90.6617 107.557C90.6711 107.529 90.6711 107.506 90.6805 107.482C90.6852 107.459 90.6899 107.431 90.6993 107.407C90.7039 107.384 90.7086 107.356 90.718 107.332C90.7227 107.309 90.7274 107.281 90.7368 107.257C90.7415 107.234 90.7462 107.206 90.7555 107.182C90.7649 107.159 90.7649 107.131 90.7743 107.103C90.7837 107.074 90.7883 107.051 90.793 107.023C90.7977 106.995 90.8071 106.971 90.8118 106.943C90.8165 106.915 90.8259 106.892 90.8306 106.863C90.8353 106.835 90.8446 106.812 90.8493 106.784C90.854 106.756 90.8634 106.732 90.8681 106.704C90.8728 106.676 90.8821 106.648 90.8868 106.624C90.8915 106.596 90.9009 106.568 90.9056 106.54C90.929 106.61 90.9666 106.803 91.0181 107.103C91.0697 107.403 91.1354 107.806 91.2151 108.302C91.2948 108.799 91.3839 109.385 91.4824 110.046C91.5809 110.707 91.6887 111.448 91.8059 112.244C91.9232 113.041 92.0451 113.899 92.1764 114.799C92.3077 115.699 92.4437 116.646 92.5797 117.621C92.7204 118.596 92.861 119.599 93.0064 120.616C93.1518 121.633 93.2971 122.664 93.4378 123.69C93.5832 124.717 93.7239 125.743 93.8692 126.751C94.0099 127.759 94.1506 128.748 94.2819 129.709C94.4132 130.665 94.5445 131.588 94.6664 132.465C94.7884 133.341 94.9009 134.166 95.0087 134.93C95.1166 135.694 95.2104 136.393 95.2948 137.007C95.3792 137.626 95.4542 138.165 95.5152 138.605C95.5762 139.046 95.6231 139.397 95.6559 139.632C95.6887 139.866 95.7075 139.997 95.7075 139.997L95.9279 139.993L96.1483 139.988L96.3687 139.983L96.5891 139.979L96.8095 139.974L97.0299 139.969L97.2503 139.964L97.4706 139.96L97.6911 139.955L97.9115 139.95L98.1318 139.946L98.3523 139.941L98.5726 139.936L98.793 139.932L99.0135 139.927L99.2338 139.922C99.2338 139.922 99.2526 139.824 99.2901 139.641C99.3276 139.458 99.3792 139.186 99.4449 138.835C99.5105 138.488 99.5902 138.061 99.684 137.569C99.7778 137.077 99.881 136.515 99.9935 135.901C100.106 135.282 100.228 134.612 100.359 133.89C100.491 133.168 100.627 132.404 100.767 131.598C100.908 130.792 101.053 129.953 101.199 129.085C101.344 128.218 101.494 127.323 101.644 126.414C101.794 125.504 101.94 124.576 102.09 123.644C102.235 122.711 102.38 121.769 102.516 120.836C102.652 119.899 102.788 118.966 102.91 118.047C103.037 117.128 103.154 116.224 103.262 115.343C103.37 114.461 103.468 113.604 103.553 112.779C103.637 111.954 103.712 111.166 103.768 110.416C103.825 109.671 103.872 108.968 103.895 108.321C103.923 107.674 103.928 107.079 103.918 106.549C103.914 106.268 103.914 105.818 103.923 105.218C103.933 104.618 103.947 103.868 103.961 102.987C103.975 102.106 103.994 101.094 104.012 99.9686C104.031 98.8437 104.05 97.6063 104.064 96.2751C104.078 94.9439 104.087 93.519 104.092 92.0191C104.097 90.5192 104.092 88.9443 104.078 87.3179C104.064 85.6867 104.04 84.004 104.008 82.2838C103.97 80.5636 103.923 78.8059 103.858 77.0342C103.792 75.2577 103.712 73.4672 103.614 71.6767C103.515 69.8862 103.393 68.1004 103.253 66.3333C103.112 64.5662 102.948 62.8179 102.76 61.1118C102.573 59.4056 102.357 57.737 102.118 56.1293C101.874 54.5216 101.607 52.9701 101.307 51.4983C101.006 50.0265 100.673 48.6344 100.303 47.3361C99.9373 46.0377 99.534 44.8378 99.0932 43.7551C98.5492 42.6442 98.0709 41.6787 97.5551 40.8443Z" fill="#AD1426"/>
<path d="M90.8352 106.521L91.0744 105.495L91.3136 104.468L91.5527 103.442L91.7919 102.415L92.031 101.389L92.2702 100.362L92.5093 99.3359L92.7485 98.3094L92.9877 97.2829L93.2268 96.2564L93.466 95.2299L93.7051 94.2034L93.9443 93.1769L94.1834 92.1504L94.4226 91.1239L94.6617 90.0974C94.6617 90.0974 94.6618 90.149 94.6664 90.2427C94.6711 90.3365 94.6711 90.4818 94.6758 90.6599C94.6805 90.8427 94.6852 91.063 94.6899 91.3161C94.6946 91.5692 94.704 91.8598 94.7133 92.1785C94.7227 92.4973 94.7321 92.8441 94.7415 93.2144C94.7509 93.5847 94.7602 93.9784 94.7696 94.3909C94.779 94.8034 94.793 95.2299 94.8024 95.6705C94.8165 96.1111 94.8259 96.5657 94.84 97.0251C94.854 97.4844 94.8681 97.9485 94.8775 98.4172C94.8868 98.8859 94.9056 99.3499 94.9197 99.814C94.9337 100.278 94.9478 100.737 94.9619 101.187C94.9759 101.637 94.99 102.073 95.0041 102.5C95.0181 102.922 95.0322 103.329 95.051 103.718C95.065 104.107 95.0791 104.473 95.0979 104.811C95.1166 105.148 95.126 105.462 95.1401 105.743C95.1541 106.025 95.1682 106.273 95.1823 106.484C95.1963 106.695 95.201 106.943 95.201 107.224C95.201 107.506 95.1869 107.82 95.1729 108.157C95.1541 108.499 95.1307 108.865 95.1025 109.254C95.0744 109.643 95.0369 110.051 94.9994 110.477C94.9619 110.904 94.915 111.344 94.8681 111.794C94.8212 112.244 94.7696 112.708 94.7133 113.172C94.6618 113.637 94.6055 114.11 94.5445 114.579C94.4882 115.047 94.4273 115.516 94.3663 115.975C94.3054 116.435 94.2444 116.894 94.1881 117.335C94.1272 117.775 94.0709 118.207 94.0146 118.624C93.9584 119.036 93.9021 119.43 93.8505 119.805C93.7989 120.18 93.7473 120.527 93.7004 120.845C93.6535 121.164 93.6113 121.455 93.5738 121.713C93.5363 121.97 93.5035 122.191 93.4754 122.373C93.4472 122.556 93.4285 122.697 93.4097 122.795C93.3956 122.894 93.3863 122.945 93.3863 122.945L93.2268 121.919L93.0674 120.892L92.9079 119.866L92.7485 118.839L92.5891 117.813L92.4296 116.786L92.2702 115.76L92.1108 114.733L91.9513 113.707L91.7919 112.68L91.6324 111.654L91.473 110.627L91.3136 109.601L91.1541 108.574L90.9947 107.548L90.8352 106.521Z" fill="#991222"/>
<path d="M79.582 55.363L79.9665 55.963L80.351 56.563L80.7355 57.1629L81.1201 57.7629L81.5046 58.3628L81.8891 58.9628L82.2737 59.5628L82.6582 60.1627L83.0427 60.7627L83.4272 61.3626L83.8117 61.9626L84.1963 62.5626L84.5808 63.1625L84.9653 63.7625L85.3498 64.3625L85.7344 64.9624C85.7344 64.9624 85.7203 64.9577 85.6969 64.9483C85.6734 64.939 85.6406 64.9249 85.5937 64.9062C85.5468 64.8874 85.4952 64.864 85.4296 64.8359C85.3639 64.8077 85.2889 64.7749 85.2092 64.7421C85.1248 64.7046 85.0357 64.6624 84.9372 64.6202C84.8387 64.5734 84.7309 64.5265 84.6136 64.4703C84.5011 64.414 84.3791 64.3578 84.2478 64.2921C84.1212 64.2312 83.9852 64.1609 83.8493 64.0906C83.7086 64.0203 83.5632 63.9453 83.4179 63.8609C83.2725 63.7766 83.113 63.6969 82.9583 63.6078C82.7988 63.5188 82.6394 63.425 82.4753 63.3266C82.3112 63.2282 82.1423 63.1297 81.9782 63.0219C81.8141 62.9141 81.6406 62.8063 81.4671 62.6938C81.2936 62.5813 81.1201 62.4641 80.9466 62.3423C80.7731 62.2204 80.5995 62.0939 80.426 61.9626C80.2525 61.8314 80.079 61.7001 79.9102 61.5595L79.8868 61.1705L79.8633 60.7814L79.8399 60.3924L79.8164 60.0034L79.793 59.6143L79.7695 59.2253L79.7461 58.8363L79.7226 58.4472L79.6992 58.0582L79.6758 57.6691L79.6523 57.2801L79.6289 56.8911L79.6054 56.502L79.582 56.113L79.5585 55.724L79.582 55.363Z" fill="url(#paint3_linear_535_1819)"/>
<path d="M74.6984 138.316L74.9141 138.363L75.1299 138.409L75.3456 138.456L75.5613 138.503L75.777 138.55L75.9927 138.597L76.2084 138.644L76.4241 138.691L76.6398 138.738L76.8555 138.784L77.0712 138.831L77.2869 138.878L77.5027 138.925L77.7184 138.972L77.9341 139.019L78.1498 139.066L78.117 139.164L78.0841 139.262L78.0513 139.361L78.0185 139.459L77.9857 139.558L77.9528 139.656L77.92 139.755L77.8872 139.853L77.8544 139.952L77.8215 140.05L77.7887 140.148L77.7559 140.247L77.7231 140.345L77.6902 140.444L77.6574 140.542L77.6246 140.641C77.6246 140.641 77.6386 140.645 77.6668 140.655C77.6949 140.664 77.7324 140.678 77.784 140.697C77.8356 140.716 77.8966 140.739 77.9716 140.767C78.0466 140.795 78.1263 140.828 78.2201 140.866C78.3139 140.903 78.4124 140.945 78.5203 140.992C78.6281 141.039 78.7406 141.09 78.8626 141.147C78.9845 141.203 79.1064 141.264 79.2377 141.33C79.369 141.395 79.5003 141.465 79.641 141.54C79.777 141.615 79.9177 141.695 80.0583 141.78C80.199 141.864 80.3397 141.953 80.4851 142.047C80.6304 142.14 80.7711 142.239 80.9071 142.342C81.0478 142.445 81.1838 142.553 81.3198 142.665C81.4558 142.778 81.5871 142.895 81.7137 143.017C81.8403 143.139 81.9669 143.265 82.0841 143.397C82.2014 143.528 82.3139 143.664 82.4171 143.804C82.5202 143.945 82.6187 144.09 82.7031 144.24L82.1592 144.132L81.6152 144.025L81.0712 143.917L80.5273 143.809L79.9833 143.701L79.4393 143.593L78.8954 143.486L78.3514 143.378L77.8075 143.27L77.2635 143.162L76.7195 143.054L76.1756 142.947L75.6316 142.839L75.0877 142.731L74.5437 142.623L73.9997 142.515L74.0466 142.253L74.0935 141.99L74.1404 141.728L74.1873 141.465L74.2342 141.203L74.2811 140.94L74.328 140.678L74.3749 140.416L74.4218 140.153L74.4687 139.891L74.5155 139.628L74.5624 139.366L74.6093 139.103L74.6562 138.841L74.7031 138.578L74.6984 138.316Z" fill="#1F1949"/>
<path d="M95.6363 139.975L95.8567 139.97L96.0771 139.966L96.2975 139.961L96.5179 139.956L96.7383 139.951L96.9587 139.947L97.1791 139.942L97.3995 139.937L97.6199 139.933L97.8403 139.928L98.0607 139.923L98.2811 139.919L98.5015 139.914L98.7219 139.909L98.9423 139.905L99.1627 139.9L99.1533 140.003L99.1439 140.106L99.1346 140.209L99.1252 140.312L99.1158 140.415L99.1064 140.519L99.097 140.622L99.0877 140.725L99.0783 140.828L99.0689 140.931L99.0595 141.034L99.0502 141.137L99.0408 141.24L99.0314 141.344L99.022 141.447L99.0126 141.55C99.0126 141.55 99.0267 141.554 99.0548 141.559C99.083 141.564 99.1252 141.573 99.1768 141.583C99.2284 141.592 99.294 141.606 99.369 141.625C99.444 141.644 99.5285 141.662 99.6269 141.686C99.7254 141.709 99.8286 141.737 99.9411 141.765C100.054 141.794 100.176 141.831 100.302 141.869C100.429 141.906 100.56 141.948 100.701 141.99C100.841 142.033 100.982 142.084 101.132 142.136C101.278 142.187 101.432 142.243 101.582 142.304C101.732 142.365 101.892 142.431 102.047 142.497C102.201 142.562 102.361 142.637 102.52 142.717C102.68 142.792 102.834 142.876 102.989 142.961C103.144 143.045 103.299 143.139 103.449 143.232C103.599 143.326 103.749 143.429 103.89 143.532C104.035 143.636 104.171 143.748 104.307 143.861C104.443 143.973 104.569 144.095 104.691 144.221H104.143H103.594H103.045H102.497H101.948H101.4H100.851H100.302H99.7536H99.2049H98.6563H98.1076H97.559H97.0103H96.4616H95.913L95.8989 143.954L95.8849 143.687L95.8708 143.42L95.8567 143.153L95.8427 142.886L95.8286 142.618L95.8145 142.351L95.8005 142.084L95.7864 141.817L95.7723 141.55L95.7582 141.283L95.7442 141.015L95.7301 140.748L95.716 140.481L95.702 140.214L95.6363 139.975Z" fill="#1F1949"/>
<path d="M98.4777 26.7165C98.4777 26.7165 98.4871 26.7587 98.5106 26.8337C98.534 26.9087 98.5575 27.0212 98.5903 27.1618C98.6231 27.3024 98.6653 27.4758 98.7075 27.6727C98.7497 27.8696 98.7966 28.0899 98.8435 28.3336C98.8904 28.5773 98.9373 28.8398 98.9795 29.1164C99.0217 29.3929 99.0639 29.6835 99.1014 29.9882C99.1389 30.2882 99.1671 30.6022 99.1905 30.9162C99.214 31.2303 99.228 31.5537 99.2374 31.8724C99.2421 32.1912 99.2374 32.5099 99.2187 32.8239C99.1999 33.138 99.1671 33.4426 99.1202 33.7379C99.0733 34.0332 99.0076 34.3192 98.9279 34.5863C98.8482 34.8535 98.745 35.1066 98.6231 35.341C98.5012 35.5753 98.3558 35.7816 98.1917 35.969C98.0229 36.1518 97.8353 36.3112 97.6149 36.4378C97.3992 36.5643 97.1507 36.6581 96.8787 36.719C96.6067 36.7752 96.3019 36.7987 95.9643 36.7799C95.6266 36.7612 95.3031 36.7143 94.9842 36.6534C94.6653 36.5878 94.3558 36.5034 94.0557 36.4003C93.7556 36.2971 93.4648 36.1753 93.1882 36.0347C92.9115 35.894 92.6395 35.7394 92.3816 35.5659C92.1237 35.3925 91.8799 35.205 91.6454 35.0082C91.4109 34.8066 91.1905 34.5957 90.9795 34.3707C90.7685 34.1457 90.5715 33.9114 90.3886 33.6676C90.2058 33.4239 90.0369 33.1708 89.8822 32.913C89.7275 32.6552 89.5868 32.388 89.4602 32.1162C89.3335 31.8443 89.221 31.5678 89.1272 31.2865C89.0334 31.0053 88.949 30.7241 88.8881 30.4428C88.8224 30.1616 88.7755 29.8757 88.7427 29.5898C88.7099 29.3039 88.6958 29.0226 88.7005 28.7461C88.7052 28.4648 88.7239 28.1883 88.7661 27.9164C88.8037 27.6446 88.8646 27.3774 88.9396 27.1196C89.0194 26.8618 89.1132 26.6087 89.2304 26.365C89.3476 26.1212 89.4789 25.8822 89.6243 25.6525C89.7697 25.4229 89.9291 25.1979 90.1026 24.9823C90.2761 24.7666 90.459 24.5604 90.6512 24.3635C90.8435 24.1667 91.0451 23.9839 91.2562 23.8105C91.4672 23.637 91.6829 23.4824 91.908 23.3371C92.1331 23.1917 92.3628 23.0652 92.5926 22.9527C92.8271 22.8402 93.0616 22.7465 93.296 22.6715C93.5352 22.5965 93.7697 22.5402 94.0088 22.5074C94.248 22.4746 94.4824 22.4605 94.7169 22.4652C94.9514 22.4746 95.1811 22.5074 95.4062 22.5637C95.6313 22.6199 95.8517 22.7043 96.0674 22.8121C96.2831 22.9199 96.4895 23.0558 96.6864 23.2246C96.8834 23.3886 97.0709 23.5855 97.2491 23.8105C97.4273 24.0354 97.5915 24.2932 97.7415 24.5792C97.8916 24.8698 98.0323 25.1885 98.1542 25.5494C98.2808 25.8916 98.3886 26.2853 98.4777 26.7165Z" fill="#FFCAA0"/>
<path d="M99.078 29.8147C99.078 29.8147 99.0498 29.81 98.9936 29.8006C98.9373 29.7912 98.8576 29.7725 98.7497 29.7537C98.6466 29.735 98.5153 29.7069 98.3699 29.6741C98.2245 29.6412 98.0557 29.6037 97.8775 29.5616C97.6993 29.5194 97.4977 29.4678 97.2914 29.4163C97.085 29.36 96.8646 29.2991 96.6348 29.2335C96.4051 29.1678 96.1706 29.0928 95.9267 29.0132C95.6829 28.9335 95.4391 28.8491 95.1905 28.7554C94.942 28.6616 94.6935 28.5679 94.4496 28.4601C94.2058 28.357 93.9619 28.2445 93.7228 28.1273C93.4836 28.0101 93.2538 27.8835 93.0334 27.7523C92.813 27.6211 92.5973 27.4804 92.4004 27.3351C92.2034 27.1898 92.0158 27.0352 91.847 26.8758C91.6782 26.7164 91.5235 26.5477 91.3922 26.3743C91.2609 26.2008 91.1483 26.018 91.0592 25.8306C90.9701 25.6431 90.9092 25.4462 90.8717 25.24C90.8717 25.24 90.8951 25.2306 90.9373 25.2212C90.9795 25.2072 91.0452 25.1884 91.1249 25.165C91.2046 25.1415 91.3078 25.1134 91.4203 25.0806C91.5328 25.0478 91.6688 25.0103 91.8142 24.9728C91.9596 24.9353 92.119 24.8931 92.2878 24.8509C92.4566 24.8087 92.6395 24.7666 92.8271 24.7197C93.0147 24.6775 93.2116 24.6306 93.418 24.5884C93.6243 24.5463 93.8306 24.5041 94.0463 24.4619C94.262 24.4197 94.4778 24.3822 94.6982 24.3447C94.9186 24.3072 95.1389 24.2744 95.3593 24.2463C95.5797 24.2182 95.8001 24.1947 96.0158 24.1713C96.2316 24.1525 96.4473 24.1385 96.6536 24.1291C96.8599 24.1197 97.0663 24.1197 97.2585 24.1244C97.4555 24.1291 97.6384 24.1432 97.8166 24.1666C97.9948 24.19 98.1589 24.2182 98.3136 24.2603C98.4684 24.3025 98.609 24.3494 98.7357 24.415C98.8623 24.476 98.9748 24.551 99.0733 24.6353C99.1718 24.7197 99.2562 24.8181 99.3312 24.9259C99.4062 25.0337 99.4672 25.1509 99.5188 25.2728C99.5704 25.3993 99.6126 25.5306 99.6407 25.6665C99.6735 25.8024 99.697 25.9477 99.7111 26.093C99.7251 26.2383 99.7345 26.393 99.7345 26.543C99.7345 26.6977 99.7298 26.8524 99.7157 27.007C99.7017 27.1617 99.6876 27.3164 99.6642 27.4711C99.6407 27.6258 99.6173 27.7757 99.5891 27.921C99.561 28.0663 99.5329 28.2117 99.5 28.3476C99.4672 28.4835 99.4344 28.6194 99.4015 28.7413C99.3687 28.8632 99.3359 28.9804 99.3031 29.0882C99.2702 29.196 99.2421 29.2944 99.214 29.3788C99.1858 29.4631 99.1624 29.5381 99.1389 29.5991C99.1202 29.66 99.1014 29.7069 99.0874 29.7397C99.0827 29.8006 99.078 29.8147 99.078 29.8147Z" fill="#FFCAA0"/>
<path d="M88.6911 28.4836C88.6911 28.4836 88.6911 28.5024 88.6958 28.5399C88.6958 28.5774 88.7005 28.6336 88.7052 28.7086C88.7098 28.7836 88.7099 28.8774 88.7145 28.9852C88.7192 29.093 88.7192 29.2195 88.7192 29.3601C88.7192 29.5008 88.7192 29.6554 88.7192 29.8242C88.7192 29.9929 88.7145 30.1757 88.7099 30.3726C88.7052 30.5694 88.6958 30.7757 88.6864 30.996C88.677 31.2163 88.663 31.4459 88.6489 31.685C88.6348 31.924 88.6114 32.1772 88.5879 32.4349C88.5645 32.6927 88.5364 32.9646 88.5035 33.2411C88.4707 33.5177 88.4332 33.7989 88.3957 34.0895C88.3535 34.3801 88.3066 34.6754 88.255 34.9801C88.2034 35.2801 88.1471 35.5894 88.0815 35.8988C88.0158 36.2081 87.9502 36.5269 87.8705 36.8409C87.7954 37.1596 87.711 37.4784 87.6219 37.8018C87.5328 38.1252 87.4344 38.4486 87.3265 38.772C87.3265 38.772 87.3359 38.7861 87.3593 38.8142C87.3828 38.8423 87.4109 38.8798 87.4531 38.9267C87.4953 38.9736 87.5422 39.0345 87.6032 39.1001C87.6641 39.1658 87.7298 39.2454 87.8048 39.3298C87.8798 39.4142 87.9642 39.5032 88.0533 39.597C88.1424 39.6907 88.2409 39.7938 88.3488 39.897C88.4519 40.0001 88.5645 40.1079 88.6817 40.2157C88.7989 40.3235 88.9209 40.436 89.0522 40.5485C89.1788 40.661 89.3148 40.7688 89.4508 40.8766C89.5867 40.9844 89.7321 41.0922 89.8775 41.1953C90.0229 41.2984 90.1729 41.3969 90.3277 41.4906C90.4824 41.5844 90.6372 41.6734 90.7919 41.7578C90.9467 41.8421 91.1108 41.9125 91.2702 41.9828C91.4297 42.0484 91.5938 42.1046 91.7579 42.1515C91.922 42.1984 92.0862 42.2359 92.2503 42.2593C92.4144 42.2827 92.5786 42.2921 92.7427 42.2921C92.9068 42.2921 93.0522 42.2452 93.1835 42.1656C93.3148 42.0859 93.4273 41.9687 93.5258 41.8234C93.6243 41.6781 93.7087 41.5 93.779 41.2984C93.8494 41.0969 93.9056 40.8672 93.9525 40.6188C93.9994 40.3704 94.0322 40.1032 94.0557 39.8173C94.0791 39.5314 94.0932 39.2361 94.0979 38.9267C94.1026 38.6174 94.0979 38.2986 94.0885 37.9752C94.0791 37.6518 94.0604 37.319 94.0416 36.9909C94.0182 36.6628 93.9947 36.33 93.9619 36.0066C93.9291 35.6832 93.8962 35.3644 93.8634 35.0551C93.8259 34.7457 93.7884 34.4504 93.7509 34.1645C93.7134 33.8833 93.6759 33.6161 93.6383 33.3677C93.6008 33.1193 93.568 32.8943 93.5352 32.6927C93.5023 32.4912 93.4742 32.3178 93.4461 32.1725C93.4226 32.0272 93.3992 31.9147 93.3851 31.8397C93.3711 31.7647 93.3617 31.7225 93.3617 31.7225L93.0709 31.5209L92.7802 31.3194L92.4895 31.1178L92.1987 30.9163L91.908 30.7147L91.6172 30.5132L91.3265 30.3116L91.0358 30.1101L90.745 29.9085L90.4543 29.707L90.1635 29.5055L89.8728 29.3039L89.5821 29.1024L89.2913 28.9008L89.0006 28.6993L88.6911 28.4836Z" fill="url(#paint4_linear_535_1819)"/>
<path d="M93.9854 36.3627C93.9854 36.3627 93.9854 36.3627 93.9807 36.3627C93.976 36.3627 93.9713 36.358 93.9619 36.358C93.9525 36.3534 93.9432 36.3487 93.9291 36.344C93.915 36.3393 93.901 36.3299 93.8822 36.3205C93.8634 36.3112 93.84 36.3018 93.8165 36.2877C93.7931 36.2737 93.765 36.2596 93.7322 36.2409C93.6993 36.2221 93.6665 36.2034 93.629 36.1799C93.5915 36.1565 93.5493 36.1284 93.5024 36.1002C93.4555 36.0721 93.4086 36.0393 93.3523 36.0018C93.3007 35.9643 93.2398 35.9268 93.1788 35.8799C93.1178 35.8378 93.0475 35.7909 92.9772 35.7393C92.9068 35.6878 92.8318 35.6315 92.7474 35.5706C92.663 35.5097 92.5786 35.444 92.4895 35.3737C92.4004 35.3034 92.3019 35.2284 92.1987 35.1487C92.0956 35.0691 91.9877 34.9847 91.8752 34.8909C91.7626 34.7972 91.6454 34.7035 91.5188 34.6003C91.5188 34.6003 91.5188 34.6097 91.5141 34.6238C91.5094 34.6378 91.5094 34.666 91.5094 34.6941C91.5094 34.7269 91.5094 34.7644 91.5094 34.8066C91.5094 34.8488 91.5141 34.9003 91.5141 34.9566C91.5188 35.0128 91.5235 35.0737 91.5329 35.1394C91.5422 35.205 91.5563 35.2753 91.5704 35.3503C91.5891 35.4253 91.6079 35.505 91.6313 35.5847C91.6548 35.6643 91.6876 35.7534 91.7204 35.8378C91.7579 35.9268 91.7954 36.0159 91.8423 36.1049C91.8892 36.194 91.9455 36.2877 92.0065 36.3815C92.0674 36.4752 92.1378 36.569 92.2128 36.6627C92.2878 36.7565 92.3722 36.8502 92.466 36.9439C92.5598 37.0377 92.663 37.1314 92.7755 37.2205C92.8881 37.3095 93.01 37.4033 93.1413 37.4877C93.2726 37.5767 93.418 37.6611 93.5727 37.7408C93.7275 37.8251 93.8963 37.9001 94.0745 37.9751C94.0745 37.9751 94.0745 37.9704 94.0745 37.9657C94.0745 37.9611 94.0745 37.9517 94.0745 37.9376C94.0745 37.9236 94.0745 37.9095 94.0745 37.8954C94.0745 37.8767 94.0745 37.8579 94.0745 37.8345C94.0745 37.8111 94.0745 37.7876 94.0698 37.7595C94.0651 37.7314 94.0698 37.7033 94.0651 37.6705C94.0604 37.6376 94.0604 37.6048 94.0604 37.572C94.0604 37.5392 94.0557 37.5017 94.0557 37.4595C94.0557 37.422 94.051 37.3798 94.051 37.3377C94.051 37.2955 94.0463 37.2533 94.0417 37.2111C94.037 37.1689 94.037 37.1221 94.0323 37.0752C94.0276 37.0283 94.0276 36.9814 94.0229 36.9346C94.0182 36.8877 94.0182 36.8408 94.0135 36.7893C94.0088 36.7424 94.0041 36.6908 94.0041 36.6393C93.9994 36.5877 93.9948 36.5408 93.9901 36.4893C93.9948 36.4612 93.9901 36.4143 93.9854 36.3627Z" fill="#C17276"/>
<path d="M92.7427 25.2261L92.6629 25.437L92.5832 25.6479L92.5035 25.8588L92.4238 26.0698L92.3441 26.2807L92.2644 26.4916L92.1846 26.7025L92.1049 26.9135L92.0252 27.1244L91.9455 27.3353L91.8658 27.5462L91.7861 27.7572L91.7063 27.9681L91.6266 28.179L91.5469 28.3899L91.4672 28.6009C91.4578 28.629 91.4484 28.6524 91.4344 28.6805C91.425 28.7087 91.4109 28.7321 91.3968 28.7555C91.3828 28.779 91.3734 28.8071 91.3593 28.8305C91.3453 28.854 91.3312 28.8774 91.3171 28.9055C91.3031 28.929 91.289 28.9524 91.2702 28.9758C91.2515 28.9993 91.2374 29.0227 91.2233 29.0461C91.2046 29.0696 91.1905 29.0883 91.1717 29.1118C91.153 29.1352 91.1342 29.1539 91.1155 29.1774C91.0967 29.1961 91.078 29.2196 91.0592 29.2383C91.0405 29.2571 91.017 29.2758 90.9982 29.2946C90.9795 29.3133 90.956 29.3321 90.9373 29.3508C90.9185 29.3696 90.8951 29.3883 90.8716 29.4024C90.8482 29.4211 90.8247 29.4352 90.8013 29.4492C90.7778 29.4633 90.7544 29.482 90.731 29.4961C90.7075 29.5102 90.6841 29.5242 90.6559 29.5383C90.6325 29.5524 90.6043 29.5664 90.5809 29.5758C90.5809 29.5758 90.5809 29.5711 90.5809 29.5617C90.5809 29.5524 90.5809 29.543 90.5856 29.5289C90.5856 29.5149 90.5856 29.4961 90.5903 29.4774C90.5903 29.4586 90.5903 29.4352 90.595 29.4071C90.595 29.3836 90.595 29.3555 90.595 29.3227C90.595 29.2899 90.595 29.2617 90.595 29.2289C90.595 29.1961 90.595 29.1633 90.5903 29.1305C90.5903 29.0977 90.5856 29.0602 90.5809 29.0274C90.5762 28.9899 90.5715 28.9571 90.5668 28.9196C90.5621 28.8821 90.5528 28.8493 90.5481 28.8165C90.5387 28.7837 90.5293 28.7508 90.5199 28.718C90.5106 28.6852 90.4965 28.6571 90.4824 28.6243C90.4683 28.5962 90.4543 28.568 90.4355 28.5446C90.4168 28.5212 90.398 28.4977 90.3793 28.479C90.3605 28.4602 90.3371 28.4415 90.3089 28.4274C90.2855 28.4134 90.2573 28.404 90.2292 28.3946C90.2011 28.3899 90.1682 28.3899 90.1307 28.3946C90.0932 28.3993 90.0557 28.4134 90.0135 28.4321C89.9713 28.4509 89.9291 28.4743 89.8869 28.5024C89.8447 28.5305 89.7978 28.5634 89.7556 28.6055C89.7134 28.643 89.6665 28.6899 89.6243 28.7368C89.5821 28.7837 89.5399 28.8352 89.5023 28.8915C89.4648 28.9477 89.4273 29.0086 89.3945 29.0696C89.3617 29.1305 89.3335 29.2008 89.3101 29.2664C89.2866 29.3367 89.2679 29.4071 89.2538 29.482C89.2397 29.557 89.2304 29.632 89.2304 29.7117C89.2304 29.7914 89.235 29.8711 89.2444 29.9555C89.2538 30.0398 89.2773 30.1195 89.3054 30.2039C89.3335 30.2882 89.371 30.3726 89.4179 30.4617C89.4648 30.546 89.5211 30.6351 89.5914 30.7195C89.6618 30.8038 89.7368 30.8929 89.8306 30.9773C89.9197 31.0616 90.0229 31.1507 90.1401 31.2351L90.1026 31.3429L90.0651 31.4507L90.0276 31.5585L89.99 31.6663L89.9525 31.7741L89.915 31.8819L89.8775 31.9897L89.84 32.0975L89.8025 32.2053L89.7649 32.3131L89.7274 32.4209L89.6899 32.5287L89.6524 32.6365L89.6149 32.7443L89.5774 32.8521L89.5399 32.9599C89.5305 32.9881 89.5211 33.0162 89.507 33.0396C89.493 33.0631 89.4836 33.0912 89.4695 33.1193C89.4555 33.1474 89.4414 33.1709 89.4273 33.1943C89.4132 33.2177 89.3992 33.2459 89.3804 33.2693C89.3663 33.2927 89.3476 33.3162 89.3288 33.3396C89.3101 33.363 89.296 33.3865 89.2773 33.4052C89.2585 33.4287 89.2397 33.4474 89.221 33.4708C89.2022 33.4896 89.1788 33.513 89.16 33.5318C89.1413 33.5505 89.1178 33.5693 89.0944 33.588C89.0709 33.6068 89.0522 33.6255 89.0287 33.6396C89.0053 33.6583 88.9818 33.6724 88.9584 33.6865C88.9349 33.7005 88.9115 33.7193 88.8834 33.7333C88.8599 33.7474 88.8318 33.7615 88.8083 33.7755C88.7802 33.7896 88.7567 33.799 88.7286 33.813C88.7005 33.8224 88.677 33.8364 88.6489 33.8458C88.6208 33.8552 88.5926 33.8646 88.5645 33.8739C88.5645 33.8739 88.5598 33.8599 88.5504 33.8318C88.541 33.8036 88.527 33.7615 88.5035 33.7099C88.4848 33.6583 88.4613 33.5927 88.4332 33.513C88.405 33.438 88.3769 33.349 88.3441 33.2552C88.3113 33.1615 88.2737 33.0537 88.2362 32.9412C88.1987 32.8287 88.1612 32.7068 88.119 32.5803C88.0768 32.4537 88.0346 32.3225 87.9924 32.1819C87.9502 32.0459 87.908 31.9006 87.8658 31.7553C87.8236 31.61 87.7813 31.46 87.7391 31.3101C87.6969 31.1601 87.6594 31.0054 87.6172 30.8507C87.5797 30.696 87.5422 30.5414 87.5047 30.3867C87.4672 30.232 87.439 30.082 87.4109 29.932C87.3828 29.782 87.3546 29.632 87.3359 29.4867C87.3124 29.3414 87.2937 29.2008 87.2843 29.0649C87.2702 28.929 87.2608 28.7977 87.2562 28.6758C87.2515 28.554 87.2562 28.4368 87.2608 28.3243C87.2608 28.3243 87.2702 28.3149 87.289 28.2962C87.3077 28.2774 87.3406 28.254 87.3781 28.2212C87.4156 28.1884 87.4625 28.1509 87.5188 28.104C87.575 28.0571 87.6407 28.0056 87.711 27.9493C87.7814 27.8931 87.8658 27.8322 87.9549 27.7665C88.044 27.7009 88.1377 27.6306 88.2409 27.5556C88.3441 27.4806 88.4519 27.4056 88.5692 27.3259C88.6864 27.2463 88.8036 27.1619 88.9349 27.0822C89.0615 26.9978 89.1928 26.9135 89.3335 26.8291C89.4742 26.7447 89.6149 26.6557 89.7603 26.5713C89.9056 26.4869 90.0604 26.3979 90.2151 26.3135C90.3699 26.2291 90.5293 26.1448 90.6934 26.0651C90.8576 25.9854 91.0217 25.9057 91.1905 25.826C91.3593 25.751 91.5328 25.676 91.7063 25.6057C91.8798 25.5354 92.058 25.4698 92.2362 25.4089C92.3816 25.3339 92.5645 25.2776 92.7427 25.2261Z" fill="#175CD3"/>
<path d="M99.8892 26.0836C99.8892 26.0836 99.8892 26.093 99.8845 26.1164C99.8845 26.1352 99.8799 26.1633 99.8752 26.2008C99.8705 26.2383 99.8658 26.2852 99.8611 26.3367C99.8564 26.3883 99.847 26.4492 99.8376 26.5102C99.8283 26.5758 99.8189 26.6414 99.8095 26.7164C99.8001 26.7914 99.7861 26.8664 99.772 26.9461C99.7579 27.0258 99.7439 27.1101 99.7298 27.1945C99.7157 27.2789 99.697 27.3679 99.6782 27.4523C99.6594 27.5367 99.6407 27.6257 99.6172 27.7101C99.5938 27.7945 99.575 27.8788 99.5469 27.9632C99.5188 28.0476 99.4953 28.1272 99.4719 28.2022C99.4437 28.2772 99.4156 28.3522 99.3875 28.4179C99.3547 28.4835 99.3265 28.5491 99.289 28.6053C99.2562 28.6616 99.2186 28.7131 99.1811 28.7553C99.1436 28.7975 99.1061 28.835 99.0639 28.8584C99.0217 28.8866 98.9795 28.9006 98.9373 28.91C98.9373 28.91 98.9373 28.9006 98.9326 28.8772C98.9279 28.8538 98.9232 28.8256 98.9138 28.7835C98.9045 28.7413 98.8951 28.6944 98.8857 28.6382C98.8763 28.5819 98.8623 28.5163 98.8482 28.446C98.8341 28.3757 98.8201 28.296 98.8013 28.2163C98.7826 28.1319 98.7685 28.0476 98.745 27.9538C98.7263 27.8601 98.7075 27.7663 98.6841 27.6679C98.6606 27.5695 98.6419 27.4664 98.6184 27.3632C98.595 27.2601 98.5715 27.1523 98.5481 27.0492C98.5246 26.9414 98.4965 26.8383 98.4731 26.7305C98.4496 26.6227 98.4215 26.5195 98.3933 26.4164C98.3652 26.3133 98.3417 26.2102 98.3136 26.1118C98.2855 26.0133 98.262 25.9149 98.2339 25.8211C98.2058 25.7274 98.1823 25.6383 98.1542 25.5587C98.126 25.4743 98.1026 25.3993 98.0745 25.3243C98.0463 25.254 98.0229 25.1884 97.9947 25.1274C97.9947 25.1274 97.9994 25.1274 98.0088 25.1321C98.0182 25.1321 98.0323 25.1368 98.0463 25.1415C98.0651 25.1462 98.0838 25.1509 98.1073 25.1556C98.1307 25.1603 98.1589 25.1696 98.1917 25.1743C98.2245 25.1837 98.2573 25.1931 98.2948 25.2024C98.3324 25.2118 98.3699 25.2259 98.4121 25.2352C98.4543 25.2493 98.4965 25.2634 98.5434 25.2774C98.5903 25.2915 98.6372 25.3102 98.6841 25.329C98.731 25.3477 98.7825 25.3665 98.8341 25.3899C98.8857 25.4134 98.9373 25.4321 98.9889 25.4555C99.0405 25.479 99.092 25.5071 99.1436 25.5352C99.1952 25.5634 99.2468 25.5915 99.2984 25.6243C99.3499 25.6571 99.4015 25.6899 99.4531 25.7227C99.5047 25.7555 99.5563 25.793 99.6032 25.8305C99.6501 25.868 99.7016 25.9102 99.7438 25.9524C99.8048 25.9946 99.847 26.0414 99.8892 26.0836Z" fill="#175CD3"/>
<path d="M87.228 28.9195C87.228 28.9195 87.2234 28.9008 87.214 28.8586C87.2046 28.8211 87.1952 28.7601 87.1811 28.6898C87.1671 28.6148 87.153 28.5258 87.1389 28.4227C87.1249 28.3195 87.1061 28.1977 87.092 28.0664C87.078 27.9352 87.0639 27.7946 87.0498 27.6399C87.0358 27.4852 87.0264 27.3259 87.0217 27.1524C87.0123 26.979 87.0123 26.8009 87.0123 26.6181C87.0123 26.4353 87.017 26.2431 87.0311 26.0463C87.0405 25.8494 87.0592 25.6525 87.0827 25.4557C87.1061 25.2541 87.1389 25.0526 87.1811 24.851C87.2233 24.6495 87.2702 24.4479 87.3312 24.2511C87.3922 24.0542 87.4578 23.8573 87.5375 23.6652C87.6173 23.473 87.7063 23.2855 87.8095 23.1074C87.9127 22.9293 88.0299 22.7558 88.1565 22.5918C88.2878 22.4277 88.4285 22.2731 88.5879 22.1278C88.7474 21.9825 88.9209 21.8512 89.1085 21.7293C89.296 21.6075 89.507 21.5091 89.7321 21.42C89.9572 21.3356 90.1964 21.2653 90.4496 21.2091C90.7028 21.1528 90.9701 21.1153 91.2468 21.0872C91.5235 21.0591 91.8095 21.045 92.1049 21.0403C92.4004 21.0356 92.7005 21.0403 93.01 21.0544C93.3195 21.0685 93.629 21.0872 93.9432 21.1153C94.2574 21.1435 94.5715 21.1763 94.8857 21.2138C95.1999 21.2513 95.5141 21.2934 95.8236 21.3356C96.1331 21.3778 96.4379 21.4247 96.738 21.4716C97.0381 21.5184 97.3289 21.5653 97.6102 21.6075C97.8916 21.6497 98.1636 21.6919 98.4262 21.7293C98.6841 21.7668 98.9326 21.7997 99.1671 21.8278C99.4015 21.8559 99.6172 21.8747 99.8142 21.8887C100.011 21.9028 100.194 21.9075 100.353 21.8981C100.513 21.8934 100.654 21.8747 100.766 21.8465C100.883 21.8184 100.972 21.7762 101.038 21.72C101.038 21.72 101.047 21.7434 101.062 21.7809C101.076 21.8184 101.094 21.8793 101.118 21.9496C101.141 22.0246 101.169 22.1137 101.198 22.2121C101.226 22.3106 101.254 22.4277 101.282 22.5496C101.31 22.6715 101.338 22.8074 101.362 22.948C101.385 23.0886 101.404 23.2339 101.418 23.3839C101.432 23.5339 101.441 23.6886 101.441 23.8433C101.441 23.998 101.432 24.1573 101.413 24.3073C101.395 24.462 101.366 24.612 101.319 24.762C101.277 24.9073 101.221 25.0526 101.151 25.1885C101.08 25.3244 100.991 25.451 100.888 25.5682C100.785 25.6853 100.663 25.7885 100.522 25.8822C100.382 25.9759 100.217 26.0556 100.035 26.1166C99.8517 26.1775 99.6454 26.2244 99.4109 26.2525C99.1812 26.2806 98.9232 26.2853 98.6372 26.2712C98.3558 26.2572 98.0416 26.2197 97.704 26.1587C97.3664 26.0978 97.0475 26.0369 96.7521 25.9853C96.4566 25.9291 96.1847 25.8822 95.9267 25.8353C95.6735 25.7885 95.4391 25.7463 95.2233 25.7041C95.0076 25.6619 94.8107 25.6291 94.6325 25.5916C94.4543 25.5588 94.2902 25.526 94.1401 25.4979C93.99 25.4697 93.8587 25.4463 93.7415 25.4229C93.6243 25.3994 93.5164 25.3807 93.4273 25.3619C93.3336 25.3432 93.2538 25.3291 93.1835 25.3151C93.1131 25.301 93.0522 25.2869 93.0053 25.2776C92.9537 25.2682 92.9162 25.2588 92.8787 25.2494C92.8459 25.2401 92.8177 25.2354 92.799 25.2307C92.7802 25.226 92.7661 25.2213 92.7568 25.2213C92.7474 25.2213 92.7427 25.2166 92.738 25.2166C92.7333 25.2166 92.7333 25.2166 92.738 25.2166H92.7427H92.7474L92.4004 25.4463L92.0534 25.676L91.7063 25.9056L91.3593 26.1353L91.0123 26.365L90.6653 26.5947L90.3183 26.8243L89.9713 27.054L89.6243 27.2837L89.2773 27.5133L88.9303 27.743L88.5832 27.9727L88.2362 28.2024L87.8892 28.432L87.5422 28.6617L87.228 28.9195Z" fill="#175CD3"/>
<path d="M113.829 84.2598C113.829 84.2598 113.833 84.2645 113.848 84.2691C113.862 84.2785 113.876 84.2879 113.899 84.302C113.923 84.316 113.951 84.3348 113.984 84.3535C114.016 84.3723 114.054 84.3957 114.091 84.4191C114.134 84.4426 114.176 84.4707 114.223 84.4988C114.27 84.5269 114.316 84.5598 114.368 84.5926C114.42 84.6254 114.471 84.6582 114.523 84.6957C114.574 84.7332 114.631 84.766 114.687 84.8035C114.743 84.841 114.799 84.8785 114.851 84.916C114.907 84.9535 114.959 84.991 115.015 85.0285C115.071 85.066 115.118 85.1035 115.17 85.141C115.222 85.1785 115.268 85.216 115.315 85.2488C115.362 85.2863 115.404 85.3191 115.442 85.3519C115.479 85.3847 115.517 85.4175 115.545 85.4456C115.578 85.4738 115.601 85.5019 115.625 85.53C115.648 85.5534 115.662 85.5816 115.672 85.6003C115.681 85.6191 115.695 85.6566 115.709 85.7034C115.723 85.7503 115.737 85.8112 115.751 85.8862C115.765 85.9565 115.784 86.0409 115.798 86.1346C115.817 86.2284 115.831 86.3268 115.85 86.4346C115.869 86.5424 115.887 86.6596 115.906 86.7768C115.925 86.894 115.944 87.0205 115.962 87.1518C115.981 87.283 116 87.4143 116.014 87.5455C116.028 87.6767 116.047 87.8127 116.061 87.9486C116.075 88.0845 116.089 88.2158 116.103 88.347C116.117 88.4782 116.127 88.6048 116.141 88.7314C116.15 88.8532 116.159 88.9751 116.169 89.0876C116.178 89.2001 116.183 89.3079 116.183 89.4063C116.187 89.5047 116.188 89.5938 116.188 89.6735C116.188 89.7532 116.183 89.8235 116.178 89.8797C116.173 89.936 116.164 89.9828 116.15 90.0156C116.136 90.0485 116.122 90.0672 116.103 90.0672C116.084 90.0672 116.066 90.0672 116.047 90.0625C116.028 90.0578 116.005 90.0531 115.981 90.0438C115.958 90.0344 115.934 90.025 115.911 90.011C115.887 89.9969 115.864 89.9828 115.836 89.9688C115.808 89.9547 115.784 89.936 115.756 89.9172C115.728 89.8985 115.705 89.875 115.676 89.8563C115.648 89.8375 115.62 89.8094 115.597 89.786C115.569 89.7625 115.54 89.7391 115.512 89.711C115.484 89.6875 115.456 89.6594 115.433 89.636C115.409 89.6125 115.381 89.5844 115.353 89.5563C115.325 89.5282 115.301 89.5047 115.278 89.4766C115.254 89.4485 115.226 89.4251 115.203 89.4016C115.179 89.3782 115.156 89.3501 115.132 89.3266C115.109 89.3032 115.09 89.2798 115.071 89.2563C115.053 89.2329 115.034 89.2141 115.015 89.1954C114.996 89.1766 114.982 89.1579 114.968 89.1438C114.954 89.1298 114.935 89.1016 114.917 89.0735C114.898 89.0454 114.874 89.0079 114.846 88.9657C114.823 88.9235 114.795 88.8767 114.767 88.8251C114.739 88.7735 114.706 88.7173 114.673 88.661C114.64 88.6001 114.607 88.5392 114.574 88.4736C114.542 88.4079 114.504 88.3423 114.471 88.272C114.438 88.2017 114.401 88.1314 114.363 88.0611C114.326 87.9908 114.293 87.9205 114.256 87.8502C114.218 87.7799 114.185 87.7095 114.152 87.6392C114.12 87.5689 114.087 87.5033 114.054 87.4377C114.021 87.3721 113.993 87.3111 113.96 87.2502C113.932 87.1893 113.904 87.1377 113.88 87.0861C113.857 87.0346 113.833 86.9877 113.815 86.9455C113.796 86.9033 113.777 86.8705 113.763 86.8377C113.749 86.8096 113.74 86.7862 113.73 86.7674C113.721 86.7534 113.721 86.744 113.721 86.744C113.721 86.744 113.712 86.758 113.693 86.7862C113.674 86.8143 113.646 86.8518 113.608 86.9033C113.571 86.9549 113.529 87.0158 113.482 87.0861C113.43 87.1565 113.374 87.2361 113.313 87.3252C113.252 87.4143 113.186 87.508 113.116 87.6064C113.046 87.7049 112.971 87.8127 112.896 87.9205C112.821 88.0283 112.741 88.1408 112.661 88.2579C112.581 88.3704 112.502 88.4876 112.417 88.6048C112.338 88.722 112.253 88.8345 112.178 88.9517C112.098 89.0641 112.019 89.1766 111.944 89.2844C111.869 89.3923 111.794 89.4954 111.728 89.5938C111.658 89.6922 111.597 89.786 111.536 89.8703C111.475 89.9547 111.423 90.0344 111.376 90.1C111.329 90.1656 111.287 90.2266 111.254 90.2734C111.222 90.3203 111.198 90.3578 111.179 90.3813C111.161 90.4047 111.156 90.4141 111.161 90.4094C111.165 90.4047 111.165 90.3859 111.165 90.3625C111.165 90.3344 111.161 90.3016 111.156 90.2547C111.151 90.2078 111.142 90.1563 111.137 90.1C111.128 90.0391 111.118 89.9735 111.104 89.9032C111.09 89.8328 111.081 89.7532 111.067 89.6735C111.053 89.5938 111.039 89.5094 111.025 89.4204C111.01 89.3313 110.992 89.2423 110.978 89.1485C110.959 89.0548 110.945 88.9657 110.926 88.872C110.907 88.7782 110.893 88.6845 110.874 88.5954C110.856 88.5064 110.842 88.4173 110.823 88.3283C110.804 88.2392 110.79 88.1595 110.776 88.0798C110.762 88.0001 110.748 87.9252 110.734 87.8595C110.72 87.7892 110.71 87.7283 110.696 87.672C110.687 87.6158 110.678 87.5689 110.668 87.5267C110.659 87.4846 110.654 87.4564 110.649 87.433C110.645 87.4096 110.645 87.4002 110.645 87.4002L110.846 87.2033L111.048 87.0065L111.25 86.8096L111.451 86.6127L111.653 86.4159L111.855 86.219L112.056 86.0222L112.258 85.8253L112.459 85.6284L112.661 85.4316L112.863 85.2347L113.064 85.0378L113.266 84.841L113.468 84.6441L113.669 84.4473L113.829 84.2598Z" fill="#FFBA93"/>
<path d="M125.508 100.183C125.728 100.183 130.617 100.183 130.837 100.176C143.112 99.8206 148.287 89.6846 148.287 77.2261V54.9002C148.287 51.6178 145.643 48.9529 142.386 48.9529H108.63C105.373 48.9529 102.729 51.6178 102.729 54.9002V77.2261C102.729 89.9061 112.926 100.183 125.508 100.183Z" fill="#363F72"/>
<path d="M128.901 28.0515C138.06 28.0515 145.486 35.536 145.486 44.7658V64.3731H112.31V44.7658C112.316 35.536 119.743 28.0515 128.901 28.0515ZM116.972 59.6072H140.83V44.8396C140.83 38.2076 135.475 32.8174 128.901 32.8174C122.327 32.8174 116.972 38.2076 116.972 44.8396V59.6072Z" fill="#9EA5D1"/>
<path d="M130.838 100.183C143.42 100.183 153.617 89.9061 153.617 77.2261V54.9002C153.617 51.6178 150.973 48.9529 147.716 48.9529H113.96C110.703 48.9529 108.059 51.6178 108.059 54.9002V77.2261C108.059 89.9061 118.256 100.183 130.838 100.183Z" fill="#4E5BA6"/>
<path d="M130.247 69.7525V67.7052C129.847 67.3763 129.594 66.8795 129.594 66.3157C129.594 65.3289 130.386 64.5234 131.372 64.5234C132.351 64.5234 133.151 65.3222 133.151 66.3157C133.151 66.9198 132.851 67.4568 132.391 67.779V70.256C132.391 70.3768 132.311 70.4775 132.218 70.4775C131.126 70.4976 131.132 76.0422 132.218 76.022C132.311 76.022 132.391 76.1227 132.391 76.2435V84.9094H130.247V83.0702C130.5 83.0702 130.706 82.8084 130.706 82.4795V80.5396C130.706 80.2174 130.5 79.9489 130.247 79.9489V76.7537C130.247 76.653 130.233 76.559 130.2 76.4718C129.88 75.5119 129.674 74.4983 129.674 73.4511V73.0484C129.674 72.0079 129.88 70.9943 130.2 70.0277C130.233 69.9472 130.247 69.8532 130.247 69.7525Z" fill="#001333"/>
<path d="M118.918 78.9693C118.813 78.9693 117.911 74.0611 119.849 74.7284C120.36 74.6246 120.841 74.5208 121.232 74.417C122.088 74.1501 122.81 73.7942 123.411 73.468C124.177 73.0528 125.815 72.4152 126.236 72.3707C126.732 72.3114 127.739 72.2373 128.355 72.1928C128.971 72.1483 129.677 72.0742 130.008 72.089C130.203 72.1038 130.624 71.9555 130.924 71.8369C131.375 71.659 131.796 72.1186 131.586 72.5487C131.39 72.949 130.789 73.1863 130.428 73.3494C129.392 73.7794 127.588 73.8387 127.664 73.987C127.739 74.1353 130.639 75.0546 130.969 75.1732C131.3 75.2919 134.666 76.3743 135.237 76.7895C135.823 77.2047 135.658 77.6347 135.237 77.7089C134.876 77.7682 130.113 76.6264 130.113 76.6264C130.113 76.6264 129.512 76.4781 129.662 76.7747C129.812 77.0713 134.14 78.1092 134.756 78.391C135.372 78.6727 135.658 79.1324 135.087 79.429C134.396 79.77 129.857 78.3761 129.857 78.3761C129.857 78.3761 129.286 78.213 129.301 78.4651C129.316 78.7172 133.013 79.5476 133.314 79.7848C133.614 80.0221 133.659 80.5262 133.088 80.6745C132.412 80.8525 128.37 79.5772 128.37 79.5772C128.37 79.5772 128.039 79.5624 128.129 79.7403C128.22 79.9035 131.315 80.8376 131.556 81.1935C131.766 81.4901 131.495 81.6828 131.495 81.6828C131.015 82.2167 127.618 81.0007 126.176 80.5707C123.306 79.681 119.098 78.9693 118.918 78.9693Z" fill="#FEB590"/>
<path d="M86.9477 50.4976C83.653 49.0788 78.3792 51.2972 81.8619 58.5041C83.3987 61.6796 95.3614 72.1973 97.7716 73.4922C100.171 74.7872 119.486 79.1452 119.486 79.1452C119.541 79.0438 120.116 74.8013 120.116 74.8013L101.818 67.2875C101.818 67.2875 91.4475 52.4232 86.9477 50.4976Z" fill="url(#paint5_linear_535_1819)"/>
<path d="M94.5546 56.6273L93.8709 56.9612L93.1871 57.2951L92.5034 57.629L91.8197 57.9629L91.1359 58.2968L90.4522 58.6306L89.7685 58.9645L89.0847 59.2984L88.401 59.6323L87.7173 59.9662L87.0335 60.3001L86.3498 60.634L85.6661 60.9678L84.9824 61.3017L84.2986 61.6356L83.6149 61.9695L83.3698 61.5395L83.1247 61.1095L82.8797 60.6795L82.6346 60.2495L82.3895 59.8195L82.1445 59.3895L81.8994 58.9595L81.6544 58.5295L81.4093 58.0996L81.1642 57.6696L80.9192 57.2396L80.6741 56.8096L80.429 56.3796L80.1839 55.9496L79.9389 55.5196L79.6938 55.0896C79.6938 55.0896 79.6703 55.0542 79.6325 54.9832C79.5948 54.9122 79.5383 54.8147 79.4721 54.6816C79.4059 54.5485 79.3255 54.3888 79.2357 54.2024C79.1458 54.0161 79.051 53.803 78.9513 53.5721C78.8516 53.3367 78.7517 53.0791 78.6515 52.8036C78.5513 52.528 78.4509 52.2302 78.3596 51.9234C78.2682 51.612 78.1813 51.2873 78.1081 50.949C78.0348 50.6107 77.9707 50.2589 77.9203 49.898C77.8699 49.5371 77.8379 49.1715 77.8288 48.7967C77.8198 48.422 77.8246 48.0425 77.857 47.6628C77.8894 47.2831 77.9495 46.8986 78.0373 46.5137C78.1251 46.1334 78.2406 45.7526 78.3931 45.376C78.5455 44.9993 78.7304 44.6267 78.9569 44.2669C79.1834 43.9028 79.4468 43.5471 79.752 43.2043C80.0618 42.8614 80.4087 42.5316 80.8111 42.2144C81.2089 41.8973 81.6576 41.5974 82.1573 41.3148C82.327 41.2191 82.5251 41.1944 82.7471 41.2319C82.9691 41.2695 83.2149 41.3737 83.4752 41.5268C83.7401 41.6843 84.0195 41.8952 84.3179 42.1505C84.6163 42.4059 84.9291 42.7101 85.2516 43.0499C85.574 43.3897 85.9108 43.7695 86.2479 44.1761C86.5896 44.5827 86.9363 45.0204 87.2878 45.4759C87.6394 45.9314 87.9911 46.4092 88.343 46.896C88.6949 47.3827 89.047 47.8829 89.3898 48.3876C89.7327 48.8923 90.0756 49.397 90.4045 49.8974C90.7335 50.3978 91.0578 50.8938 91.3634 51.3722C91.6691 51.8505 91.9654 52.3201 92.2429 52.7631C92.5204 53.2061 92.7792 53.627 93.0146 54.0169C93.25 54.4069 93.4665 54.7658 93.6595 55.0804C93.8478 55.3995 94.0126 55.6742 94.1492 55.9047C94.2857 56.1351 94.3894 56.3124 94.4601 56.4365C94.5169 56.5608 94.5546 56.6273 94.5546 56.6273Z" fill="url(#paint6_linear_535_1819)"/>
<path d="M174.897 86.3664H178.585C182.123 86.3664 185 83.0949 185 79.0722V65.4007C185 61.3779 182.123 58.1064 178.585 58.1064H174.897C171.359 58.1064 168.482 61.3779 168.482 65.4007V79.0662C168.482 83.089 171.359 86.3664 174.897 86.3664ZM178.585 62.4132C180.032 62.4132 181.213 63.7502 181.213 65.4007V79.0662C181.213 80.7108 180.037 82.0537 178.585 82.0537H174.897C173.451 82.0537 172.27 80.7168 172.27 79.0662V65.4007C172.27 63.7561 173.445 62.4132 174.897 62.4132H178.585Z" fill="#FD853A"/>
<path d="M136.216 74.7524H170.037V69.718H136.211C134.989 69.718 134 70.842 134 72.2322C134 73.6225 134.994 74.7524 136.216 74.7524Z" fill="#FD853A"/>
<path d="M138.683 85.6195C139.666 85.6195 140.457 84.7144 140.457 83.6022V73.7346H136.904V83.6022C136.909 84.7203 137.7 85.6195 138.683 85.6195Z" fill="#FD853A"/>
<circle cx="202.5" cy="46.5" r="32.5" fill="#5BDD0C"/>
<circle cx="203" cy="47" r="25" fill="#027A48"/>
<path d="M213.74 24.4251C210.305 22.7904 206.542 21.9615 202.737 22.0014C198.933 22.0413 195.187 22.949 191.787 24.6553C188.386 26.3617 185.42 28.8217 183.114 31.848C180.808 34.8742 179.223 38.3868 178.48 42.1182C178.48 42.1182 193.679 48.1061 200.5 44.5C213.74 37.5 213.74 24.4251 213.74 24.4251Z" fill="#039855"/>
<path d="M220.03 32.0309C218.764 30.7583 216.691 30.7583 215.399 32.0309L198.355 49.1703L190.573 41.3452C189.307 40.0726 187.234 40.0726 185.969 41.3452C184.703 42.6178 184.703 44.7027 185.969 46.0024L196.039 56.1561C196.658 56.7788 197.493 57.1308 198.355 57.1308C199.216 57.1308 200.051 56.7788 200.67 56.1561L220.03 36.688C221.322 35.3884 221.322 33.3035 220.03 32.0309Z" fill="white"/>
<g clip-path="url(#clip1_535_1819)">
<path d="M247.687 53.1124L249.535 56.7389C249.564 56.7981 249.623 56.84 249.692 56.8496L253.823 57.4317C253.994 57.4566 254.063 57.6589 253.939 57.7772L250.949 60.5983C250.9 60.6441 250.878 60.7109 250.89 60.7777L251.595 64.7631C251.625 64.9291 251.445 65.0532 251.292 64.9768L247.598 63.0949C247.537 63.0643 247.465 63.0643 247.403 63.0949L243.71 64.9768C243.557 65.0551 243.377 64.9291 243.407 64.7631L244.112 60.7777C244.124 60.7128 244.102 60.646 244.053 60.5983L241.063 57.7753C240.939 57.6589 241.008 57.4546 241.179 57.4298L245.31 56.8477C245.377 56.8381 245.436 56.7961 245.467 56.737L247.315 53.1104C247.39 52.9616 247.61 52.9616 247.687 53.1124Z" fill="#F3CC30"/>
<path d="M247.5 53.9504L245.853 57.0406C245.767 57.2029 245.601 57.3117 245.414 57.3269L241.841 57.6419L245.617 57.8136C245.857 57.8251 246.076 57.6839 246.159 57.4663L247.5 53.9504Z" fill="#F7DB5E"/>
<path d="M243.488 64.3052L243.407 64.7633C243.377 64.9294 243.557 65.0534 243.71 64.9771L247.403 63.0951C247.465 63.0646 247.537 63.0646 247.598 63.0951L251.292 64.9771C251.445 65.0553 251.625 64.9294 251.595 64.7633L250.888 60.7779C250.876 60.713 250.898 60.6462 250.947 60.5985L253.935 57.7756C254.059 57.6591 253.99 57.4549 253.819 57.4301L252.438 57.2373C250.2 61.1272 246.775 63.1753 243.488 64.3052Z" fill="#EDBD31"/>
</g>
<g clip-path="url(#clip2_535_1819)">
<path d="M246.687 20.1124L248.535 23.7389C248.564 23.7981 248.623 23.84 248.692 23.8496L252.823 24.4317C252.994 24.4566 253.063 24.6589 252.939 24.7772L249.949 27.5983C249.9 27.6441 249.878 27.7109 249.89 27.7777L250.595 31.7631C250.625 31.9291 250.445 32.0532 250.292 31.9768L246.598 30.0949C246.537 30.0643 246.465 30.0643 246.403 30.0949L242.71 31.9768C242.557 32.0551 242.377 31.9291 242.407 31.7631L243.112 27.7777C243.124 27.7128 243.102 27.646 243.053 27.5983L240.063 24.7753C239.939 24.6589 240.008 24.4546 240.179 24.4298L244.31 23.8477C244.377 23.8381 244.436 23.7961 244.467 23.737L246.315 20.1104C246.39 19.9616 246.61 19.9616 246.687 20.1124Z" fill="#F3CC30"/>
<path d="M246.5 20.9504L244.853 24.0406C244.767 24.2029 244.601 24.3117 244.414 24.3269L240.841 24.6419L244.617 24.8136C244.857 24.8251 245.076 24.6839 245.159 24.4663L246.5 20.9504Z" fill="#F7DB5E"/>
<path d="M242.488 31.3052L242.407 31.7633C242.377 31.9294 242.557 32.0534 242.71 31.9771L246.403 30.0951C246.465 30.0646 246.537 30.0646 246.598 30.0951L250.292 31.9771C250.445 32.0553 250.625 31.9294 250.595 31.7633L249.888 27.7779C249.876 27.713 249.898 27.6462 249.947 27.5985L252.935 24.7756C253.059 24.6591 252.99 24.4549 252.819 24.4301L251.438 24.2373C249.2 28.1272 245.775 30.1753 242.488 31.3052Z" fill="#EDBD31"/>
</g>
<g clip-path="url(#clip3_535_1819)">
<path d="M154.687 12.1124L156.535 15.7389C156.564 15.7981 156.623 15.84 156.692 15.8496L160.823 16.4317C160.994 16.4566 161.063 16.6589 160.939 16.7772L157.949 19.5983C157.9 19.6441 157.878 19.7109 157.89 19.7777L158.595 23.7631C158.624 23.9291 158.445 24.0532 158.292 23.9768L154.598 22.0949C154.537 22.0643 154.464 22.0643 154.403 22.0949L150.71 23.9768C150.557 24.0551 150.377 23.9291 150.407 23.7631L151.112 19.7777C151.124 19.7128 151.102 19.646 151.053 19.5983L148.063 16.7753C147.939 16.6589 148.008 16.4546 148.179 16.4298L152.31 15.8477C152.377 15.8381 152.436 15.7961 152.467 15.737L154.315 12.1104C154.39 11.9616 154.61 11.9616 154.687 12.1124Z" fill="#F3CC30"/>
<path d="M154.5 12.9504L152.853 16.0406C152.767 16.2029 152.601 16.3117 152.414 16.3269L148.841 16.6419L152.617 16.8136C152.857 16.8251 153.076 16.6839 153.159 16.4663L154.5 12.9504Z" fill="#F7DB5E"/>
<path d="M150.488 23.3052L150.407 23.7633C150.377 23.9294 150.557 24.0534 150.71 23.9771L154.403 22.0951C154.465 22.0646 154.537 22.0646 154.598 22.0951L158.292 23.9771C158.445 24.0553 158.625 23.9294 158.595 23.7633L157.888 19.7779C157.876 19.713 157.898 19.6462 157.947 19.5985L160.935 16.7756C161.059 16.6591 160.99 16.4549 160.819 16.4301L159.438 16.2373C157.2 20.1272 153.775 22.1753 150.488 23.3052Z" fill="#EDBD31"/>
</g>
</g>
<defs>
<linearGradient id="paint0_linear_535_1819" x1="108.598" y1="55.2903" x2="101.453" y2="62.3114" gradientUnits="userSpaceOnUse">
<stop stop-color="#FEC99F"/>
<stop offset="1" stop-color="#FEA381"/>
</linearGradient>
<linearGradient id="paint1_linear_535_1819" x1="105.147" y1="60.8054" x2="62.8617" y2="60.8236" gradientUnits="userSpaceOnUse">
<stop stop-color="#E32D30"/>
<stop offset="0.963542" stop-color="#F87075"/>
</linearGradient>
<linearGradient id="paint2_linear_535_1819" x1="103.881" y1="54.8609" x2="94.1503" y2="54.8625" gradientUnits="userSpaceOnUse">
<stop stop-color="#E32D30"/>
<stop offset="0.963542" stop-color="#F87075"/>
</linearGradient>
<linearGradient id="paint3_linear_535_1819" x1="85.58" y1="62.5461" x2="76.3162" y2="62.5488" gradientUnits="userSpaceOnUse">
<stop stop-color="#E32D30"/>
<stop offset="0.963542" stop-color="#F87075"/>
</linearGradient>
<linearGradient id="paint4_linear_535_1819" x1="91.4846" y1="32.6578" x2="86.3353" y2="35.9991" gradientUnits="userSpaceOnUse">
<stop stop-color="#FEC99F"/>
<stop offset="1" stop-color="#FEA381"/>
</linearGradient>
<linearGradient id="paint5_linear_535_1819" x1="104.905" y1="58.8744" x2="94.8141" y2="76.9763" gradientUnits="userSpaceOnUse">
<stop stop-color="#FEC99F"/>
<stop offset="1" stop-color="#FEA381"/>
</linearGradient>
<linearGradient id="paint6_linear_535_1819" x1="94.1386" y1="56.6175" x2="69.1905" y2="56.9211" gradientUnits="userSpaceOnUse">
<stop stop-color="#E32D30"/>
<stop offset="0.963542" stop-color="#F87075"/>
</linearGradient>
<clipPath id="clip0_535_1819">
<rect width="296" height="144" fill="white"/>
</clipPath>
<clipPath id="clip1_535_1819">
<rect width="13" height="12" fill="white" transform="translate(241 53)"/>
</clipPath>
<clipPath id="clip2_535_1819">
<rect width="13" height="12" fill="white" transform="translate(240 20)"/>
</clipPath>
<clipPath id="clip3_535_1819">
<rect width="13" height="12" fill="white" transform="translate(148 12)"/>
</clipPath>
</defs>
</svg>
