<svg width="360" height="239" viewBox="0 0 360 239" fill="none" xmlns="http://www.w3.org/2000/svg">
<g clip-path="url(#clip0_1_5222)">
<rect width="360" height="239" fill="#EAECF5"/>
<path d="M360.006 0H0V203.496H360.006V0Z" fill="#FBDCE0"/>
<path d="M81.1247 37.394C79.4827 37.394 76.8863 36.9769 74.5156 36.5088C74.1565 36.4376 73.9204 36.112 73.9512 35.7559C73.9615 35.6033 73.9717 35.4405 73.9717 35.2878C73.9717 32.5508 71.7345 30.3327 68.9739 30.3327C68.9534 30.3327 68.9329 30.3327 68.9021 30.3327C68.3582 25.8151 64.479 22.3149 59.7685 22.3149C56.0946 22.3149 52.9337 24.4415 51.4559 27.5244C51.3328 27.7788 51.0762 27.9314 50.7889 27.9213C50.7171 27.9213 50.6452 27.9213 50.5734 27.9213C47.0534 27.9213 44.2004 30.7499 44.2004 34.2398C44.2004 34.2398 44.2004 34.2398 44.2004 34.25C44.2004 34.5858 43.9746 34.8707 43.6462 34.9419C41.3988 35.4506 38.8229 36.2137 37.9711 37.1702C36.3599 39.0016 36.8217 40.5584 41.6656 40.5584H83.2798C83.6595 40.5584 83.9674 40.2633 83.9879 39.897C84.0289 38.9609 83.7211 37.394 81.1247 37.394Z" fill="white"/>
<path d="M253.79 31.9302C251.768 31.9302 248.587 31.4113 245.673 30.8415C245.231 30.7601 244.934 30.3531 244.975 29.9156C244.995 29.7223 245.006 29.5289 245.006 29.3356C245.006 25.9779 242.255 23.2511 238.869 23.2511C238.838 23.2511 238.817 23.2511 238.786 23.2511C238.109 17.7058 233.347 13.4019 227.57 13.4019C223.064 13.4019 219.175 16.0168 217.359 19.8018C217.215 20.1071 216.886 20.3004 216.538 20.2902C216.445 20.2902 216.363 20.2902 216.271 20.2902C211.95 20.2902 208.44 23.77 208.44 28.0536C208.44 28.0536 208.44 28.0536 208.44 28.0638C208.44 28.4708 208.163 28.8269 207.763 28.9185C205.003 29.5391 201.831 30.4752 200.795 31.6555C198.814 33.9041 199.379 35.817 205.331 35.817H256.448C256.91 35.817 257.3 35.4609 257.32 35.003C257.361 33.8634 256.982 31.9302 253.79 31.9302Z" fill="white"/>
<path d="M146.117 54.8942C147.43 54.8942 149.503 54.5584 151.402 54.1921C151.689 54.1412 151.884 53.8767 151.853 53.5918C151.843 53.4697 151.833 53.3476 151.833 53.2153C151.833 51.0277 153.618 49.2573 155.825 49.2573C155.845 49.2573 155.856 49.2573 155.876 49.2573C156.317 45.6452 159.417 42.8472 163.183 42.8472C166.118 42.8472 168.653 44.5565 169.833 47.0188C169.925 47.2223 170.141 47.3444 170.367 47.3343C170.428 47.3343 170.48 47.3343 170.541 47.3343C173.353 47.3343 175.642 49.5931 175.642 52.3912C175.642 52.6557 175.826 52.8897 176.083 52.9508C177.879 53.3578 179.942 53.9682 180.619 54.7314C181.912 56.1965 181.542 57.4379 177.663 57.4379H144.392C144.095 57.4379 143.838 57.2038 143.828 56.9088C143.797 56.1457 144.044 54.8942 146.117 54.8942Z" fill="white"/>
<path d="M309.279 41.5428C310.305 41.5428 311.927 41.2783 313.405 40.9934C313.63 40.9527 313.774 40.7492 313.754 40.5253C313.743 40.4338 313.743 40.332 313.743 40.2303C313.743 38.5209 315.139 37.1371 316.863 37.1371C316.873 37.1371 316.894 37.1371 316.904 37.1371C317.243 34.3187 319.665 32.1311 322.6 32.1311C324.888 32.1311 326.869 33.464 327.782 35.387C327.854 35.5397 328.018 35.6414 328.193 35.6312C328.234 35.6312 328.285 35.6312 328.326 35.6312C330.522 35.6312 332.298 37.3915 332.298 39.5689C332.298 39.7724 332.441 39.9555 332.647 40.0064C334.053 40.3218 335.654 40.8 336.187 41.4004C337.193 42.5399 336.906 43.5167 333.888 43.5167H307.935C307.699 43.5167 307.504 43.3336 307.493 43.0996C307.463 42.5298 307.658 41.5428 309.279 41.5428Z" fill="white"/>
<path d="M268.073 138H285.365V62.5024H268.073V138Z" fill="#FFAEB7"/>
<path d="M272.232 70.2971H243.712V137.99H272.232V70.2971Z" fill="#F2939E"/>
<path d="M251.717 76.21H249.798V78.1127H251.717V76.21Z" fill="white"/>
<path d="M258.932 76.21H257.012V78.1127H258.932V76.21Z" fill="white"/>
<path d="M266.156 76.21H264.237V78.1127H266.156V76.21Z" fill="white"/>
<path d="M251.717 84.3687H249.798V86.2713H251.717V84.3687Z" fill="white"/>
<path d="M258.932 84.3687H257.012V86.2713H258.932V84.3687Z" fill="white"/>
<path d="M266.156 84.3687H264.237V86.2713H266.156V84.3687Z" fill="white"/>
<path d="M251.717 92.541H249.798V94.4437H251.717V92.541Z" fill="white"/>
<path d="M258.932 92.541H257.012V94.4437H258.932V92.541Z" fill="white"/>
<path d="M266.156 92.541H264.237V94.4437H266.156V92.541Z" fill="white"/>
<path d="M298.963 137.989H311.432V81.2239H298.963V137.989Z" fill="#FFAEB7"/>
<path d="M298.965 137.996H347.485V86.2775H298.965V137.996Z" fill="#FFAEB7"/>
<path d="M257.32 80.2183H232.034V137.991H257.32V80.2183Z" fill="#CE6F79"/>
<path d="M238.417 86.2732H236.498V88.1759H238.417V86.2732Z" fill="white"/>
<path d="M245.631 86.2732H243.712V88.1759H245.631V86.2732Z" fill="white"/>
<path d="M252.856 86.2732H250.937V88.1759H252.856V86.2732Z" fill="white"/>
<path d="M238.417 94.4421H236.498V96.3448H238.417V94.4421Z" fill="white"/>
<path d="M245.631 94.4421H243.712V96.3448H245.631V94.4421Z" fill="white"/>
<path d="M252.856 94.4421H250.937V96.3448H252.856V94.4421Z" fill="white"/>
<path d="M238.417 102.615H236.498V104.517H238.417V102.615Z" fill="white"/>
<path d="M245.631 102.615H243.712V104.517H245.631V102.615Z" fill="white"/>
<path d="M252.856 102.615H250.937V104.517H252.856V102.615Z" fill="white"/>
<path d="M352.084 96.3464H333.858V137.992H352.084V96.3464Z" fill="#CE6F79"/>
<path d="M338.466 100.71H337.08V102.084H338.466V100.71Z" fill="white"/>
<path d="M343.669 100.71H342.283V102.084H343.669V100.71Z" fill="white"/>
<path d="M348.872 100.71H347.486V102.084H348.872V100.71Z" fill="white"/>
<path d="M338.466 106.603H337.08V107.976H338.466V106.603Z" fill="white"/>
<path d="M343.669 106.603H342.283V107.976H343.669V106.603Z" fill="white"/>
<path d="M348.872 106.603H347.486V107.976H348.872V106.603Z" fill="white"/>
<path d="M338.466 112.491H337.08V113.865H338.466V112.491Z" fill="white"/>
<path d="M343.669 112.491H342.283V113.865H343.669V112.491Z" fill="white"/>
<path d="M348.872 112.491H347.486V113.865H348.872V112.491Z" fill="white"/>
<path d="M284.608 95.0339H271.01V138.002H284.608V95.0339Z" fill="#CE6F79"/>
<path d="M275.762 99.5327H274.335V100.947H275.762V99.5327Z" fill="white"/>
<path d="M281.129 99.5327H279.703V100.947H281.129V99.5327Z" fill="white"/>
<path d="M275.762 105.608H274.335V107.022H275.762V105.608Z" fill="white"/>
<path d="M281.129 105.608H279.703V107.022H281.129V105.608Z" fill="white"/>
<path d="M275.762 111.683H274.335V113.097H275.762V111.683Z" fill="white"/>
<path d="M281.129 111.683H279.703V113.097H281.129V111.683Z" fill="white"/>
<path d="M303.358 67.3169H282.792V86.2828H303.358V67.3169Z" fill="#F2939E"/>
<path d="M307.329 86.2729H278.81V137.992H307.329V86.2729Z" fill="#FFAEB7"/>
<path d="M287.174 91.8271H285.368V93.7298H287.174V91.8271Z" fill="white"/>
<path d="M293.968 91.8271H292.161V93.7298H293.968V91.8271Z" fill="white"/>
<path d="M300.772 91.8271H298.966V93.7298H300.772V91.8271Z" fill="white"/>
<path d="M287.174 99.9961H285.368V101.899H287.174V99.9961Z" fill="white"/>
<path d="M293.968 99.9961H292.161V101.899H293.968V99.9961Z" fill="white"/>
<path d="M300.772 99.9961H298.966V101.899H300.772V99.9961Z" fill="white"/>
<path d="M287.174 108.168H285.368V110.071H287.174V108.168Z" fill="white"/>
<path d="M293.968 108.168H292.161V110.071H293.968V108.168Z" fill="white"/>
<path d="M300.772 108.168H298.966V110.071H300.772V108.168Z" fill="white"/>
<path d="M290.571 72.1201H288.765V74.0228H290.571V72.1201Z" fill="white"/>
<path d="M297.375 72.1201H295.569V74.0228H297.375V72.1201Z" fill="white"/>
<path d="M290.571 80.2891H288.765V82.1918H290.571V80.2891Z" fill="white"/>
<path d="M297.375 80.2891H295.569V82.1918H297.375V80.2891Z" fill="white"/>
<path d="M336.721 78.1006H311.434V137.99H336.721V78.1006Z" fill="#F2939E"/>
<path d="M331.292 62.4934H316.853V78.1016H331.292V62.4934Z" fill="#FFAEB7"/>
<path d="M317.818 86.2729H315.899V88.1756H317.818V86.2729Z" fill="white"/>
<path d="M325.032 86.2729H323.113V88.1756H325.032V86.2729Z" fill="white"/>
<path d="M332.257 86.2729H330.338V88.1756H332.257V86.2729Z" fill="white"/>
<path d="M317.818 94.4419H315.899V96.3446H317.818V94.4419Z" fill="white"/>
<path d="M325.032 94.4419H323.113V96.3446H325.032V94.4419Z" fill="white"/>
<path d="M332.257 94.4419H330.338V96.3446H332.257V94.4419Z" fill="white"/>
<path d="M317.818 102.614H315.899V104.517H317.818V102.614Z" fill="white"/>
<path d="M325.032 102.614H323.113V104.517H325.032V102.614Z" fill="white"/>
<path d="M332.257 102.614H330.338V104.517H332.257V102.614Z" fill="white"/>
<path d="M322.107 66.3191H320.681V67.825H322.107V66.3191Z" fill="white"/>
<path d="M327.475 66.3191H326.048V67.825H327.475V66.3191Z" fill="white"/>
<path d="M322.107 72.7698H320.681V74.2756H322.107V72.7698Z" fill="white"/>
<path d="M327.475 72.7698H326.048V74.2756H327.475V72.7698Z" fill="white"/>
<path d="M304.589 95.0319L318.187 88.1741V137.99H304.589V95.0319Z" fill="#CE6F79"/>
<path d="M309.331 99.5293H307.904V100.944H309.331V99.5293Z" fill="white"/>
<path d="M314.708 99.5293H313.282V100.944H314.708V99.5293Z" fill="white"/>
<path d="M309.331 105.604H307.904V107.019H309.331V105.604Z" fill="white"/>
<path d="M314.708 105.604H313.282V107.019H314.708V105.604Z" fill="white"/>
<path d="M309.331 111.679H307.904V113.094H309.331V111.679Z" fill="white"/>
<path d="M314.708 111.679H313.282V113.094H314.708V111.679Z" fill="white"/>
<path d="M339.553 122.615H330.604V137.99H339.553V122.615Z" fill="#FFAEB7"/>
<path d="M335.777 126.39H334.371V127.866H335.777V126.39Z" fill="white"/>
<path d="M335.777 132.74H334.371V134.215H335.777V132.74Z" fill="white"/>
<path d="M230.874 67.5911H214.742V138.001H230.874V67.5911Z" fill="#FFAEB7"/>
<path d="M226.988 138H253.588V74.8648H226.988V138Z" fill="#F2939E"/>
<path d="M246.131 82.1462H247.917V80.3758H246.131V82.1462Z" fill="white"/>
<path d="M239.395 82.1462H241.181V80.3758H239.395V82.1462Z" fill="white"/>
<path d="M232.67 82.1462H234.455V80.3758H232.67V82.1462Z" fill="white"/>
<path d="M246.131 89.7603H247.917V87.9898H246.131V89.7603Z" fill="white"/>
<path d="M239.395 89.7603H241.181V87.9898H239.395V89.7603Z" fill="white"/>
<path d="M232.67 89.7603H234.455V87.9898H232.67V89.7603Z" fill="white"/>
<path d="M246.131 97.3848H247.917V95.6143H246.131V97.3848Z" fill="white"/>
<path d="M239.395 97.3848H241.181V95.6143H239.395V97.3848Z" fill="white"/>
<path d="M232.67 97.3848H234.455V95.6143H232.67V97.3848Z" fill="white"/>
<path d="M202.068 85.062H190.44V137.991H202.068V85.062Z" fill="#FFAEB7"/>
<path d="M202.068 89.7639H156.82V137.993H202.068V89.7639Z" fill="#FFAEB7"/>
<path d="M240.901 137.993H264.484V84.1173H240.901V137.993Z" fill="#CE6F79"/>
<path d="M258.535 91.5364H260.321V89.766H258.535V91.5364Z" fill="white"/>
<path d="M251.81 91.5364H253.595V89.766H251.81V91.5364Z" fill="white"/>
<path d="M245.074 91.5364H246.859V89.766H245.074V91.5364Z" fill="white"/>
<path d="M258.535 99.1504H260.321V97.38H258.535V99.1504Z" fill="white"/>
<path d="M251.81 99.1504H253.595V97.38H251.81V99.1504Z" fill="white"/>
<path d="M245.074 99.1504H246.859V97.38H245.074V99.1504Z" fill="white"/>
<path d="M258.535 106.775H260.321V105.004H258.535V106.775Z" fill="white"/>
<path d="M251.81 106.775H253.595V105.004H251.81V106.775Z" fill="white"/>
<path d="M245.074 106.775H246.859V105.004H245.074V106.775Z" fill="white"/>
<path d="M152.526 137.996H169.521V99.1588H152.526V137.996Z" fill="#CE6F79"/>
<path d="M165.231 104.509H166.524V103.227H165.231V104.509Z" fill="white"/>
<path d="M160.377 104.509H161.67V103.227H160.377V104.509Z" fill="white"/>
<path d="M155.522 104.509H156.815V103.227H155.522V104.509Z" fill="white"/>
<path d="M165.231 109.995H166.524V108.713H165.231V109.995Z" fill="white"/>
<path d="M160.377 109.995H161.67V108.713H160.377V109.995Z" fill="white"/>
<path d="M155.522 109.995H156.815V108.713H155.522V109.995Z" fill="white"/>
<path d="M165.231 115.485H166.524V114.203H165.231V115.485Z" fill="white"/>
<path d="M160.377 115.485H161.67V114.203H160.377V115.485Z" fill="white"/>
<path d="M155.522 115.485H156.815V114.203H155.522V115.485Z" fill="white"/>
<path d="M215.451 137.996H228.135V97.9277H215.451V137.996Z" fill="#CE6F79"/>
<path d="M223.705 103.443H225.039V102.12H223.705V103.443Z" fill="white"/>
<path d="M218.697 103.443H220.031V102.12H218.697V103.443Z" fill="white"/>
<path d="M223.705 109.105H225.039V107.783H223.705V109.105Z" fill="white"/>
<path d="M218.697 109.105H220.031V107.783H218.697V109.105Z" fill="white"/>
<path d="M223.705 114.768H225.039V113.445H223.705V114.768Z" fill="white"/>
<path d="M218.697 114.768H220.031V113.445H218.697V114.768Z" fill="white"/>
<path d="M197.977 89.7639H217.157V72.0801H197.977V89.7639Z" fill="#F2939E"/>
<path d="M194.262 137.996H220.862V89.7675H194.262V137.996Z" fill="#FFAEB7"/>
<path d="M213.067 96.7117H214.75V94.9412H213.067V96.7117Z" fill="white"/>
<path d="M206.721 96.7117H208.404V94.9412H206.721V96.7117Z" fill="white"/>
<path d="M200.384 96.7117H202.067V94.9412H200.384V96.7117Z" fill="white"/>
<path d="M213.067 104.326H214.75V102.555H213.067V104.326Z" fill="white"/>
<path d="M206.721 104.326H208.404V102.555H206.721V104.326Z" fill="white"/>
<path d="M200.384 104.326H202.067V102.555H200.384V104.326Z" fill="white"/>
<path d="M213.067 111.95H214.75V110.18H213.067V111.95Z" fill="white"/>
<path d="M206.721 111.95H208.404V110.18H206.721V111.95Z" fill="white"/>
<path d="M200.384 111.95H202.067V110.18H200.384V111.95Z" fill="white"/>
<path d="M209.889 78.3342H211.572V76.5638H209.889V78.3342Z" fill="white"/>
<path d="M203.552 78.3342H205.235V76.5638H203.552V78.3342Z" fill="white"/>
<path d="M209.889 85.9585H211.572V84.1881H209.889V85.9585Z" fill="white"/>
<path d="M203.552 85.9585H205.235V84.1881H203.552V85.9585Z" fill="white"/>
<path d="M166.859 137.989H190.442V82.1295H166.859V137.989Z" fill="#F2939E"/>
<path d="M171.918 82.136H185.383V67.5758H171.918V82.136Z" fill="#FFAEB7"/>
<path d="M184.494 91.5366H186.279V89.7662H184.494V91.5366Z" fill="white"/>
<path d="M177.758 91.5366H179.543V89.7662H177.758V91.5366Z" fill="white"/>
<path d="M171.022 91.5366H172.807V89.7662H171.022V91.5366Z" fill="white"/>
<path d="M184.494 99.1506H186.279V97.3802H184.494V99.1506Z" fill="white"/>
<path d="M177.758 99.1506H179.543V97.3802H177.758V99.1506Z" fill="white"/>
<path d="M171.022 99.1506H172.807V97.3802H171.022V99.1506Z" fill="white"/>
<path d="M184.494 106.775H186.279V105.005H184.494V106.775Z" fill="white"/>
<path d="M177.758 106.775H179.543V105.005H177.758V106.775Z" fill="white"/>
<path d="M171.022 106.775H172.807V105.005H171.022V106.775Z" fill="white"/>
<path d="M180.488 72.5464H181.822V71.1423H180.488V72.5464Z" fill="white"/>
<path d="M175.479 72.5464H176.813V71.1423H175.479V72.5464Z" fill="white"/>
<path d="M180.488 78.5708H181.822V77.1667H180.488V78.5708Z" fill="white"/>
<path d="M175.479 78.5708H176.813V77.1667H175.479V78.5708Z" fill="white"/>
<path d="M196.823 97.9228L184.139 91.533V137.991H196.823V97.9228Z" fill="#CE6F79"/>
<path d="M192.387 103.446H193.721V102.124H192.387V103.446Z" fill="white"/>
<path d="M187.379 103.446H188.713V102.124H187.379V103.446Z" fill="white"/>
<path d="M192.387 109.109H193.721V107.786H192.387V109.109Z" fill="white"/>
<path d="M187.379 109.109H188.713V107.786H187.379V109.109Z" fill="white"/>
<path d="M192.387 114.771H193.721V113.449H192.387V114.771Z" fill="white"/>
<path d="M187.379 114.771H188.713V113.449H187.379V114.771Z" fill="white"/>
<path d="M164.213 137.993H172.556V123.657H164.213V137.993Z" fill="#FFAEB7"/>
<path d="M167.727 128.545H169.041V127.161H167.727V128.545Z" fill="white"/>
<path d="M167.727 134.478H169.041V133.094H167.727V134.478Z" fill="white"/>
<path d="M54.6677 137.996H74.9565L74.9565 49.4345H54.6677L54.6677 137.996Z" fill="#FFAEB7"/>
<path d="M59.5531 58.5764H26.0975V137.991H59.5531V58.5764Z" fill="#F2939E"/>
<path d="M35.4773 65.5142H33.2299V67.7424H35.4773V65.5142Z" fill="white"/>
<path d="M43.9439 65.5142H41.6964V67.7424H43.9439V65.5142Z" fill="white"/>
<path d="M52.4206 65.5142H50.1731V67.7424H52.4206V65.5142Z" fill="white"/>
<path d="M35.4773 75.0903H33.2299V77.3186H35.4773V75.0903Z" fill="white"/>
<path d="M43.9439 75.0903H41.6964V77.3186H43.9439V75.0903Z" fill="white"/>
<path d="M52.4206 75.0903H50.1731V77.3186H52.4206V75.0903Z" fill="white"/>
<path d="M35.4773 84.6731H33.2299V86.9014H35.4773V84.6731Z" fill="white"/>
<path d="M43.9439 84.6731H41.6964V86.9014H43.9439V84.6731Z" fill="white"/>
<path d="M52.4206 84.6731H50.1731V86.9014H52.4206V84.6731Z" fill="white"/>
<path d="M90.9104 137.996H105.534L105.534 71.4121H90.9104L90.9104 137.996Z" fill="#FFAEB7"/>
<path d="M90.9019 137.989H147.828V77.3168H90.9019V137.989Z" fill="#FFAEB7"/>
<path d="M42.0453 70.2158H12.3868V137.99H42.0453V70.2158Z" fill="#EE6F7E"/>
<path d="M19.8682 77.3293H17.6207V79.5576H19.8682V77.3293Z" fill="white"/>
<path d="M28.345 77.3293H26.0975V79.5576H28.345V77.3293Z" fill="white"/>
<path d="M36.8114 77.3293H34.564V79.5576H36.8114V77.3293Z" fill="white"/>
<path d="M19.8682 86.9055H17.6207V89.1338H19.8682V86.9055Z" fill="white"/>
<path d="M28.345 86.9055H26.0975V89.1338H28.345V86.9055Z" fill="white"/>
<path d="M36.8114 86.9055H34.564V89.1338H36.8114V86.9055Z" fill="white"/>
<path d="M19.8682 96.4883H17.6207V98.7166H19.8682V96.4883Z" fill="white"/>
<path d="M28.345 96.4883H26.0975V98.7166H28.345V96.4883Z" fill="white"/>
<path d="M36.8114 96.4883H34.564V98.7166H36.8114V96.4883Z" fill="white"/>
<path d="M153.218 89.1414H131.842V138.001H153.218V89.1414Z" fill="#CE6F79"/>
<path d="M137.24 94.2593H135.618V95.8669H137.24V94.2593Z" fill="white"/>
<path d="M143.346 94.2593H141.724V95.8669H143.346V94.2593Z" fill="white"/>
<path d="M149.452 94.2593H147.831V95.8669H149.452V94.2593Z" fill="white"/>
<path d="M137.24 101.167H135.618V102.774H137.24V101.167Z" fill="white"/>
<path d="M143.346 101.167H141.724V102.774H143.346V101.167Z" fill="white"/>
<path d="M149.452 101.167H147.831V102.774H149.452V101.167Z" fill="white"/>
<path d="M137.24 108.077H135.618V109.685H137.24V108.077Z" fill="white"/>
<path d="M143.346 108.077H141.724V109.685H143.346V108.077Z" fill="white"/>
<path d="M149.452 108.077H147.831V109.685H149.452V108.077Z" fill="white"/>
<path d="M74.0744 87.5955H58.1163V138.002H74.0744V87.5955Z" fill="#CE6F79"/>
<path d="M63.6785 92.8757H62.0057V94.5342H63.6785V92.8757Z" fill="white"/>
<path d="M69.9797 92.8757H68.3069V94.5342H69.9797V92.8757Z" fill="white"/>
<path d="M63.6785 99.9995H62.0057V101.658H63.6785V99.9995Z" fill="white"/>
<path d="M69.9797 99.9995H68.3069V101.658H69.9797V99.9995Z" fill="white"/>
<path d="M63.6785 107.13H62.0057V108.788H63.6785V107.13Z" fill="white"/>
<path d="M69.9797 107.13H68.3069V108.788H69.9797V107.13Z" fill="white"/>
<path d="M96.0566 55.0754H71.9296V77.3176H96.0566V55.0754Z" fill="#F2939E"/>
<path d="M100.716 77.3262H67.2601V137.999H100.716V77.3262Z" fill="#FFAEB7"/>
<path d="M77.071 83.8376H74.9569V86.0659H77.071V83.8376Z" fill="white"/>
<path d="M85.0449 83.8376H82.9308V86.0659H85.0449V83.8376Z" fill="white"/>
<path d="M93.0189 83.8376H90.9048V86.0659H93.0189V83.8376Z" fill="white"/>
<path d="M77.071 93.4138H74.9569V95.6421H77.071V93.4138Z" fill="white"/>
<path d="M85.0449 93.4138H82.9308V95.6421H85.0449V93.4138Z" fill="white"/>
<path d="M93.0189 93.4138H90.9048V95.6421H93.0189V93.4138Z" fill="white"/>
<path d="M77.071 102.997H74.9569V105.225H77.071V102.997Z" fill="white"/>
<path d="M85.0449 102.997H82.9308V105.225H85.0449V102.997Z" fill="white"/>
<path d="M93.0189 102.997H90.9048V105.225H93.0189V102.997Z" fill="white"/>
<path d="M81.0632 60.7209H78.9491V62.9492H81.0632V60.7209Z" fill="white"/>
<path d="M89.037 60.7209H86.923V62.9492H89.037V60.7209Z" fill="white"/>
<path d="M81.0632 70.3071H78.9491V72.5354H81.0632V70.3071Z" fill="white"/>
<path d="M89.037 70.3071H86.923V72.5354H89.037V70.3071Z" fill="white"/>
<path d="M135.187 67.7329H105.529V137.99H135.187V67.7329Z" fill="#F2939E"/>
<path d="M128.835 49.4197H111.891V67.7344H128.835V49.4197Z" fill="#FFAEB7"/>
<path d="M113.01 77.3293H110.763V79.5576H113.01V77.3293Z" fill="white"/>
<path d="M121.487 77.3293H119.24V79.5576H121.487V77.3293Z" fill="white"/>
<path d="M129.954 77.3293H127.706V79.5576H129.954V77.3293Z" fill="white"/>
<path d="M113.01 86.9055H110.763V89.1338H113.01V86.9055Z" fill="white"/>
<path d="M121.487 86.9055H119.24V89.1338H121.487V86.9055Z" fill="white"/>
<path d="M129.954 86.9055H127.706V89.1338H129.954V86.9055Z" fill="white"/>
<path d="M113.01 96.4883H110.763V98.7166H113.01V96.4883Z" fill="white"/>
<path d="M121.487 96.4883H119.24V98.7166H121.487V96.4883Z" fill="white"/>
<path d="M129.954 96.4883H127.706V98.7166H129.954V96.4883Z" fill="white"/>
<path d="M118.049 53.9185H116.376V55.6787H118.049V53.9185Z" fill="white"/>
<path d="M124.35 53.9185H122.677V55.6787H124.35V53.9185Z" fill="white"/>
<path d="M118.049 61.4885H116.376V63.2488H118.049V61.4885Z" fill="white"/>
<path d="M124.35 61.4888H122.677V63.249H124.35V61.4888Z" fill="white"/>
<path d="M97.5035 87.5967L113.462 79.5586V137.993H97.5035V87.5967Z" fill="#CE6F79"/>
<path d="M103.076 92.8757H101.403V94.5342H103.076V92.8757Z" fill="white"/>
<path d="M109.367 92.8757H107.694V94.5342H109.367V92.8757Z" fill="white"/>
<path d="M103.076 99.9995H101.403V101.658H103.076V99.9995Z" fill="white"/>
<path d="M109.367 99.9995H107.694V101.658H109.367V99.9995Z" fill="white"/>
<path d="M103.076 107.13H101.403V108.788H103.076V107.13Z" fill="white"/>
<path d="M109.367 107.13H107.694V108.788H109.367V107.13Z" fill="white"/>
<path d="M138.523 119.96H128.024V137.99H138.523V119.96Z" fill="#FFAEB7"/>
<path d="M134.099 124.375H132.447V126.114H134.099V124.375Z" fill="white"/>
<path d="M134.099 131.833H132.447V133.573H134.099V131.833Z" fill="white"/>
<path d="M360.006 137.685H0V239H360.006V137.685Z" fill="url(#paint0_linear_1_5222)"/>
<path d="M348.412 170.368H325.017V174.509H348.412V170.368Z" fill="white"/>
<path d="M311.751 170.368H288.356V174.509H311.751V170.368Z" fill="white"/>
<path d="M288.356 170.368V174.509H300.255C304.435 173.235 306.767 171.801 306.767 170.368H288.356Z" fill="white"/>
<path d="M275.01 170.368H251.615V174.509H275.01V170.368Z" fill="white"/>
<path d="M238.35 170.368H214.954V174.509H238.35V170.368Z" fill="white"/>
<path d="M201.689 170.368H178.293V174.509H201.689V170.368Z" fill="white"/>
<path d="M164.948 170.368H141.552V174.509H164.948V170.368Z" fill="white"/>
<path d="M128.287 170.368H104.891V174.509H128.287V170.368Z" fill="white"/>
<path d="M91.626 170.368H68.2306V174.509H91.626V170.368Z" fill="white"/>
<path d="M79.4057 174.509H91.6259V170.368H72.8936C72.8936 171.801 75.2251 173.155 79.4057 174.509Z" fill="white"/>
<path d="M54.8847 170.368H31.4893V174.509H54.8847V170.368Z" fill="white"/>
<path d="M18.2239 170.367H-5.17151V174.509H18.2239V170.367Z" fill="white"/>
<path d="M235.195 134.726C234.599 134.574 234.815 133.342 234.292 132.559C233.758 131.765 232.567 129.618 225.774 129.089C224.029 128.957 222.285 128.815 220.55 128.672C219.709 128.611 219.421 128.194 218.806 127.726C217.872 127.014 216.886 126.363 215.87 125.772C213.151 124.175 210.103 123.168 206.932 122.934C206.029 122.873 205.126 122.862 204.212 122.873C203.597 122.883 202.981 122.903 202.365 122.913C199.081 123.005 195.027 123.117 192.144 124.887C188.624 127.054 187.741 127.584 186.038 127.736C184.334 127.889 182.343 128.499 182.21 129.537C182.179 129.761 182.148 130.015 182.117 130.28C182.015 131.124 181.912 132.071 181.881 132.294C181.881 132.325 181.871 132.345 181.871 132.345C181.871 132.345 181.224 132.956 181.224 133.79C181.224 134.624 181.738 138.705 187.864 138.898C187.864 138.094 187.864 138.898 187.864 138.898C187.864 138.898 188.223 138.745 188.778 138.542C189.137 140.506 190.871 141.991 192.954 141.991C195.11 141.991 196.885 140.404 197.162 138.348C197.634 138.501 198.004 138.674 198.178 138.898H222.592C222.592 138.898 222.89 138.796 223.413 138.664C223.762 140.638 225.497 142.144 227.59 142.144C229.694 142.144 231.439 140.628 231.777 138.644C232.065 138.715 232.352 138.806 232.639 138.898H234.825C234.825 138.898 235.554 138.481 235.554 137.097C235.574 135.734 235.79 134.879 235.195 134.726Z" fill="#AD1426"/>
<path d="M309.545 134.726C308.95 134.574 309.166 133.342 308.642 132.559C308.109 131.765 306.918 129.618 300.125 129.089C298.38 128.957 296.635 128.815 294.901 128.672C294.059 128.611 293.772 128.194 293.156 127.726C292.222 127.014 291.237 126.363 290.221 125.772C287.502 124.175 284.454 123.168 281.283 122.934C280.38 122.873 279.477 122.862 278.563 122.873C277.947 122.883 277.332 122.903 276.716 122.913C273.432 123.005 269.378 123.117 266.495 124.887C262.975 127.054 262.092 127.584 260.388 127.736C258.685 127.889 256.694 128.499 256.56 129.537C256.53 129.761 256.499 130.015 256.468 130.28C256.366 131.124 256.263 132.071 256.232 132.294C256.232 132.325 256.222 132.345 256.222 132.345C256.222 132.345 255.575 132.956 255.575 133.79C255.575 134.624 256.088 138.705 262.215 138.898C262.215 138.094 262.215 138.898 262.215 138.898C262.215 138.898 262.574 138.745 263.128 138.542C263.488 140.506 265.222 141.991 267.305 141.991C269.46 141.991 271.236 140.404 271.513 138.348C271.985 138.501 272.354 138.674 272.529 138.898H296.953C296.953 138.898 297.251 138.796 297.774 138.664C298.123 140.638 299.858 142.144 301.951 142.144C304.055 142.144 305.8 140.628 306.138 138.644C306.426 138.715 306.713 138.806 307 138.898H309.186C309.186 138.898 309.915 138.481 309.915 137.097C309.925 135.734 310.141 134.879 309.545 134.726Z" fill="#AD1426"/>
<path d="M379.618 134.726C379.023 134.574 379.239 133.342 378.715 132.559C378.182 131.765 376.991 129.618 370.198 129.089C368.453 128.957 366.708 128.815 364.974 128.672C364.132 128.611 363.845 128.194 363.229 127.726C362.295 127.014 361.31 126.363 360.294 125.772C357.575 124.175 354.527 123.168 351.356 122.934C350.453 122.873 349.55 122.862 348.636 122.873C348.02 122.883 347.405 122.903 346.789 122.913C343.505 123.005 339.451 123.117 336.568 124.887C333.048 127.054 332.165 127.584 330.461 127.736C328.758 127.889 326.767 128.499 326.633 129.537C326.603 129.761 326.572 130.015 326.541 130.28C326.439 131.124 326.336 132.071 326.305 132.294C326.305 132.325 326.295 132.345 326.295 132.345C326.295 132.345 325.648 132.956 325.648 133.79C325.648 134.624 326.161 138.705 332.288 138.898C332.288 138.094 332.288 138.898 332.288 138.898C332.288 138.898 332.647 138.745 333.201 138.542C333.561 140.506 335.295 141.991 337.378 141.991C339.533 141.991 341.309 140.404 341.586 138.348C342.058 138.501 342.427 138.674 342.602 138.898H367.026C367.026 138.898 367.324 138.796 367.847 138.664C368.196 140.638 369.931 142.144 372.024 142.144C374.128 142.144 375.873 140.628 376.211 138.644C376.499 138.715 376.786 138.806 377.073 138.898H379.259C379.259 138.898 379.988 138.481 379.988 137.097C379.998 135.734 380.214 134.879 379.618 134.726Z" fill="#AD1426"/>
<path d="M164.404 134.726C163.809 134.574 164.025 133.342 163.501 132.559C162.968 131.765 161.777 129.618 154.983 129.089C153.239 128.957 151.494 128.815 149.76 128.672C148.918 128.611 148.631 128.194 148.015 127.726C147.081 127.014 146.096 126.363 145.08 125.772C142.361 124.175 139.313 123.168 136.142 122.934C135.239 122.873 134.335 122.862 133.422 122.873C132.806 122.883 132.191 122.903 131.575 122.913C128.291 123.005 124.237 123.117 121.353 124.887C117.833 127.054 116.951 127.584 115.247 127.736C113.544 127.889 111.553 128.499 111.419 129.537C111.389 129.761 111.358 130.015 111.327 130.28C111.224 131.124 111.122 132.071 111.091 132.294C111.091 132.325 111.081 132.345 111.081 132.345C111.081 132.345 110.434 132.956 110.434 133.79C110.434 134.624 110.947 138.705 117.074 138.898C117.074 138.094 117.074 138.898 117.074 138.898C117.074 138.898 117.433 138.745 117.987 138.542C118.347 140.506 120.081 141.991 122.164 141.991C124.319 141.991 126.095 140.404 126.372 138.348C126.844 138.501 127.213 138.674 127.388 138.898H151.802C151.802 138.898 152.1 138.796 152.623 138.664C152.972 140.638 154.706 142.144 156.8 142.144C158.904 142.144 160.648 140.628 160.987 138.644C161.274 138.715 161.562 138.806 161.849 138.898H164.035C164.035 138.898 164.764 138.481 164.764 137.097C164.774 135.734 165 134.879 164.404 134.726Z" fill="#AD1426"/>
<path d="M68.82 134.726C68.2248 134.574 68.4403 133.342 67.9169 132.559C67.3833 131.765 66.1928 129.618 59.3991 129.089C57.6545 128.957 55.9099 128.815 54.1755 128.672C53.334 128.611 53.0467 128.194 52.4309 127.726C51.497 127.014 50.5118 126.363 49.4958 125.772C46.7763 124.175 43.7284 123.168 40.5573 122.934C39.6542 122.873 38.7511 122.862 37.8377 122.873C37.222 122.883 36.6062 122.903 35.9905 122.913C32.7065 123.005 28.6528 123.117 25.7691 124.887C22.2491 127.054 21.3665 127.584 19.6629 127.736C17.9594 127.889 15.9685 128.499 15.835 129.537C15.8043 129.761 15.7735 130.015 15.7427 130.28C15.6401 131.124 15.5374 132.071 15.5067 132.294C15.5067 132.325 15.4964 132.345 15.4964 132.345C15.4964 132.345 14.8499 132.956 14.8499 133.79C14.8499 134.624 15.363 138.705 21.4897 138.898C21.4897 138.898 21.8488 138.745 22.403 138.542C22.7622 140.506 24.4965 141.991 26.5798 141.991C28.7349 141.991 30.5103 140.404 30.7874 138.348C31.2595 138.501 31.6289 138.674 31.8034 138.898H56.2177C56.2177 138.898 56.5154 138.796 57.0387 138.664C57.3877 140.638 59.122 142.144 61.2155 142.144C63.3193 142.144 65.064 140.628 65.4026 138.644C65.69 138.715 65.9773 138.806 66.2647 138.898H68.4506C68.4506 138.898 69.1792 138.481 69.1792 137.097C69.1895 135.734 69.4152 134.879 68.82 134.726Z" fill="#AD1426"/>
<path d="M59.0193 135.72C58.7422 135.72 58.4754 135.568 58.3419 135.313C56.1868 131.081 55.0887 126.512 55.0887 121.73C55.0887 121.13 55.1093 120.519 55.1401 119.909C55.1606 119.502 55.5198 119.186 55.9405 119.207C56.351 119.227 56.6692 119.583 56.6486 120C56.6178 120.57 56.5973 121.15 56.5973 121.73C56.5973 126.268 57.6338 130.613 59.6863 134.642C59.871 135.008 59.7274 135.456 59.3579 135.639C59.245 135.69 59.1321 135.72 59.0193 135.72Z" fill="white"/>
<path d="M85.5374 151.92C77.8303 151.92 70.4722 149.06 64.8278 143.861C64.52 143.576 64.5097 143.108 64.7868 142.803C65.0741 142.498 65.5462 142.488 65.8541 142.762C71.2213 147.697 78.21 150.424 85.5374 150.424C90.6481 150.424 95.6665 149.091 100.059 146.557C104.318 144.105 107.91 140.585 110.424 136.383C110.639 136.027 111.101 135.915 111.46 136.118C111.82 136.332 111.932 136.79 111.727 137.146C109.079 141.562 105.303 145.265 100.818 147.85C96.2001 150.505 90.9149 151.92 85.5374 151.92Z" fill="white"/>
<path d="M114.919 126.736C114.888 126.736 114.847 126.736 114.806 126.726C114.395 126.665 114.108 126.289 114.17 125.882C114.365 124.518 114.467 123.124 114.467 121.73C114.467 118.312 113.872 114.974 112.692 111.8C112.548 111.413 112.743 110.986 113.133 110.843C113.523 110.701 113.954 110.894 114.098 111.281C115.34 114.618 115.966 118.139 115.966 121.73C115.966 123.196 115.863 124.661 115.647 126.095C115.617 126.462 115.288 126.736 114.919 126.736Z" fill="white"/>
<path d="M109.131 104.595C108.905 104.595 108.679 104.493 108.536 104.3C107.509 102.977 106.37 101.736 105.128 100.606C104.821 100.332 104.8 99.8534 105.087 99.5482C105.365 99.2429 105.847 99.2226 106.155 99.5075C107.458 100.698 108.659 102 109.736 103.394C109.993 103.72 109.931 104.188 109.593 104.442C109.449 104.544 109.285 104.595 109.131 104.595Z" fill="white"/>
<path d="M68.7378 98.1973C68.5018 98.1973 68.2657 98.0854 68.1221 97.8717C67.886 97.5359 67.9784 97.0679 68.317 96.8339C73.3969 93.3744 79.3492 91.543 85.5374 91.543C91.6333 91.543 97.5239 93.3236 102.563 96.7016C102.912 96.9356 102.994 97.3935 102.768 97.7394C102.532 98.0854 102.07 98.1668 101.721 97.9429C96.939 94.7379 91.3357 93.0387 85.5374 93.0387C79.657 93.0387 73.9922 94.7786 69.1688 98.065C69.0354 98.1566 68.8917 98.1973 68.7378 98.1973Z" fill="white"/>
<path d="M58.4652 110.365C58.3625 110.365 58.2599 110.344 58.1573 110.293C57.7776 110.12 57.6134 109.683 57.7776 109.306C59.2964 105.979 61.39 102.978 64.0069 100.383C64.3045 100.088 64.7766 100.088 65.0742 100.383C65.3718 100.678 65.3718 101.146 65.0742 101.441C62.5907 103.904 60.5997 106.763 59.1527 109.927C59.0296 110.202 58.7525 110.365 58.4652 110.365Z" fill="white"/>
<path d="M117.987 98.1971C117.762 98.1971 117.536 98.0953 117.382 97.902C113.236 92.4686 107.725 88.1545 101.444 85.448C101.065 85.2852 100.89 84.8477 101.054 84.4611C101.219 84.0846 101.66 83.9116 102.05 84.0744C108.566 86.8928 114.283 91.3596 118.583 96.9964C118.829 97.322 118.767 97.7901 118.439 98.0444C118.305 98.1462 118.152 98.1971 117.987 98.1971Z" fill="white"/>
<path d="M76.0447 83.2794C75.706 83.2794 75.3981 83.0454 75.316 82.7096C75.2237 82.3128 75.47 81.9058 75.8702 81.8142C79.0208 81.0715 82.274 80.6848 85.5374 80.6848C88.8009 80.6848 92.0541 81.0613 95.2046 81.8142C95.6049 81.9058 95.8614 82.3128 95.7588 82.7096C95.6664 83.1064 95.2559 83.3608 94.8557 83.259C91.818 82.5366 88.688 82.1703 85.5374 82.1703C82.3868 82.1703 79.2568 82.5366 76.2191 83.259C76.1575 83.2692 76.1062 83.2794 76.0447 83.2794Z" fill="white"/>
<path d="M55.7251 94.3189C55.4172 94.0442 54.9349 94.0747 54.6578 94.38C52.4822 96.7914 50.6041 99.447 49.0648 102.276C47.6588 104.86 46.53 107.607 45.7192 110.426C45.6063 110.822 45.8321 111.24 46.2323 111.352C46.3042 111.372 46.376 111.382 46.4376 111.382C46.766 111.382 47.0636 111.168 47.156 110.843C47.9359 108.126 49.0237 105.481 50.3784 102.988C51.8664 100.261 53.6829 97.697 55.7661 95.3771C56.0638 95.0617 56.033 94.5937 55.7251 94.3189Z" fill="white"/>
<path d="M46.1092 132.352C45.7705 132.352 45.4627 132.128 45.3806 131.793C44.5493 128.526 44.1285 125.138 44.1285 121.74C44.1285 119.461 44.3235 117.171 44.693 114.943C44.7648 114.536 45.1445 114.261 45.555 114.333C45.9655 114.404 46.2426 114.78 46.1708 115.187C45.8116 117.334 45.6269 119.542 45.6269 121.74C45.6269 125.016 46.0374 128.282 46.8378 131.436C46.9404 131.833 46.6942 132.24 46.2939 132.342C46.2323 132.342 46.1708 132.352 46.1092 132.352Z" fill="white"/>
<path d="M51.6817 144.798C51.4354 144.798 51.1993 144.686 51.0557 144.462C49.5573 142.234 48.2745 139.853 47.2483 137.391C47.0944 137.014 47.2688 136.577 47.6588 136.414C48.0385 136.261 48.4798 136.434 48.644 136.821C49.6292 139.202 50.8709 141.491 52.3077 143.638C52.5335 143.984 52.4411 144.442 52.1024 144.676C51.969 144.757 51.8253 144.798 51.6817 144.798Z" fill="white"/>
<path d="M65.341 157.465C65.2179 157.465 65.0845 157.435 64.9716 157.364C60.6203 154.891 56.7924 151.686 53.5905 147.84C53.3237 147.525 53.375 147.056 53.6932 146.792C54.0113 146.527 54.4834 146.578 54.7502 146.894C57.8392 150.597 61.5234 153.69 65.7207 156.071C66.0799 156.275 66.2031 156.733 65.9978 157.089C65.8541 157.333 65.6078 157.465 65.341 157.465Z" fill="white"/>
<path d="M78.1177 162.115C78.0766 162.115 78.0253 162.115 77.9843 162.105C74.885 161.535 71.8576 160.619 68.9738 159.368C68.5941 159.205 68.4197 158.767 68.5839 158.381C68.7481 158.004 69.1893 157.831 69.5793 157.994C72.3604 159.195 75.275 160.08 78.2613 160.629C78.6718 160.701 78.9387 161.097 78.8668 161.494C78.795 161.861 78.4768 162.115 78.1177 162.115Z" fill="white"/>
<path d="M85.5375 162.787C84.4189 162.787 83.2797 162.746 82.1714 162.655C81.7609 162.624 81.453 162.258 81.4838 161.851C81.5146 161.444 81.884 161.139 82.2945 161.169C83.3721 161.251 84.4599 161.302 85.5477 161.302C91.1715 161.302 96.6004 160.162 101.701 157.924C106.627 155.756 110.999 152.673 114.693 148.756C114.98 148.451 115.452 148.441 115.76 148.726C116.068 149.01 116.078 149.479 115.791 149.784C111.953 153.844 107.417 157.049 102.317 159.297C97.0109 161.607 91.3665 162.787 85.5375 162.787Z" fill="white"/>
<path d="M118.89 145.53C118.747 145.53 118.593 145.489 118.459 145.397C118.121 145.163 118.039 144.695 118.275 144.36C119.711 142.314 120.963 140.127 121.99 137.858C122.164 137.481 122.605 137.308 122.985 137.481C123.365 137.654 123.539 138.092 123.365 138.468C122.308 140.829 121.004 143.098 119.516 145.214C119.362 145.418 119.126 145.53 118.89 145.53Z" fill="white"/>
<path d="M124.36 134.46C124.288 134.46 124.206 134.45 124.134 134.429C123.734 134.307 123.519 133.89 123.642 133.493C124.832 129.698 125.438 125.74 125.438 121.731C125.438 119.788 125.294 117.844 125.017 115.932C124.955 115.525 125.243 115.148 125.653 115.087C126.064 115.026 126.444 115.311 126.505 115.718C126.803 117.692 126.946 119.717 126.946 121.731C126.946 125.893 126.32 130.003 125.089 133.941C124.986 134.256 124.689 134.46 124.36 134.46Z" fill="white"/>
<path d="M124.627 111.384C124.299 111.384 124.001 111.17 123.909 110.844C123.129 108.128 122.041 105.482 120.686 102.99C120.491 102.623 120.625 102.176 120.994 101.982C121.364 101.789 121.815 101.921 122.01 102.287C123.416 104.872 124.545 107.619 125.356 110.448C125.469 110.844 125.243 111.262 124.843 111.374C124.771 111.374 124.699 111.384 124.627 111.384Z" fill="white"/>
<path d="M120.163 157.454C118.931 157.454 117.926 156.457 117.926 155.236C117.926 154.015 118.931 153.018 120.163 153.018C121.394 153.018 122.4 154.015 122.4 155.236C122.41 156.457 121.405 157.454 120.163 157.454ZM120.163 154.198C119.588 154.198 119.116 154.666 119.116 155.236C119.116 155.806 119.588 156.274 120.163 156.274C120.738 156.274 121.21 155.806 121.21 155.236C121.22 154.666 120.748 154.198 120.163 154.198Z" fill="white"/>
<path d="M129.132 146.372H128.116V145.365C128.116 145.039 127.85 144.775 127.521 144.775C127.193 144.775 126.926 145.039 126.926 145.365V146.372H125.91C125.582 146.372 125.315 146.637 125.315 146.962C125.315 147.288 125.582 147.552 125.91 147.552H126.926V148.56C126.926 148.885 127.193 149.15 127.521 149.15C127.85 149.15 128.116 148.885 128.116 148.56V147.552H129.132C129.461 147.552 129.728 147.288 129.728 146.962C129.717 146.637 129.45 146.372 129.132 146.372Z" fill="white"/>
<path d="M119.455 91.8072C119.846 91.8072 120.163 91.4929 120.163 91.1051C120.163 90.7174 119.846 90.4031 119.455 90.4031C119.064 90.4031 118.747 90.7174 118.747 91.1051C118.747 91.4929 119.064 91.8072 119.455 91.8072Z" fill="white"/>
<path d="M46.7762 144.348L46.0578 145.06L45.3395 144.348C45.1034 144.114 44.734 144.114 44.4979 144.348C44.2619 144.582 44.2619 144.948 44.4979 145.182L45.2163 145.895L44.4979 146.607C44.2619 146.841 44.2619 147.207 44.4979 147.441C44.734 147.675 45.1034 147.675 45.3395 147.441L46.0578 146.729L46.7762 147.441C47.0122 147.675 47.3817 147.675 47.6177 147.441C47.8538 147.207 47.8538 146.841 47.6177 146.607L46.8994 145.895L47.6177 145.182C47.8538 144.948 47.8538 144.582 47.6177 144.348C47.3817 144.124 47.0122 144.124 46.7762 144.348Z" fill="white"/>
<path opacity="0.13" d="M149.471 175.953H54.4613C53.2298 175.953 52.2344 174.956 52.2344 173.746C52.2344 172.525 53.2401 171.538 54.4613 171.538H149.461C150.692 171.538 151.688 172.535 151.688 173.746C151.698 174.956 150.692 175.953 149.471 175.953Z" fill="#041316"/>
<path d="M69.1982 108.446L75.797 108.965L69.1982 108.446Z" fill="#CA7F48"/>
<path d="M88.5429 109.973L82.878 109.525C83.4117 109.566 83.7709 110.044 83.6785 110.583L80.0867 129.925C79.984 130.465 79.4606 130.872 78.927 130.821L84.5919 131.268C85.1255 131.309 85.6489 130.902 85.7515 130.373L89.3434 111.031C89.4357 110.492 89.0868 110.013 88.5429 109.973Z" fill="#CA7F48"/>
<path d="M80.0764 129.924L83.6683 110.582C83.7709 110.043 83.4117 109.564 82.8678 109.524L75.7867 108.964L69.188 108.445C68.6543 108.404 68.1309 108.811 68.0283 109.341L64.4364 128.683C64.3338 129.222 64.693 129.7 65.2369 129.741L72.277 130.301L78.9168 130.83C79.4504 130.87 79.9738 130.464 80.0764 129.924Z" fill="#FEC57F"/>
<path d="M76.9395 112.309L73.4443 111.876L74.3181 108.845L77.7683 109.109L76.9395 112.309Z" fill="url(#paint1_linear_1_5222)"/>
<path d="M107.61 98.5958C107.056 99.4709 104.162 102.625 104.162 102.625L102.921 98.5958L105.486 97.2629L107.61 98.5958Z" fill="#FFE0B3"/>
<path d="M118.222 115.995C118.222 115.995 120.88 114.978 121.875 114.785C122.871 114.601 125.221 115.721 125.334 116.056C125.447 116.392 125.744 116.881 125.016 116.789C124.287 116.697 123.476 116.005 122.943 116.219C122.409 116.443 121.567 116.423 121.567 116.423L120.746 117.583L118.407 118.315L118.222 115.995Z" fill="#FFE0B3"/>
<path d="M104.121 113.817C104.829 113.329 118.612 115.526 118.612 115.526L118.663 118.253L107.159 120.308L100.991 120.715L104.121 113.817Z" fill="#AD1426"/>
<path d="M101.751 99.837C101.966 99.4199 102.931 98.5957 102.931 98.5957C102.931 98.5957 105.63 102.666 105.537 102.879C105.445 103.083 105.086 104.263 105.086 104.263L101.751 99.837Z" fill="#AD1426"/>
<path d="M105.24 99.5522C105.24 99.5522 111.859 103.093 114.353 93.6304L108.288 90.9341L105.24 99.5522Z" fill="#FFE0B3"/>
<path d="M87.6295 126.424C87.6295 126.424 85.3512 135.011 90.6261 137.321C95.901 139.631 110.874 140.882 110.874 140.882L108.052 157.05L112.013 157.955C112.013 157.955 120.716 142.418 118.088 137.036C115.451 131.654 103.516 128.774 103.516 128.774L103.639 125.304L87.6295 126.424Z" fill="#072023"/>
<path d="M108.462 100.203C108.462 100.203 106.882 99.6234 106.82 98.5957L106.112 99.4097C106.112 99.4097 106.718 100.163 107.436 100.193C108.165 100.214 108.462 100.203 108.462 100.203Z" fill="#604822"/>
<path d="M147.501 162.054C147.07 166.511 143.067 170.153 138.572 170.194C134.077 170.235 130.783 166.653 131.214 162.197C131.645 157.74 135.647 154.097 140.142 154.057C144.648 154.016 147.942 157.598 147.501 162.054Z" fill="#041316"/>
<path d="M142.39 162.257C142.4 162.206 142.4 162.155 142.41 162.105C142.421 161.952 142.431 161.799 142.421 161.647L147.306 158.961C147.306 158.961 146.166 156.081 144.258 155.318L140.748 159.307C140.625 159.256 140.502 159.215 140.368 159.184L140.153 154.077C140.153 154.077 136.889 154.321 135.268 155.857L137.32 160.1C137.197 160.222 137.084 160.355 136.982 160.487L132.281 158.757C132.281 158.757 130.66 161.708 131.142 163.712L136.52 163.499C136.612 163.712 136.725 163.916 136.869 164.099L133.513 168.24C133.513 168.24 135.822 170.265 137.967 170.133L139.681 165.086C139.947 165.035 140.204 164.943 140.45 164.831L143.847 168.332C143.847 168.332 146.464 166.144 146.864 164.038L142.39 162.257Z" fill="#AD1426"/>
<path d="M140.225 153.255C135.278 153.296 130.886 157.305 130.403 162.199C129.931 167.103 133.554 171.041 138.5 171C143.447 170.959 147.839 166.951 148.322 162.056C148.794 157.152 145.171 153.214 140.225 153.255ZM138.634 169.555C134.488 169.586 131.46 166.289 131.861 162.189C132.261 158.088 135.945 154.731 140.081 154.7C144.227 154.67 147.254 157.966 146.854 162.067C146.464 166.167 142.78 169.525 138.634 169.555Z" fill="white"/>
<path d="M140.522 150.15C133.841 150.211 127.91 155.614 127.273 162.228C126.627 168.841 131.522 174.153 138.193 174.102C144.873 174.041 150.805 168.638 151.441 162.024C152.088 155.411 147.203 150.089 140.522 150.15ZM138.542 170.571C133.831 170.612 130.383 166.857 130.834 162.197C131.286 157.527 135.473 153.722 140.184 153.681C144.894 153.64 148.342 157.395 147.891 162.055C147.429 166.715 143.242 170.53 138.542 170.571Z" fill="#041316"/>
<path d="M77.593 161.699C77.1619 166.155 73.1596 169.798 68.6646 169.839C64.1697 169.879 60.8754 166.298 61.3065 161.841C61.7375 157.385 65.7398 153.742 70.2348 153.702C74.74 153.661 78.0342 157.242 77.593 161.699Z" fill="#041316"/>
<path d="M72.4822 161.902C72.4924 161.851 72.4924 161.8 72.5027 161.75C72.513 161.597 72.5232 161.444 72.5129 161.292L77.3979 158.606C77.3979 158.606 76.2587 155.726 74.3499 154.963L70.8402 158.952C70.717 158.901 70.5939 158.86 70.4605 158.829L70.245 153.722C70.245 153.722 66.9815 153.966 65.36 155.502L67.4125 159.745C67.2894 159.867 67.1765 160 67.0739 160.132L62.3737 158.402C62.3737 158.402 60.7522 161.353 61.2345 163.357L66.612 163.144C66.7044 163.357 66.8173 163.561 66.961 163.744L63.6052 167.885C63.6052 167.885 65.9142 169.91 68.059 169.778L69.7729 164.731C70.0397 164.68 70.2963 164.588 70.5426 164.476L73.9394 167.977C73.9394 167.977 76.5563 165.789 76.9566 163.683L72.4822 161.902Z" fill="#AD1426"/>
<path d="M70.3167 152.897C65.3702 152.937 60.9779 156.946 60.4956 161.84C60.0235 166.744 63.6462 170.682 68.5927 170.641C73.5391 170.601 77.9315 166.592 78.4138 161.698C78.8859 156.794 75.2632 152.856 70.3167 152.897ZM68.7261 169.197C64.58 169.227 61.5526 165.931 61.9529 161.83C62.3531 157.73 66.0373 154.372 70.1731 154.341C74.3191 154.311 77.3465 157.608 76.9463 161.708C76.5563 165.808 72.8721 169.156 68.7261 169.197Z" fill="white"/>
<path d="M70.6144 149.795C63.9335 149.856 58.0018 155.259 57.3656 161.872C56.719 168.486 61.6142 173.797 68.2848 173.746C74.9657 173.685 80.8973 168.283 81.5336 161.669C82.1802 155.055 77.2952 149.734 70.6144 149.795ZM68.6337 170.216C63.9233 170.257 60.4751 166.502 60.9266 161.842C61.3782 157.182 65.5653 153.366 70.2757 153.326C74.9862 153.285 78.4344 157.039 77.9828 161.699C77.5313 166.36 73.3442 170.175 68.6337 170.216Z" fill="#041316"/>
<path d="M67.5357 152.744C67.5357 152.744 64.8469 155.44 65.7397 157.943C66.6326 160.446 82.2212 163.57 83.3604 163.56C84.4892 163.55 92.1245 162.125 92.1245 162.125L92.9352 158.778L89.4049 154.749L67.5357 152.744Z" fill="#041316"/>
<path d="M59.2949 148.076C59.2949 148.076 57.6221 146.672 57.9608 145.959C58.2995 145.247 61.7579 141.32 61.7579 141.32C61.7579 141.32 63.1536 140.292 64.2619 140.546C65.3703 140.801 65.3703 140.801 65.3703 140.801L59.2949 148.076Z" fill="#0C3C49"/>
<path d="M88.9021 159.218C88.7071 161.253 86.8701 162.922 84.8176 162.942C82.7549 162.962 81.2463 161.324 81.4516 159.279C81.6465 157.244 83.4835 155.575 85.536 155.555C87.5885 155.545 89.0971 157.183 88.9021 159.218Z" fill="#0F4149"/>
<path d="M86.9523 159.237C86.8599 160.213 85.9876 161.007 85.0024 161.007C84.0172 161.017 83.2989 160.234 83.4015 159.267C83.4938 158.29 84.3662 157.497 85.3513 157.497C86.3263 157.487 87.0447 158.26 86.9523 159.237Z" fill="#041316"/>
<path d="M123.168 114.345C122.768 114.721 121.136 116.553 120.11 117.143C119.084 117.743 117.319 118.059 116.877 118.822C116.426 119.585 116.015 122.139 116.867 122.291C117.719 122.444 118.396 124.306 118.396 124.306C118.396 124.306 119.176 127.104 120.285 126.911C121.393 126.717 125.303 124.255 125.303 124.255L125.406 123.238L129.151 122.454C129.151 122.454 127.345 114.996 126.442 114.304L123.168 114.345Z" fill="white"/>
<path d="M120.921 131.723C120.962 131.886 121.588 134.053 121.567 136.414C121.557 138.774 120.613 143.434 120.89 145.612C121.167 147.789 121.721 147.575 121.26 149.03C120.798 150.475 119.515 152.856 117.924 153.538C116.334 154.219 116.826 154.871 111.048 154.311C105.271 153.751 104.686 152.642 104.686 152.642C104.686 152.642 102.336 149.549 103.311 147.301C104.285 145.052 105.476 143.393 104.686 142.325C103.895 141.267 90.308 137.482 90.308 137.482L87.4038 141.257C87.4038 141.257 85.3513 153.517 86.0902 154.749C86.8291 155.98 90.4825 159.419 90.4825 159.419C90.4825 159.419 92.0732 160.416 93.1302 160.467C94.1872 160.518 100.098 160.833 100.098 160.833L120.326 159.541L124.082 155.501L125.252 154.179C125.252 154.179 130.332 147.606 130.968 144.452C131.594 141.297 131.399 139.486 130.249 136.871C129.1 134.267 125.518 127.297 125.518 127.297L121.814 127.755L120.921 131.723Z" fill="white"/>
<path d="M124.882 158.097C124.882 158.097 127.007 159.765 129.316 157.608C131.625 155.451 133.051 151.381 139.568 151.381C146.095 151.381 150.836 151.402 150.436 149.937C150.035 148.482 147.059 141.98 142.02 141.176C136.982 140.372 134.847 141.237 134.847 141.237L124.882 158.097Z" fill="white"/>
<path d="M73.8574 135.824C72.9235 136.058 71.9896 136.343 71.066 136.689C68.9314 137.482 66.7045 138.52 65.1343 140.28C62.6816 143.028 60.6086 146.049 58.6177 149.102C57.6838 150.526 56.7807 151.961 55.7647 153.335C55.2311 154.057 53.5275 155.634 54.174 156.54C54.7385 157.333 55.6416 156.418 57.1091 155.176C58.5766 153.935 61.1217 151.564 61.1217 151.564L83.4425 138.663L94.9262 138.195C88.5122 135.427 81.1335 134.002 73.8574 135.824Z" fill="white"/>
<path d="M47.216 153.711C47.2057 153.711 47.1955 153.722 47.1853 153.722C47.1955 153.732 47.1955 153.752 47.2057 153.762C47.216 153.752 47.2262 153.742 47.2364 153.732C47.2262 153.732 47.2262 153.722 47.216 153.711Z" fill="#037F38"/>
<path d="M75.8791 156.704C75.4686 156.521 75.0581 156.368 74.6168 156.246C72.5541 155.646 70.3066 155.076 68.0386 155.615C64.6212 156.429 61.9838 159.156 61.7375 160.509C61.5014 161.863 63.9541 163.592 65.0522 164.081C66.1503 164.569 71.5997 166.553 77.4185 166.258C83.2373 165.963 85.2487 165.515 86.9933 164.935C88.7379 164.355 88.5532 164.03 89.9592 164.02C91.3651 164.009 92.4529 163.531 92.4529 163.531L90.9238 161.181C90.9238 161.181 88.5737 162.463 86.1005 162.025C84.3046 161.71 82.6215 160.621 81.0924 159.787C79.3581 158.81 77.7366 157.528 75.8791 156.704Z" fill="#0A2B33"/>
<path d="M127.591 122.751C128.72 124.124 129.839 125.498 130.957 126.872C132.753 129.079 134.508 131.318 136.253 133.556C137.248 134.838 138.039 136.283 138.849 137.677C139.198 138.288 139.609 138.929 139.732 139.661C139.835 140.262 139.752 141.137 139.096 141.493C138.593 141.767 138.018 141.625 137.515 141.879C136.951 142.154 136.458 142.704 136.037 143.151C135.617 143.599 135.237 144.077 134.857 144.566C134.673 144.81 134.508 145.125 134.283 145.329C134.108 145.491 125.785 158.373 125.785 158.373C125.785 158.373 122.429 163.531 117.401 164.264C112.372 164.997 94.454 165.739 93.2943 165.007C92.1244 164.274 90.154 161.527 90.3182 160.469C90.4927 159.421 92.8018 159.502 92.8018 159.502L115.913 159.034L124.266 151.332L129.593 140.343C129.593 140.343 125.724 131.562 125.559 131.196C125.395 130.819 123.856 125.549 123.856 125.549L126.329 123.29L127.591 122.751Z" fill="white"/>
<path d="M63.872 158.911C64.3749 158.484 64.9393 158.097 65.5243 157.782C66.8995 157.039 68.5312 157.232 69.9371 157.405C72.9543 157.771 75.5815 158.982 78.1984 160.274C78.9168 160.63 81.0616 161.383 80.0764 162.584C79.0502 163.836 76.9772 164.354 75.5302 164.344C73.2519 164.334 67.115 163.205 65.8219 162.32C64.5288 161.455 62.3019 160.458 63.872 158.911Z" fill="#AD1426"/>
<path d="M126.422 114.325C126.422 114.325 128.484 114.732 129.624 117.398C130.763 120.053 129.131 122.475 129.131 122.475L126.422 114.325Z" fill="url(#paint2_linear_1_5222)"/>
<path d="M73.6931 130.432C73.6931 130.432 71.2199 130.402 70.6965 131.898C70.1731 133.393 69.1879 136.822 71.6407 136.853C74.5449 136.893 77.4902 136.619 80.3945 136.568C88.625 136.415 95.5214 140.485 103.075 142.51C104.809 142.978 106.964 143.008 107.847 141.665C110.053 138.318 108.473 134.635 105.332 133.312C101.001 131.491 95.8292 131.826 91.0675 131.664C85.2486 131.48 79.553 130.504 73.6931 130.432Z" fill="#082228"/>
<path d="M104.244 152.888C104.48 152.552 104.942 152.471 105.23 152.705C105.794 153.173 106.954 153.814 109.088 154.028C112.362 154.353 115.697 155.005 118.13 153.346C118.396 153.163 118.735 153.173 118.951 153.366C119.217 153.611 119.197 154.048 118.899 154.323C118.324 154.852 117.267 155.605 115.82 155.788C113.665 156.053 105.661 156.47 103.731 154.475C103.526 154.272 103.526 153.926 103.711 153.672L104.244 152.888Z" fill="url(#paint3_linear_1_5222)"/>
<path d="M94.4131 160.083C94.4952 160.063 94.5875 160.053 94.6799 160.053C100.293 160.022 105.897 160.002 111.51 159.971C113.121 159.961 114.753 159.951 116.364 159.625C117.976 159.3 119.597 158.638 120.839 157.488C121.609 156.776 122.111 155.922 122.727 155.108C123.22 154.456 124.03 154.212 124.81 154.212C124.975 154.212 125.17 154.243 125.231 154.395C125.272 154.507 125.211 154.65 125.149 154.772C124.574 155.881 123.877 156.939 123.097 157.936C122.183 159.086 121.095 160.175 119.761 160.775C118.222 161.457 116.539 161.416 114.928 161.365C108.175 161.141 101.412 160.917 94.6594 160.683C94.4131 160.673 94.0949 160.571 94.1462 160.337C94.1565 160.185 94.2694 160.114 94.4131 160.083Z" fill="url(#paint4_linear_1_5222)"/>
<path d="M119.915 127.747C119.813 127.34 120.028 126.892 120.428 126.668C121.988 125.824 125.703 123.84 126.083 123.84C126.565 123.84 125.57 124.695 125.662 125.926C125.755 127.157 125.498 126.465 125.867 127.523C126.237 128.581 123.702 127.808 123.764 128.876C123.825 129.945 124.318 132.071 124.318 132.071C124.318 132.071 124.718 132.977 123.712 133.302C122.707 133.628 121.342 133.323 121.342 133.323L119.915 127.747Z" fill="url(#paint5_linear_1_5222)"/>
<path d="M117.093 119.422C117.309 119.422 117.699 118.781 118.93 118.822C120.162 118.863 122.45 119.219 122.614 119.697C122.778 120.175 121.968 120.928 120.829 121.264C119.689 121.6 118.848 121.925 118.109 121.762C117.37 121.61 117.268 121.559 116.888 121.559C116.508 121.559 115.03 121.834 115.03 121.834C115.03 121.834 114.066 121.742 114.24 121.101C114.415 120.46 114.62 119.972 115.502 119.809C116.364 119.636 117.093 119.422 117.093 119.422Z" fill="#082228"/>
<path d="M122.429 110.886C122.932 112.616 122.604 114.295 121.711 114.62C120.818 114.956 119.689 113.816 119.187 112.087C118.684 110.357 119.012 108.678 119.905 108.353C120.808 108.017 121.937 109.146 122.429 110.886Z" fill="#0E4F66"/>
<path d="M119.238 110.641C119.813 111.516 120.367 112.401 120.9 113.296C121.311 113.978 121.711 114.66 122.081 115.362C122.245 115.667 122.296 116.094 122.542 116.349C122.84 116.644 123.292 116.654 123.292 116.064C123.292 115.423 119.874 110.061 119.874 110.061C119.874 110.061 119.156 109.898 119.238 110.641Z" fill="#0E4F66"/>
<path d="M116.395 161.912C112.434 161.942 90.8314 160.864 90.6159 160.853C90.4209 160.843 90.2875 160.68 90.3183 160.487C90.349 160.294 90.5338 160.151 90.7185 160.161C90.934 160.172 112.516 161.26 116.457 161.22C120.12 161.189 122.111 158.574 122.224 158.432C122.388 158.177 125.672 153.1 127.119 151.045C128.453 149.163 130.763 145.184 130.947 142.233C131.122 139.415 129.428 135.956 129.408 135.925C129.377 135.864 126.37 129.779 125.611 128.304C124.831 126.778 124.995 125.598 125.282 124.55C125.416 124.051 125.847 123.318 127.109 122.637C127.284 122.545 127.499 122.596 127.571 122.759C127.653 122.922 127.571 123.135 127.396 123.237C126.38 123.787 126.052 124.316 125.96 124.662C125.724 125.516 125.529 126.544 126.247 127.948C126.996 129.423 130.013 135.518 130.044 135.579C130.116 135.722 131.83 139.222 131.645 142.213C131.563 143.577 131.06 145.245 130.157 147.158C129.48 148.603 128.577 150.149 127.684 151.411C126.206 153.487 122.83 158.727 122.799 158.778C122.799 158.788 122.789 158.788 122.789 158.798C122.707 158.91 120.531 161.881 116.395 161.912Z" fill="#F2939E"/>
<path d="M87.373 137.209C76.6795 135.266 68.1719 140.089 66.0373 141.554C64.3646 142.704 60.3827 147.649 58.751 149.725C58.3508 150.223 58.3816 150.905 58.8126 151.302C59.336 151.78 60.0338 152.37 60.7111 152.553C61.8708 152.869 84.0582 156.308 86.4596 156.603C88.861 156.898 94.5567 153.754 95.5111 150.549C96.4655 147.323 98.0664 139.153 87.373 137.209Z" fill="#F0F0F0"/>
<path d="M68.7364 143.395C68.5927 143.496 68.6953 143.7 68.8595 143.618C71.6201 142.153 77.1721 139.833 83.032 140.871C86.9933 141.573 89.5691 144.361 89.6102 148.411C89.6204 148.919 89.5589 149.428 89.5589 149.937C89.5897 149.479 89.8257 149.062 89.9181 148.614C90.0412 148.044 90.1233 147.475 90.1233 146.905C90.113 143.863 88.5429 141.543 85.7002 140.657C83.2372 139.884 80.4458 139.864 77.7776 140.21C74.6989 140.607 71.4662 141.594 68.7364 143.395Z" fill="#EE6F7E"/>
<path d="M111.716 119.506C111.716 119.506 114.374 118.489 115.369 118.296C116.364 118.112 118.715 119.232 118.827 119.567C118.94 119.903 119.238 120.392 118.509 120.3C117.781 120.208 116.97 119.516 116.436 119.73C115.903 119.954 115.061 119.934 115.061 119.934L114.24 121.094L111.9 121.826L111.716 119.506Z" fill="#FFE0B3"/>
<path d="M106.543 155.484L105.62 159.086L107.487 158.72L109.499 155.393L106.543 155.484Z" fill="#FFE0B3"/>
<path d="M87.5064 123.85C87.5064 123.85 84.6329 132.326 89.6923 135.012C94.7517 137.698 109.489 139.998 109.489 139.998L105.538 156.053L109.396 157.244C109.396 157.244 119.125 142.236 116.898 136.65C114.671 131.054 103.054 127.33 103.054 127.33L103.423 123.85H87.5064Z" fill="#0D383F"/>
<path d="M111.941 122.578L111.654 118.651C111.654 118.651 108.319 118.478 104.645 118.01L105.086 104.253C104.583 103.358 104.08 102.463 103.577 101.567C102.818 100.214 102.592 98.6573 100.704 99.8172C96.4244 102.432 91.3753 105.332 88.6557 109.697C86.2748 113.523 83.0832 119.851 86.203 122.69L85.3923 125.356C85.3923 125.356 84.4789 126.557 88.6249 126.943C92.771 127.33 104.655 126.943 104.655 126.943L104.583 124.227C108.739 123.453 111.941 122.578 111.941 122.578Z" fill="#E52138"/>
<path d="M110.628 85.501C110.412 85.4094 110.197 85.328 109.981 85.2568C106.656 84.1986 102.284 85.2568 100.201 88.5839C96.9787 93.7426 99.6469 98.3212 101.648 99.7457C102.5 100.356 103.547 100.784 104.634 100.916C106.985 101.18 108.945 92.7658 109.324 92.9184C109.324 92.9184 116.293 95.6046 116.252 94.5464C116.118 90.7817 114.158 86.9865 110.628 85.501Z" fill="#AD1426"/>
<path d="M105.086 157.426C105.086 157.426 102.818 160.519 104.244 160.702C105.671 160.885 112.413 161.017 112.413 161.017C112.413 161.017 113.398 160.397 112.352 159.979C111.295 159.562 108.637 158.728 108.637 158.728L108.975 158.107L105.086 157.426Z" fill="#072026"/>
<path d="M110.032 89.8849C110.638 89.773 111.182 89.9969 111.705 90.1902C112.885 90.6277 114.137 90.9024 115.318 91.3501C115.513 91.4213 115.708 91.5027 115.841 91.6655C116.005 91.8792 116.016 92.1743 116.057 92.449C116.128 92.9679 116.354 93.4461 116.693 93.8226C116.949 94.1075 117.298 94.3822 117.309 94.779C117.309 94.8503 117.298 94.9317 117.247 95.0029C117.175 95.1046 117.031 95.125 116.919 95.125C116.385 95.1555 115.872 95.0537 115.369 94.9418C114.425 94.718 113.522 94.4229 112.608 94.1278C111.5 93.7717 110.402 93.4156 109.294 93.0595C109.181 93.029 109.068 92.9883 108.986 92.9069C108.883 92.8051 108.842 92.6627 108.811 92.5202C108.698 91.8792 108.832 91.167 109.191 90.5666C109.324 90.353 109.478 90.1393 109.704 90.0172C109.796 89.946 109.909 89.9155 110.032 89.8849Z" fill="white"/>
<path d="M110.679 91.493C110.658 91.6761 110.494 91.8288 110.299 91.8288C110.104 91.8288 109.971 91.6761 109.991 91.493C110.012 91.3098 110.176 91.1572 110.371 91.1572C110.566 91.1572 110.699 91.2997 110.679 91.493Z" fill="#FF2449"/>
<path d="M65.2709 48.3911C64.587 48.3911 64.0273 48.7574 64.0273 49.2051V49.3068C64.0273 49.7545 64.587 50.1208 65.2709 50.1208C65.9549 50.1208 66.5145 49.7545 66.5145 49.3068V49.2051C66.5145 48.7574 65.9549 48.3911 65.2709 48.3911Z" fill="#E52138"/>
<path d="M65.2709 44.3015C64.587 44.3015 64.0273 44.6678 64.0273 45.1155V45.2172C64.0273 45.6649 64.587 46.0312 65.2709 46.0312C65.9549 46.0312 66.5145 45.6649 66.5145 45.2172V45.1155C66.5145 44.6576 65.9549 44.3015 65.2709 44.3015Z" fill="#E52138"/>
<path d="M65.2709 52.491C64.587 52.491 64.0273 52.8573 64.0273 53.305V53.4067C64.0273 53.8544 64.587 54.2207 65.2709 54.2207C65.9549 54.2207 66.5145 53.8544 66.5145 53.4067V53.305C66.5145 52.8573 65.9549 52.491 65.2709 52.491Z" fill="#E52138"/>
<path d="M65.2709 40.2019C64.587 40.2019 64.0273 40.5682 64.0273 41.0159V41.1176C64.0273 41.5653 64.587 41.9316 65.2709 41.9316C65.9549 41.9316 66.5145 41.5653 66.5145 41.1176V41.0159C66.5145 40.5682 65.9549 40.2019 65.2709 40.2019Z" fill="#E52138"/>
<path d="M65.2709 56.594C64.587 56.594 64.0273 56.9603 64.0273 57.408V57.5097C64.0273 57.9574 64.587 58.3237 65.2709 58.3237C65.9549 58.3237 66.5145 57.9574 66.5145 57.5097V57.408C66.5145 56.9603 65.9549 56.594 65.2709 56.594Z" fill="#E52138"/>
<path d="M65.2709 31.9993C64.587 31.9993 64.0273 32.3656 64.0273 32.8133V32.915C64.0273 33.3627 64.587 33.729 65.2709 33.729C65.9549 33.729 66.5145 33.3627 66.5145 32.915V32.8133C66.5145 32.3656 65.9549 31.9993 65.2709 31.9993Z" fill="#E52138"/>
<path d="M65.2709 36.0989C64.587 36.0989 64.0273 36.4652 64.0273 36.9129V37.0146C64.0273 37.4623 64.587 37.8286 65.2709 37.8286C65.9549 37.8286 66.5145 37.4623 66.5145 37.0146V36.9129C66.5145 36.4652 65.9549 36.0989 65.2709 36.0989Z" fill="#E52138"/>
<path d="M65.2709 64.7932C64.587 64.7932 64.0273 65.1595 64.0273 65.6072V65.7089C64.0273 66.1566 64.587 66.5229 65.2709 66.5229C65.9549 66.5229 66.5145 66.1566 66.5145 65.7089V65.6072C66.5145 65.1595 65.9549 64.7932 65.2709 64.7932Z" fill="#E52138"/>
<path d="M65.2709 72.9827C64.587 72.9827 64.0273 73.349 64.0273 73.7967V73.8984C64.0273 74.3461 64.587 74.7124 65.2709 74.7124C65.9549 74.7124 66.5145 74.3461 66.5145 73.8984V73.7967C66.5145 73.349 65.9549 72.9827 65.2709 72.9827Z" fill="#E52138"/>
<path d="M65.2709 60.6936C64.587 60.6936 64.0273 61.0599 64.0273 61.5076V61.6093C64.0273 62.057 64.587 62.4233 65.2709 62.4233C65.9549 62.4233 66.5145 62.057 66.5145 61.6093V61.5076C66.5145 61.0599 65.9549 60.6936 65.2709 60.6936Z" fill="#E52138"/>
<path d="M65.2709 68.8931C64.587 68.8931 64.0273 69.2594 64.0273 69.7071V69.8088C64.0273 70.2565 64.587 70.6228 65.2709 70.6228C65.9549 70.6228 66.5145 70.2565 66.5145 69.8088V69.7071C66.5145 69.2492 65.9549 68.8931 65.2709 68.8931Z" fill="#E52138"/>
<path d="M65.3487 27.9502H65.2709C64.587 27.9502 64.0273 28.3165 64.0273 28.7642V28.8151C64.0273 29.2627 64.587 29.629 65.2709 29.629C65.6285 29.629 65.9549 29.5273 66.1881 29.3645C66.4368 29.2119 66.5922 28.9982 66.5922 28.7642C66.5922 28.3165 66.0326 27.9502 65.3487 27.9502Z" fill="#E52138"/>
<path d="M142.575 27.9502H142.42C141.736 27.9502 141.176 28.3165 141.176 28.7642C141.176 29.2119 141.736 29.5782 142.42 29.5782H142.575C143.259 29.5782 143.819 29.2119 143.819 28.7642C143.819 28.3165 143.259 27.9502 142.575 27.9502Z" fill="#E52138"/>
<path d="M136.14 27.9502H135.984C135.3 27.9502 134.741 28.3165 134.741 28.7642C134.741 29.2119 135.3 29.5782 135.984 29.5782H136.14C136.824 29.5782 137.383 29.2119 137.383 28.7642C137.383 28.3165 136.824 27.9502 136.14 27.9502Z" fill="#E52138"/>
<path d="M149.011 27.9502H148.855C148.171 27.9502 147.612 28.3165 147.612 28.7642C147.612 29.2119 148.171 29.5782 148.855 29.5782H149.011C149.695 29.5782 150.254 29.2119 150.254 28.7642C150.254 28.3165 149.695 27.9502 149.011 27.9502Z" fill="#E52138"/>
<path d="M181.189 27.9502H181.033C180.349 27.9502 179.79 28.3165 179.79 28.7642C179.79 29.2119 180.349 29.5782 181.033 29.5782H181.189C181.873 29.5782 182.432 29.2119 182.432 28.7642C182.432 28.3165 181.873 27.9502 181.189 27.9502Z" fill="#E52138"/>
<path d="M168.318 27.9502H168.162C167.478 27.9502 166.919 28.3165 166.919 28.7642C166.919 29.2119 167.478 29.5782 168.162 29.5782H168.318C169.002 29.5782 169.561 29.2119 169.561 28.7642C169.561 28.3165 169.002 27.9502 168.318 27.9502Z" fill="#E52138"/>
<path d="M174.753 27.9502H174.598C173.914 27.9502 173.354 28.3165 173.354 28.7642C173.354 29.2119 173.914 29.5782 174.598 29.5782H174.753C175.437 29.5782 175.997 29.2119 175.997 28.7642C175.997 28.3165 175.437 27.9502 174.753 27.9502Z" fill="#E52138"/>
<path d="M155.447 27.9502H155.291C154.607 27.9502 154.047 28.3165 154.047 28.7642C154.047 29.2119 154.607 29.5782 155.291 29.5782H155.447C156.13 29.5782 156.69 29.2119 156.69 28.7642C156.69 28.3165 156.13 27.9502 155.447 27.9502Z" fill="#E52138"/>
<path d="M129.704 27.9502H129.549C128.865 27.9502 128.305 28.3165 128.305 28.7642C128.305 29.2119 128.865 29.5782 129.549 29.5782H129.704C130.388 29.5782 130.948 29.2119 130.948 28.7642C130.948 28.3165 130.388 27.9502 129.704 27.9502Z" fill="#E52138"/>
<path d="M161.882 27.9502H161.726C161.043 27.9502 160.483 28.3165 160.483 28.7642C160.483 29.2119 161.043 29.5782 161.726 29.5782H161.882C162.566 29.5782 163.126 29.2119 163.126 28.7642C163.126 28.3165 162.566 27.9502 161.882 27.9502Z" fill="#E52138"/>
<path d="M84.6554 27.9502H84.4999C83.816 27.9502 83.2563 28.3165 83.2563 28.7642C83.2563 29.2119 83.816 29.5782 84.4999 29.5782H84.6554C85.3394 29.5782 85.899 29.2119 85.899 28.7642C85.899 28.3165 85.3394 27.9502 84.6554 27.9502Z" fill="#E52138"/>
<path d="M97.5265 27.9502H97.371C96.6871 27.9502 96.1274 28.3165 96.1274 28.7642C96.1274 29.2119 96.6871 29.5782 97.371 29.5782H97.5265C98.2104 29.5782 98.7701 29.2119 98.7701 28.7642C98.7701 28.3165 98.2104 27.9502 97.5265 27.9502Z" fill="#E52138"/>
<path d="M123.269 27.9502H123.113C122.429 27.9502 121.87 28.3165 121.87 28.7642C121.87 29.2119 122.429 29.5782 123.113 29.5782H123.269C123.953 29.5782 124.512 29.2119 124.512 28.7642C124.512 28.3165 123.953 27.9502 123.269 27.9502Z" fill="#E52138"/>
<path d="M78.2197 27.9502H78.0643C77.3803 27.9502 76.8207 28.3165 76.8207 28.7642C76.8207 29.2119 77.3803 29.5782 78.0643 29.5782H78.2197C78.9037 29.5782 79.4633 29.2119 79.4633 28.7642C79.4633 28.3165 78.9037 27.9502 78.2197 27.9502Z" fill="#E52138"/>
<path d="M71.7843 27.9502H71.6288C70.9449 27.9502 70.3853 28.3165 70.3853 28.7642C70.3853 29.2119 70.9449 29.5782 71.6288 29.5782H71.7843C72.4683 29.5782 73.0279 29.2119 73.0279 28.7642C73.0279 28.3165 72.4683 27.9502 71.7843 27.9502Z" fill="#E52138"/>
<path d="M91.0908 27.9502H90.9354C90.2514 27.9502 89.6918 28.3165 89.6918 28.7642C89.6918 29.2119 90.2514 29.5782 90.9354 29.5782H91.0908C91.7748 29.5782 92.3344 29.2119 92.3344 28.7642C92.3344 28.3165 91.7748 27.9502 91.0908 27.9502Z" fill="#E52138"/>
<path d="M103.962 27.9502H103.807C103.123 27.9502 102.563 28.3165 102.563 28.7642C102.563 29.2119 103.123 29.5782 103.807 29.5782H103.962C104.646 29.5782 105.206 29.2119 105.206 28.7642C105.206 28.3165 104.646 27.9502 103.962 27.9502Z" fill="#E52138"/>
<path d="M116.833 27.9502H116.678C115.994 27.9502 115.434 28.3165 115.434 28.7642C115.434 29.2119 115.994 29.5782 116.678 29.5782H116.833C117.517 29.5782 118.077 29.2119 118.077 28.7642C118.077 28.3165 117.517 27.9502 116.833 27.9502Z" fill="#E52138"/>
<path d="M110.397 27.9502H110.242C109.558 27.9502 108.998 28.3165 108.998 28.7642C108.998 29.2119 109.558 29.5782 110.242 29.5782H110.397C111.081 29.5782 111.641 29.2119 111.641 28.7642C111.641 28.3165 111.081 27.9502 110.397 27.9502Z" fill="#E52138"/>
<path d="M226.238 27.9502H226.082C225.398 27.9502 224.839 28.3165 224.839 28.7642C224.839 29.2119 225.398 29.5782 226.082 29.5782H226.238C226.922 29.5782 227.481 29.2119 227.481 28.7642C227.481 28.3165 226.922 27.9502 226.238 27.9502Z" fill="#E52138"/>
<path d="M322.771 27.9502H322.616C321.932 27.9502 321.372 28.3165 321.372 28.7642C321.372 29.2119 321.932 29.5782 322.616 29.5782H322.771C323.455 29.5782 324.015 29.2119 324.015 28.7642C324.015 28.3165 323.455 27.9502 322.771 27.9502Z" fill="#E52138"/>
<path d="M316.335 27.9502H316.18C315.496 27.9502 314.936 28.3165 314.936 28.7642C314.936 29.2119 315.496 29.5782 316.18 29.5782H316.335C317.019 29.5782 317.579 29.2119 317.579 28.7642C317.579 28.3165 317.019 27.9502 316.335 27.9502Z" fill="#E52138"/>
<path d="M329.206 27.9502H329.051C328.367 27.9502 327.807 28.3165 327.807 28.7642C327.807 29.2119 328.367 29.5782 329.051 29.5782H329.206C329.89 29.5782 330.45 29.2119 330.45 28.7642C330.45 28.3165 329.89 27.9502 329.206 27.9502Z" fill="#E52138"/>
<path d="M303.464 27.9502H303.309C302.625 27.9502 302.065 28.3165 302.065 28.7642C302.065 29.2119 302.625 29.5782 303.309 29.5782H303.464C304.148 29.5782 304.708 29.2119 304.708 28.7642C304.708 28.3165 304.148 27.9502 303.464 27.9502Z" fill="#E52138"/>
<path d="M290.593 27.9502H290.438C289.754 27.9502 289.194 28.3165 289.194 28.7642C289.194 29.2119 289.754 29.5782 290.438 29.5782H290.593C291.277 29.5782 291.837 29.2119 291.837 28.7642C291.837 28.3165 291.277 27.9502 290.593 27.9502Z" fill="#E52138"/>
<path d="M309.9 27.9502H309.744C309.06 27.9502 308.501 28.3165 308.501 28.7642C308.501 29.2119 309.06 29.5782 309.744 29.5782H309.9C310.584 29.5782 311.143 29.2119 311.143 28.7642C311.143 28.3165 310.584 27.9502 309.9 27.9502Z" fill="#E52138"/>
<path d="M335.642 27.9502H335.487C334.803 27.9502 334.243 28.3165 334.243 28.7642C334.243 29.2119 334.803 29.5782 335.487 29.5782H335.642C336.326 29.5782 336.886 29.2119 336.886 28.7642C336.886 28.3165 336.326 27.9502 335.642 27.9502Z" fill="#E52138"/>
<path d="M297.029 27.9502H296.873C296.189 27.9502 295.63 28.3165 295.63 28.7642C295.63 29.2119 296.189 29.5782 296.873 29.5782H297.029C297.713 29.5782 298.272 29.2119 298.272 28.7642C298.272 28.3165 297.713 27.9502 297.029 27.9502Z" fill="#E52138"/>
<path d="M342.078 27.9502H341.922C341.238 27.9502 340.678 28.3165 340.678 28.7642C340.678 29.2119 341.238 29.5782 341.922 29.5782H342.078C342.761 29.5782 343.321 29.2119 343.321 28.7642C343.321 28.3165 342.761 27.9502 342.078 27.9502Z" fill="#E52138"/>
<path d="M361.384 27.9502H361.229C360.545 27.9502 359.985 28.3165 359.985 28.7642C359.985 29.2119 360.545 29.5782 361.229 29.5782H361.384C362.068 29.5782 362.628 29.2119 362.628 28.7642C362.628 28.3165 362.068 27.9502 361.384 27.9502Z" fill="#E52138"/>
<path d="M348.513 27.9502H348.358C347.674 27.9502 347.114 28.3165 347.114 28.7642C347.114 29.2119 347.674 29.5782 348.358 29.5782H348.513C349.197 29.5782 349.757 29.2119 349.757 28.7642C349.757 28.3165 349.197 27.9502 348.513 27.9502Z" fill="#E52138"/>
<path d="M354.949 27.9502H354.793C354.109 27.9502 353.55 28.3165 353.55 28.7642C353.55 29.2119 354.109 29.5782 354.793 29.5782H354.949C355.633 29.5782 356.192 29.2119 356.192 28.7642C356.192 28.3165 355.633 27.9502 354.949 27.9502Z" fill="#E52138"/>
<path d="M264.851 27.9502H264.695C264.011 27.9502 263.452 28.3165 263.452 28.7642C263.452 29.2119 264.011 29.5782 264.695 29.5782H264.851C265.535 29.5782 266.094 29.2119 266.094 28.7642C266.094 28.3165 265.535 27.9502 264.851 27.9502Z" fill="#E52138"/>
<path d="M219.802 27.9502H219.647C218.963 27.9502 218.403 28.3165 218.403 28.7642C218.403 29.2119 218.963 29.5782 219.647 29.5782H219.802C220.486 29.5782 221.046 29.2119 221.046 28.7642C221.046 28.3165 220.486 27.9502 219.802 27.9502Z" fill="#E52138"/>
<path d="M284.158 27.9502H284.002C283.318 27.9502 282.759 28.3165 282.759 28.7642C282.759 29.2119 283.318 29.5782 284.002 29.5782H284.158C284.842 29.5782 285.401 29.2119 285.401 28.7642C285.401 28.3165 284.842 27.9502 284.158 27.9502Z" fill="#E52138"/>
<path d="M232.673 27.9502H232.518C231.834 27.9502 231.274 28.3165 231.274 28.7642C231.274 29.2119 231.834 29.5782 232.518 29.5782H232.673C233.357 29.5782 233.917 29.2119 233.917 28.7642C233.917 28.3165 233.357 27.9502 232.673 27.9502Z" fill="#E52138"/>
<path d="M200.495 27.9502H200.34C199.656 27.9502 199.096 28.3165 199.096 28.7642C199.096 29.2119 199.656 29.5782 200.34 29.5782H200.495C201.179 29.5782 201.739 29.2119 201.739 28.7642C201.739 28.3165 201.179 27.9502 200.495 27.9502Z" fill="#E52138"/>
<path d="M194.06 27.9502H193.904C193.22 27.9502 192.661 28.3165 192.661 28.7642C192.661 29.2119 193.22 29.5782 193.904 29.5782H194.06C194.744 29.5782 195.303 29.2119 195.303 28.7642C195.303 28.3165 194.744 27.9502 194.06 27.9502Z" fill="#E52138"/>
<path d="M239.109 27.9502H238.953C238.269 27.9502 237.71 28.3165 237.71 28.7642C237.71 29.2119 238.269 29.5782 238.953 29.5782H239.109C239.793 29.5782 240.352 29.2119 240.352 28.7642C240.352 28.3165 239.793 27.9502 239.109 27.9502Z" fill="#E52138"/>
<path d="M206.931 27.9502H206.775C206.091 27.9502 205.532 28.3165 205.532 28.7642C205.532 29.2119 206.091 29.5782 206.775 29.5782H206.931C207.615 29.5782 208.174 29.2119 208.174 28.7642C208.174 28.3165 207.615 27.9502 206.931 27.9502Z" fill="#E52138"/>
<path d="M213.366 27.9502H213.211C212.527 27.9502 211.967 28.3165 211.967 28.7642C211.967 29.2119 212.527 29.5782 213.211 29.5782H213.366C214.05 29.5782 214.61 29.2119 214.61 28.7642C214.61 28.3165 214.05 27.9502 213.366 27.9502Z" fill="#E52138"/>
<path d="M271.286 27.9502H271.131C270.447 27.9502 269.887 28.3165 269.887 28.7642C269.887 29.2119 270.447 29.5782 271.131 29.5782H271.286C271.97 29.5782 272.53 29.2119 272.53 28.7642C272.53 28.3165 271.97 27.9502 271.286 27.9502Z" fill="#E52138"/>
<path d="M277.722 27.9502H277.566C276.882 27.9502 276.323 28.3165 276.323 28.7642C276.323 29.2119 276.882 29.5782 277.566 29.5782H277.722C278.406 29.5782 278.965 29.2119 278.965 28.7642C278.965 28.3165 278.406 27.9502 277.722 27.9502Z" fill="#E52138"/>
<path d="M245.544 27.9502H245.389C244.705 27.9502 244.145 28.3165 244.145 28.7642C244.145 29.2119 244.705 29.5782 245.389 29.5782H245.544C246.228 29.5782 246.788 29.2119 246.788 28.7642C246.788 28.3165 246.228 27.9502 245.544 27.9502Z" fill="#E52138"/>
<path d="M187.624 27.9502H187.469C186.785 27.9502 186.225 28.3165 186.225 28.7642C186.225 29.2119 186.785 29.5782 187.469 29.5782H187.624C188.308 29.5782 188.868 29.2119 188.868 28.7642C188.868 28.3165 188.308 27.9502 187.624 27.9502Z" fill="#E52138"/>
<path d="M251.98 27.9502H251.824C251.14 27.9502 250.581 28.3165 250.581 28.7642C250.581 29.2119 251.14 29.5782 251.824 29.5782H251.98C252.664 29.5782 253.223 29.2119 253.223 28.7642C253.223 28.3165 252.664 27.9502 251.98 27.9502Z" fill="#E52138"/>
<path d="M258.415 27.9502H258.26C257.576 27.9502 257.016 28.3165 257.016 28.7642C257.016 29.2119 257.576 29.5782 258.26 29.5782H258.415C259.099 29.5782 259.659 29.2119 259.659 28.7642C259.659 28.3165 259.099 27.9502 258.415 27.9502Z" fill="#E52138"/>
<path d="M70.9135 84.1771C70.7699 81.0127 68.1427 78.53 64.9408 78.53C61.6466 78.53 58.9681 81.1857 58.9681 84.4518C58.9681 84.4823 58.9681 84.5128 58.9681 84.5535C58.9373 86.2324 59.4299 90.6177 64.5919 95.3388C64.8279 95.5525 65.1974 95.5525 65.4231 95.3185C66.7162 94.0059 67.958 92.612 68.9329 91.0451C69.7026 89.7936 70.3081 88.4403 70.6467 87.0158C70.8622 86.1001 70.9854 85.1233 70.9135 84.1771ZM64.7561 82.193C66.162 82.081 67.332 83.241 67.2191 84.6349C67.1267 85.7338 66.2339 86.619 65.1255 86.7106C63.7196 86.8225 62.5497 85.6626 62.6625 84.2686C62.7549 83.1697 63.6477 82.2744 64.7561 82.193Z" fill="#E52138"/>
<g clip-path="url(#clip1_1_5222)" filter="url(#filter0_d_1_5222)">
<path d="M81.6758 147.111H48.3223V185.984H81.6758V147.111Z" fill="url(#paint6_linear_1_5222)"/>
<path d="M73.754 147.111H40.4005V185.984H73.754V147.111Z" fill="url(#paint7_linear_1_5222)"/>
<path d="M65.916 160.065H35.671V185.895H65.916V160.065Z" fill="url(#paint8_linear_1_5222)"/>
<path d="M65.916 160.065L64.5995 159.41H37.3946L35.671 160.065H65.916Z" fill="#FFDD94"/>
<path opacity="0.8" d="M50.94 159.41L60.7452 187.561H45.3317V159.41H50.94Z" fill="#BE7240"/>
<path d="M80.93 165.709H49.0642V187.476H80.93V165.709Z" fill="url(#paint9_linear_1_5222)"/>
<path d="M46.1763 162.586H16.4526V186.55H46.1763V162.586Z" fill="url(#paint10_linear_1_5222)"/>
<path d="M16.4526 162.586L8.75916 161.753V184.574L16.4526 186.547V162.586Z" fill="url(#paint11_linear_1_5222)"/>
<path d="M8.75916 161.753L38.9128 161.864L46.1763 162.586H16.4526L8.75916 161.753Z" fill="#FFDD94"/>
<path d="M14.9154 162.016L26.6382 162.26V140.59L14.9154 140.283V162.016Z" fill="url(#paint12_linear_1_5222)"/>
<path d="M14.9154 140.283L26.6382 140.59L48.4744 140.372L15.0181 140.283H14.9154Z" fill="#FFDD94"/>
<path d="M61.1979 174.566H31.3145V193.105H61.1979V174.566Z" fill="url(#paint13_linear_1_5222)"/>
<path d="M31.3145 174.566H61.1979L60.0945 173.36H32.4103L31.3145 174.566Z" fill="#FFDD94"/>
<path d="M80.9301 187.476L88.555 185.77V164.988L80.9301 165.71V187.476Z" fill="url(#paint14_linear_1_5222)"/>
<path d="M88.555 164.988H57.4311L49.0642 165.71H80.93L88.555 164.988Z" fill="#FFDD94"/>
<path opacity="0.8" d="M51.7238 147.111L58.7552 159.41H48.2081V147.111H51.7238Z" fill="#BE7240"/>
<path d="M26.6383 140.59L48.4745 140.372V162.26H26.6383V140.59Z" fill="url(#paint15_linear_1_5222)"/>
<path opacity="0.8" d="M61.198 174.566L68.0277 187.561H61.198V174.566Z" fill="#BE7240"/>
<path opacity="0.8" d="M65.916 160.065L68.0277 164.988H65.916V160.065Z" fill="#BE7240"/>
<path opacity="0.8" d="M47.5498 174.566H43.7297V177.435H47.5498V174.566Z" fill="#BE7240"/>
<path opacity="0.8" d="M32.7071 162.586H28.887V165.454H32.7071V162.586Z" fill="#BE7240"/>
<path opacity="0.8" d="M47.546 174.566H43.7297L44.2396 173.36H47.0666L47.546 174.566Z" fill="#BE7240"/>
<path opacity="0.8" d="M28.8869 162.586L27.5552 162.26H31.2117L32.707 162.586H28.8869Z" fill="#BE7240"/>
<path d="M10.8899 161.982V164.681L12.4879 164.936V162.156L10.8899 161.982Z" fill="url(#paint16_linear_1_5222)"/>
<path d="M10.8899 161.982L18.0469 162.079L23.0845 162.167L12.4879 162.156L10.8899 161.982Z" fill="url(#paint17_linear_1_5222)"/>
<path d="M21.4027 142.803L18.9067 142.607V140.386L21.4027 140.453V142.803Z" fill="url(#paint18_linear_1_5222)"/>
<path opacity="0.8" d="M59.3222 147.111H55.6353V149.55H59.3222V147.111Z" fill="#BE7240"/>
<path opacity="0.8" d="M79.02 147.111H76.6267V149.55H79.02V147.111Z" fill="#BE7240"/>
</g>
</g>
<defs>
<filter id="filter0_d_1_5222" x="-3.24084" y="130.283" width="112.467" height="76.8225" filterUnits="userSpaceOnUse" color-interpolation-filters="sRGB">
<feFlood flood-opacity="0" result="BackgroundImageFix"/>
<feColorMatrix in="SourceAlpha" type="matrix" values="0 0 0 0 0 0 0 0 0 0 0 0 0 0 0 0 0 0 127 0" result="hardAlpha"/>
<feOffset dy="2"/>
<feGaussianBlur stdDeviation="6"/>
<feColorMatrix type="matrix" values="0 0 0 0 0.0964844 0 0 0 0 0.14584 0 0 0 0 0.2375 0 0 0 0.12 0"/>
<feBlend mode="normal" in2="BackgroundImageFix" result="effect1_dropShadow_1_5222"/>
<feBlend mode="normal" in="SourceGraphic" in2="effect1_dropShadow_1_5222" result="shape"/>
</filter>
<linearGradient id="paint0_linear_1_5222" x1="5.36451e-06" y1="239" x2="351.032" y2="112.735" gradientUnits="userSpaceOnUse">
<stop stop-color="#A40C1E"/>
<stop offset="1" stop-color="#EF6575"/>
</linearGradient>
<linearGradient id="paint1_linear_1_5222" x1="75.0719" y1="109.5" x2="76.7603" y2="111.751" gradientUnits="userSpaceOnUse">
<stop stop-color="#E99D58"/>
<stop offset="1" stop-color="#D88A45"/>
</linearGradient>
<linearGradient id="paint2_linear_1_5222" x1="128.225" y1="123.29" x2="131.225" y2="115.772" gradientUnits="userSpaceOnUse">
<stop stop-color="#E28800"/>
<stop offset="1" stop-color="#FFE53B"/>
</linearGradient>
<linearGradient id="paint3_linear_1_5222" x1="103.575" y1="156.015" x2="117.747" y2="149.532" gradientUnits="userSpaceOnUse">
<stop stop-color="#A40C1E"/>
<stop offset="1" stop-color="#EF6575"/>
</linearGradient>
<linearGradient id="paint4_linear_1_5222" x1="94.1407" y1="161.39" x2="122.866" y2="148.79" gradientUnits="userSpaceOnUse">
<stop stop-color="#A40C1E"/>
<stop offset="1" stop-color="#EF6575"/>
</linearGradient>
<linearGradient id="paint5_linear_1_5222" x1="119.89" y1="133.453" x2="126.825" y2="132.991" gradientUnits="userSpaceOnUse">
<stop stop-color="#A40C1E"/>
<stop offset="1" stop-color="#EF6575"/>
</linearGradient>
<linearGradient id="paint6_linear_1_5222" x1="64.9982" y1="143.24" x2="64.9982" y2="167.513" gradientUnits="userSpaceOnUse">
<stop stop-color="#E99D58"/>
<stop offset="1" stop-color="#D88A45"/>
</linearGradient>
<linearGradient id="paint7_linear_1_5222" x1="60.6028" y1="153.612" x2="55.7622" y2="172.386" gradientUnits="userSpaceOnUse">
<stop stop-color="#FDB56C"/>
<stop offset="1" stop-color="#E8A059"/>
</linearGradient>
<linearGradient id="paint8_linear_1_5222" x1="53.8118" y1="148.263" x2="51.1613" y2="171.197" gradientUnits="userSpaceOnUse">
<stop stop-color="#FDB56C"/>
<stop offset="1" stop-color="#E8A059"/>
</linearGradient>
<linearGradient id="paint9_linear_1_5222" x1="53.4629" y1="164.408" x2="67.2815" y2="179.834" gradientUnits="userSpaceOnUse">
<stop stop-color="#FFC17B"/>
<stop offset="1" stop-color="#FEB468"/>
</linearGradient>
<linearGradient id="paint10_linear_1_5222" x1="23.6065" y1="164.751" x2="36.3402" y2="181.892" gradientUnits="userSpaceOnUse">
<stop stop-color="#E99D58"/>
<stop offset="1" stop-color="#D88A45"/>
</linearGradient>
<linearGradient id="paint11_linear_1_5222" x1="14.9304" y1="180.322" x2="8.11719" y2="159.441" gradientUnits="userSpaceOnUse">
<stop stop-color="#FFC885"/>
<stop offset="1" stop-color="#F9BE71"/>
</linearGradient>
<linearGradient id="paint12_linear_1_5222" x1="14.9163" y1="151.27" x2="26.6393" y2="151.27" gradientUnits="userSpaceOnUse">
<stop stop-color="#FFC885"/>
<stop offset="1" stop-color="#F9BE71"/>
</linearGradient>
<linearGradient id="paint13_linear_1_5222" x1="28.969" y1="168.587" x2="50.9532" y2="189.083" gradientUnits="userSpaceOnUse">
<stop stop-color="#FFC885"/>
<stop offset="1" stop-color="#EAA457"/>
</linearGradient>
<linearGradient id="paint14_linear_1_5222" x1="84.7437" y1="171.123" x2="84.7437" y2="188.845" gradientUnits="userSpaceOnUse">
<stop stop-color="#E99D58"/>
<stop offset="1" stop-color="#D88A45"/>
</linearGradient>
<linearGradient id="paint15_linear_1_5222" x1="26.6394" y1="151.314" x2="48.4748" y2="151.314" gradientUnits="userSpaceOnUse">
<stop stop-color="#E99D58"/>
<stop offset="1" stop-color="#D88A45"/>
</linearGradient>
<linearGradient id="paint16_linear_1_5222" x1="11.0166" y1="162.562" x2="12.1613" y2="164.103" gradientUnits="userSpaceOnUse">
<stop stop-color="#E99D58"/>
<stop offset="1" stop-color="#D88A45"/>
</linearGradient>
<linearGradient id="paint17_linear_1_5222" x1="15.4407" y1="160.105" x2="17.9974" y2="163.547" gradientUnits="userSpaceOnUse">
<stop stop-color="#E99D58"/>
<stop offset="1" stop-color="#D88A45"/>
</linearGradient>
<linearGradient id="paint18_linear_1_5222" x1="19.4722" y1="140.661" x2="20.6528" y2="142.25" gradientUnits="userSpaceOnUse">
<stop stop-color="#E99D58"/>
<stop offset="1" stop-color="#D88A45"/>
</linearGradient>
<clipPath id="clip0_1_5222">
<rect width="360" height="239" fill="white"/>
</clipPath>
<clipPath id="clip1_1_5222">
<rect width="88.4672" height="52.8225" fill="white" transform="translate(8.75916 140.283)"/>
</clipPath>
</defs>
</svg>
