<svg width="16" height="16" viewBox="0 0 16 16" fill="none" xmlns="http://www.w3.org/2000/svg">
<path fill-rule="evenodd" clip-rule="evenodd" d="M2.4001 2.4C2.18792 2.4 1.98444 2.48429 1.83441 2.63431C1.68438 2.78434 1.6001 2.98783 1.6001 3.2V12.8C1.6001 13.0122 1.68438 13.2157 1.83441 13.3657C1.98444 13.5157 2.18792 13.6 2.4001 13.6C2.61227 13.6 2.81575 13.5157 2.96578 13.3657C3.11581 13.2157 3.2001 13.0122 3.2001 12.8V3.2C3.2001 2.98783 3.11581 2.78434 2.96578 2.63431C2.81575 2.48429 2.61227 2.4 2.4001 2.4ZM10.6345 9.8344C10.4888 9.98528 10.4081 10.1874 10.41 10.3971C10.4118 10.6069 10.4959 10.8075 10.6442 10.9559C10.7926 11.1042 10.9932 11.1883 11.203 11.1901C11.4127 11.192 11.6148 11.1113 11.7657 10.9656L14.1657 8.5656C14.3157 8.41558 14.3999 8.21213 14.3999 8C14.3999 7.78787 14.3157 7.58442 14.1657 7.4344L11.7657 5.0344C11.6919 4.95799 11.6036 4.89705 11.506 4.85512C11.4084 4.81319 11.3034 4.79112 11.1972 4.7902C11.091 4.78928 10.9857 4.80952 10.8873 4.84974C10.789 4.88997 10.6997 4.94937 10.6246 5.02448C10.5495 5.0996 10.4901 5.18892 10.4498 5.28724C10.4096 5.38555 10.3894 5.4909 10.3903 5.59712C10.3912 5.70334 10.4133 5.80832 10.4552 5.90592C10.4971 6.00353 10.5581 6.0918 10.6345 6.1656L11.6689 7.2H5.6001C5.38792 7.2 5.18444 7.28429 5.03441 7.43431C4.88438 7.58434 4.8001 7.78783 4.8001 8C4.8001 8.21217 4.88438 8.41566 5.03441 8.56568C5.18444 8.71571 5.38792 8.8 5.6001 8.8H11.6689L10.6345 9.8344Z" fill="black"/>
</svg>
