<svg width="16" height="17" viewBox="0 0 16 17" fill="none" xmlns="http://www.w3.org/2000/svg">
<path fill-rule="evenodd" clip-rule="evenodd" d="M14.4001 8.50001C14.4001 10.1974 13.7258 11.8253 12.5256 13.0255C11.3253 14.2257 9.69748 14.9 8.0001 14.9C6.30271 14.9 4.67485 14.2257 3.47461 13.0255C2.27438 11.8253 1.6001 10.1974 1.6001 8.50001C1.6001 6.80262 2.27438 5.17476 3.47461 3.97452C4.67485 2.77429 6.30271 2.10001 8.0001 2.10001C9.69748 2.10001 11.3253 2.77429 12.5256 3.97452C13.7258 5.17476 14.4001 6.80262 14.4001 8.50001ZM8.0001 6.10001C7.85954 6.09987 7.72142 6.13677 7.59966 6.20699C7.47789 6.27721 7.37678 6.37828 7.3065 6.50001C7.25575 6.59431 7.18659 6.67746 7.10311 6.74453C7.01963 6.81161 6.92353 6.86124 6.82051 6.89049C6.71749 6.91973 6.60965 6.928 6.50338 6.91479C6.39711 6.90159 6.29457 6.86718 6.20185 6.81362C6.10912 6.76005 6.02809 6.68841 5.96356 6.60294C5.89904 6.51748 5.85233 6.41993 5.8262 6.31607C5.80007 6.21222 5.79506 6.10418 5.81147 5.99835C5.82787 5.89253 5.86536 5.79108 5.9217 5.70001C6.18587 5.2425 6.59362 4.88494 7.08172 4.68278C7.56981 4.48062 8.11097 4.44516 8.62127 4.58189C9.13157 4.71863 9.5825 5.01992 9.90412 5.43905C10.2257 5.85817 10.4001 6.3717 10.4001 6.90001C10.4002 7.3965 10.2465 7.88083 9.95991 8.28629C9.67336 8.69175 9.26816 8.9984 8.8001 9.16401V9.30001C8.8001 9.51218 8.71581 9.71566 8.56578 9.86569C8.41575 10.0157 8.21227 10.1 8.0001 10.1C7.78792 10.1 7.58444 10.0157 7.43441 9.86569C7.28438 9.71566 7.2001 9.51218 7.2001 9.30001V8.50001C7.2001 8.28783 7.28438 8.08435 7.43441 7.93432C7.58444 7.78429 7.78792 7.70001 8.0001 7.70001C8.21227 7.70001 8.41575 7.61572 8.56578 7.46569C8.71581 7.31566 8.8001 7.11218 8.8001 6.90001C8.8001 6.68783 8.71581 6.48435 8.56578 6.33432C8.41575 6.18429 8.21227 6.10001 8.0001 6.10001ZM8.0001 12.5C8.21227 12.5 8.41575 12.4157 8.56578 12.2657C8.71581 12.1157 8.8001 11.9122 8.8001 11.7C8.8001 11.4878 8.71581 11.2844 8.56578 11.1343C8.41575 10.9843 8.21227 10.9 8.0001 10.9C7.78792 10.9 7.58444 10.9843 7.43441 11.1343C7.28438 11.2844 7.2001 11.4878 7.2001 11.7C7.2001 11.9122 7.28438 12.1157 7.43441 12.2657C7.58444 12.4157 7.78792 12.5 8.0001 12.5Z" fill="black"/>
</svg>
