<svg width="32" height="32" viewBox="0 0 32 32" fill="none" xmlns="http://www.w3.org/2000/svg">
<circle opacity="0.5" cx="11.5" cy="12.5" r="7.5" fill="#667085"/>
<path d="M9 26H23C23.5304 26 24.0391 25.7893 24.4142 25.4142C24.7893 25.0391 25 24.5304 25 24V15C25.0008 14.8684 24.9755 14.7379 24.9258 14.6161C24.876 14.4943 24.8027 14.3834 24.71 14.29L16.71 6.29C16.5226 6.10375 16.2692 5.99921 16.005 5.99921C15.7408 5.99921 15.4874 6.10375 15.3 6.29L7.3 14.29C7.20551 14.3826 7.13034 14.4931 7.07885 14.6149C7.02735 14.7368 7.00055 14.8677 7 15V24C7 24.5304 7.21071 25.0391 7.58579 25.4142C7.96086 25.7893 8.46957 26 9 26ZM14 24V19H18V24H14ZM9 15.41L16 8.41L23 15.41V24H20V19C20 18.4696 19.7893 17.9609 19.4142 17.5858C19.0391 17.2107 18.5304 17 18 17H14C13.4696 17 12.9609 17.2107 12.5858 17.5858C12.2107 17.9609 12 18.4696 12 19V24H9V15.41Z" fill="#344054"/>
</svg>
