<svg width="32" height="32" viewBox="0 0 32 32" fill="none" xmlns="http://www.w3.org/2000/svg">
<circle opacity="0.5" cx="11.5" cy="12.5" r="7.5" fill="#EA4A5D"/>
<path d="M9 26.0001H23C23.5304 26.0001 24.0391 25.7893 24.4142 25.4143C24.7893 25.0392 25 24.5305 25 24.0001V15.0001C25.0008 14.8685 24.9755 14.738 24.9258 14.6162C24.876 14.4943 24.8027 14.3835 24.71 14.2901L16.71 6.29006C16.5226 6.10381 16.2692 5.99927 16.005 5.99927C15.7408 5.99927 15.4874 6.10381 15.3 6.29006L7.3 14.2901C7.20551 14.3827 7.13034 14.4931 7.07885 14.615C7.02735 14.7369 7.00055 14.8678 7 15.0001V24.0001C7 24.5305 7.21071 25.0392 7.58579 25.4143C7.96086 25.7893 8.46957 26.0001 9 26.0001ZM14 24.0001V19.0001H18V24.0001H14ZM9 15.4101L16 8.41006L23 15.4101V24.0001H20V19.0001C20 18.4696 19.7893 17.9609 19.4142 17.5858C19.0391 17.2108 18.5304 17.0001 18 17.0001H14C13.4696 17.0001 12.9609 17.2108 12.5858 17.5858C12.2107 17.9609 12 18.4696 12 19.0001V24.0001H9V15.4101Z" fill="#E52138"/>
</svg>
