<svg width="32" height="32" viewBox="0 0 32 32" fill="none" xmlns="http://www.w3.org/2000/svg">
<g clip-path="url(#clip0_535_3766)">
<circle opacity="0.5" cx="11.5" cy="12.5" r="7.5" fill="#EA4A5D"/>
<path d="M25.447 10.105L19.447 7.10498C19.3081 7.03546 19.1549 6.99927 18.9995 6.99927C18.8441 6.99927 18.6909 7.03546 18.552 7.10498L13 9.88198L7.447 7.10498C7.2945 7.02878 7.12506 6.99283 6.95476 7.00054C6.78446 7.00825 6.61895 7.05938 6.47397 7.14905C6.32899 7.23873 6.20933 7.36398 6.12638 7.51291C6.04342 7.66184 5.99992 7.82951 6 7.99998V21C6 21.379 6.214 21.725 6.553 21.895L12.553 24.895C12.6919 24.9645 12.8451 25.0007 13.0005 25.0007C13.1559 25.0007 13.3091 24.9645 13.448 24.895L19 22.118L24.553 24.894C24.7051 24.9709 24.8744 25.0074 25.0446 24.9998C25.2149 24.9923 25.3803 24.941 25.525 24.851C25.82 24.668 26 24.347 26 24V11C26 10.621 25.786 10.275 25.447 10.105ZM14 11.618L18 9.61798V20.382L14 22.382V11.618ZM8 9.61798L12 11.618V22.382L8 20.382V9.61798ZM24 22.382L20 20.382V9.61798L24 11.618V22.382Z" fill="#E52138"/>
</g>
<defs>
<clipPath id="clip0_535_3766">
<rect width="24" height="24" fill="white" transform="translate(4 4)"/>
</clipPath>
</defs>
</svg>
