<svg width="32" height="32" viewBox="0 0 32 32" fill="none" xmlns="http://www.w3.org/2000/svg">
<circle opacity="0.5" cx="11.5" cy="12.5" r="7.5" fill="#D0D5DD"/>
<path d="M16 6C15.0111 6 14.0444 6.29324 13.2221 6.84265C12.3999 7.39206 11.759 8.17295 11.3806 9.08658C11.0022 10.0002 10.9031 11.0055 11.0961 11.9755C11.289 12.9454 11.7652 13.8363 12.4645 14.5355C13.1637 15.2348 14.0546 15.711 15.0245 15.9039C15.9945 16.0969 16.9998 15.9978 17.9134 15.6194C18.827 15.241 19.6079 14.6001 20.1573 13.7779C20.7068 12.9556 21 11.9889 21 11C21 9.67392 20.4732 8.40215 19.5355 7.46447C18.5979 6.52678 17.3261 6 16 6ZM16 14C15.4067 14 14.8266 13.8241 14.3333 13.4944C13.8399 13.1648 13.4554 12.6962 13.2284 12.1481C13.0013 11.5999 12.9419 10.9967 13.0576 10.4147C13.1734 9.83279 13.4591 9.29824 13.8787 8.87868C14.2982 8.45912 14.8328 8.1734 15.4147 8.05764C15.9967 7.94189 16.5999 8.0013 17.1481 8.22836C17.6962 8.45542 18.1648 8.83994 18.4944 9.33329C18.8241 9.82664 19 10.4067 19 11C19 11.7956 18.6839 12.5587 18.1213 13.1213C17.5587 13.6839 16.7956 14 16 14ZM25 25V24C25 22.1435 24.2625 20.363 22.9497 19.0503C21.637 17.7375 19.8565 17 18 17H14C12.1435 17 10.363 17.7375 9.05025 19.0503C7.7375 20.363 7 22.1435 7 24V25H9V24C9 22.6739 9.52678 21.4021 10.4645 20.4645C11.4021 19.5268 12.6739 19 14 19H18C19.3261 19 20.5979 19.5268 21.5355 20.4645C22.4732 21.4021 23 22.6739 23 24V25H25Z" fill="#667085"/>
</svg>
