<svg width="16" height="16" viewBox="0 0 16 16" fill="none" xmlns="http://www.w3.org/2000/svg">
<path fill-rule="evenodd" clip-rule="evenodd" d="M1.7329 3.9992C4.04901 3.9704 6.27595 3.10197 8.0001 1.5552C9.72413 3.10226 11.9511 3.97098 14.2673 4C14.3553 4.52 14.4001 5.056 14.4001 5.6008C14.4001 9.7808 11.7281 13.3368 8.0001 14.6544C4.2721 13.336 1.6001 9.78 1.6001 5.6C1.6001 5.0544 1.6457 4.52 1.7329 3.9992ZM10.9657 6.9656C11.1114 6.81472 11.1921 6.61264 11.1902 6.40288C11.1884 6.19312 11.1043 5.99247 10.956 5.84414C10.8076 5.69582 10.607 5.61168 10.3972 5.60986C10.1875 5.60804 9.98538 5.68867 9.8345 5.8344L7.2001 8.4688L6.1657 7.4344C6.01482 7.28867 5.81273 7.20804 5.60298 7.20986C5.39322 7.21168 5.19257 7.29582 5.04424 7.44414C4.89592 7.59247 4.81178 7.79312 4.80996 8.00288C4.80814 8.21264 4.88877 8.41472 5.0345 8.5656L6.6345 10.1656C6.78452 10.3156 6.98797 10.3998 7.2001 10.3998C7.41223 10.3998 7.61568 10.3156 7.7657 10.1656L10.9657 6.9656Z" fill="black"/>
</svg>
